# File generated with source-mdl (https://github.com/LordVonAdel/source-mdl)
mtllib unconid/genesis/genesis_cartridge.mdl.mtl
o unconid/genesis/genesis_cartridge.mdl
v -2.569520950317383 0.08903300017118454 -0.030837999656796455
v 2.569520950317383 0.08903300017118454 -0.030837999656796455
v 2.569520950317383 0.08903300017118454 0.04024700075387955
v -2.569520950317383 0.08903300017118454 0.04024700075387955
v -2.569520950317383 0.08903300017118454 0.04024700075387955
v 2.6436409950256348 2.2243359088897705 -0.21010300517082214
v -2.960900068283081 3.819535970687866 -0.40384000539779663
v -2.960900068283081 2.2243359088897705 -0.40383899211883545
v -2.625 0.06998100131750107 -0.40383899211883545
v 2.960900068283081 0.06998100131750107 -0.18550899624824524
v 2.960900068283081 3.819535970687866 -0.40384000539779663
v -2.694010019302368 3.868030071258545 0.22455599904060364
v 2.694580078125 3.868030071258545 0.24243299663066864
v 2.8569459915161133 3.868030071258545 0.03282099962234497
v 2.505254030227661 3.868030071258545 0.3712790012359619
v -2.505254030227661 3.868030071258545 0.34939199686050415
v -2.6252589225769043 2.2243359088897705 -0.40383899211883545
v 2.960900068283081 2.2243359088897705 -0.40383899211883545
v 2.6436409950256348 2.2243359088897705 -0.40383899211883545
v -2.625 0.06998100131750107 -0.21010200679302216
v 2.960900068283081 3.819535970687866 -0.40384000539779663
v -2.936008930206299 3.868030071258545 -0.37183499336242676
v -2.694010019302368 3.868030071258545 0.22455599904060364
v -2.8536179065704346 3.868030071258545 0.03282099962234497
v -2.500869035720825 0.06998100131750107 0.38154301047325134
v 2.960900068283081 0.06998100131750107 -0.18550899624824524
v -2.960900068283081 0.06998100131750107 -0.18550899624824524
v 2.8016860485076904 0.06998000293970108 -0.1349480003118515
v 2.7238619327545166 0.06998100131750107 0.020072000101208687
v 2.5014870166778564 0.06998000293970108 -0.15241000056266785
v 2.5014870166778564 0.06998000293970108 -0.28996700048446655
v -2.483849048614502 0.06998000293970108 -0.28996700048446655
v -2.3663930892944336 0.06998100131750107 0.26767098903656006
v -2.483849048614502 0.06998000293970108 -0.15241000056266785
v -2.8016860485076904 0.06998000293970108 -0.1349480003118515
v 2.8016860485076904 0.6072250008583069 -0.1349480003118515
v 2.7238609790802 0.6072250008583069 0.020072000101208687
v 2.5014870166778564 0.6072250008583069 -0.15241000056266785
v 2.5601320266723633 0.6072250008583069 0.1750909984111786
v 2.5014870166778564 0.6072250008583069 -0.28996700048446655
v 2.3663930892944336 0.6072250008583069 0.26767000555992126
v -2.483849048614502 0.6072250008583069 -0.28996700048446655
v -2.483849048614502 0.6072250008583069 -0.15241000056266785
v -2.3663930892944336 0.6072250008583069 0.26767000555992126
v 0.0028280001133680344 0.6072250008583069 -0.018780000507831573
v -2.7238609790802 0.6072250008583069 0.020072000101208687
v -2.5601320266723633 0.6072250008583069 0.1750909984111786
v -2.8016860485076904 0.6072250008583069 -0.1349480003118515
v -2.960900068283081 3.819535970687866 -0.40384000539779663
v -2.960900068283081 3.819535970687866 -0.40384000539779663
v 2.569520950317383 0.47717100381851196 -0.030837999656796455
v 2.569520950317383 0.08903300017118454 -0.030837999656796455
v 2.569520950317383 0.47717100381851196 0.04024700075387955
v 2.569520950317383 0.08903300017118454 0.04024700075387955
v -2.569520950317383 0.47717100381851196 -0.030837999656796455
v 2.569520950317383 0.47717100381851196 -0.030837999656796455
v -2.569520950317383 0.47717100381851196 0.04024700075387955
v -2.569520950317383 0.08903300017118454 0.04024700075387955
v -2.569520950317383 0.08903300017118454 -0.030837999656796455
v 2.569520950317383 0.47717100381851196 0.04024700075387955
v -2.569520950317383 0.47717100381851196 -0.030837999656796455
v -2.569520950317383 0.47717100381851196 0.04024700075387955
v 2.569520950317383 0.08903300017118454 -0.030837999656796455
v 2.569520950317383 0.08903300017118454 0.04024700075387955
v 2.6436409950256348 0.06998100131750107 -0.21010200679302216
v 2.960900068283081 0.06998100131750107 -0.18550899624824524
v -2.569520950317383 0.08903300017118454 -0.030837999656796455
v 2.960900068283081 2.2243359088897705 -0.18550899624824524
v -2.960900068283081 3.819535970687866 -0.40384000539779663
v -2.6252589225769043 2.2243359088897705 -0.40383899211883545
v -2.6252589225769043 2.2243359088897705 -0.21010300517082214
v 2.960900068283081 3.819535970687866 -0.18550899624824524
v 2.8786520957946777 0.06998100131750107 0.03282200172543526
v 2.7056190967559814 3.819535970687866 0.25115200877189636
v -2.625 0.06998100131750107 -0.21010200679302216
v 2.6436409950256348 3.819535970687866 -0.40384000539779663
v 2.9395060539245605 3.868030071258545 -0.37183499336242676
v 2.7056190967559814 3.819535970687866 0.25115200877189636
v 2.960900068283081 3.819535970687866 -0.18550899624824524
v 2.7056190967559814 0.06998100131750107 0.25115299224853516
v 2.694580078125 3.868030071258545 0.24243299663066864
v -2.8786520957946777 3.819535970687866 0.03282099962234497
v -2.8786520957946777 0.06998100131750107 0.03282200172543526
v -2.960900068283081 3.819535970687866 -0.40384000539779663
v -2.7056190967559814 0.06998100131750107 0.25115299224853516
v -2.500869035720825 3.819535970687866 0.38154199719429016
v -2.8786520957946777 3.819535970687866 0.03282099962234497
v -2.960900068283081 0.06998100131750107 -0.18550899624824524
v -2.936008930206299 3.868030071258545 -0.37183499336242676
v 2.9395060539245605 3.868030071258545 -0.37183499336242676
v 2.939337968826294 3.868030071258545 -0.18550899624824524
v 2.939337968826294 3.868030071258545 -0.18550899624824524
v 2.8569459915161133 3.868030071258545 0.03282099962234497
v 2.505254030227661 3.868030071258545 0.3712790012359619
v -2.694010019302368 3.868030071258545 0.22455599904060364
v -2.6252589225769043 3.868030071258545 -0.37183499336242676
v 2.6436409950256348 3.868030071258545 -0.37183499336242676
v 2.694580078125 3.868030071258545 0.24243299663066864
v -2.960900068283081 2.2243359088897705 -0.40383899211883545
v -2.960900068283081 2.2243359088897705 -0.18550899624824524
v -2.6252589225769043 2.2243359088897705 -0.21010300517082214
v 2.6436409950256348 2.2243359088897705 -0.40383899211883545
v 2.6436409950256348 2.2243359088897705 -0.21010300517082214
v 2.6436409950256348 0.06998100131750107 -0.21010200679302216
v 2.6436409950256348 0.06998100131750107 -0.40383899211883545
v 2.960900068283081 2.2243359088897705 -0.18550899624824524
v 2.6436409950256348 2.2243359088897705 -0.21010300517082214
v -2.6252589225769043 2.2243359088897705 -0.21010300517082214
v -2.960900068283081 2.2243359088897705 -0.18550899624824524
v 2.960900068283081 2.2243359088897705 -0.40383899211883545
v -2.960900068283081 0.06998100131750107 -0.18550899624824524
v 2.6440000534057617 3.868030071258545 -0.18550899624824524
v 2.6436409950256348 3.819535970687866 -0.40384000539779663
v 2.6436409950256348 0.06998100131750107 -0.40383899211883545
v 2.6440000534057617 3.868030071258545 0.03282099962234497
v -2.625 0.06998100131750107 -0.40383899211883545
v -2.625 3.868030071258545 -0.18550899624824524
v -2.936008930206299 3.868030071258545 -0.18550899624824524
v -2.936008930206299 3.868030071258545 -0.37183499336242676
v -2.8536179065704346 3.868030071258545 0.03282099962234497
v -2.625 3.868030071258545 0.03282099962234497
v 2.500869035720825 0.06998100131750107 0.38154301047325134
v 2.8016860485076904 0.06998000293970108 -0.1349480003118515
v 2.8016860485076904 0.06998000293970108 -0.1349480003118515
v 2.960900068283081 0.06998100131750107 -0.18550899624824524
v -2.936008930206299 3.868030071258545 -0.18550899624824524
v 2.6436409950256348 0.06998100131750107 -0.21010200679302216
v 2.500869035720825 0.06998100131750107 0.38154301047325134
v -2.8016860485076904 0.06998000293970108 -0.1349480003118515
v -2.625 0.06998100131750107 -0.21010200679302216
v 2.5014870166778564 0.06998000293970108 -0.28996700048446655
v -2.625 0.06998100131750107 -0.40383899211883545
v -2.483849048614502 0.06998000293970108 -0.28996700048446655
v 2.7056190967559814 0.06998100131750107 0.25115299224853516
v 2.5601320266723633 0.06998100131750107 0.1750909984111786
v 2.5014870166778564 0.06998000293970108 -0.15241000056266785
v 2.6436409950256348 0.06998100131750107 -0.40383899211883545
v 2.8786520957946777 0.06998100131750107 0.03282200172543526
v 2.7238619327545166 0.06998100131750107 0.020072000101208687
v -2.960900068283081 0.06998100131750107 -0.18550899624824524
v 2.3663930892944336 0.06998100131750107 0.26767098903656006
v -2.7056190967559814 0.06998100131750107 0.25115299224853516
v -2.5601320266723633 0.06998100131750107 0.1750909984111786
v -2.483849048614502 0.06998000293970108 -0.15241000056266785
v -2.500869035720825 0.06998100131750107 0.38154301047325134
v -2.3663930892944336 0.06998100131750107 0.26767098903656006
v 2.5014870166778564 0.6072250008583069 -0.15241000056266785
v -2.8786520957946777 0.06998100131750107 0.03282200172543526
v 2.5014870166778564 0.06998000293970108 -0.15241000056266785
v -2.8016860485076904 0.06998000293970108 -0.1349480003118515
v -2.7238619327545166 0.06998100131750107 0.020072000101208687
v 2.8016860485076904 0.6072250008583069 -0.1349480003118515
v 2.8016860485076904 0.6072250008583069 -0.1349480003118515
v 2.8016860485076904 0.06998000293970108 -0.1349480003118515
v 2.5014870166778564 0.6072250008583069 -0.28996700048446655
v 2.7238609790802 0.6072250008583069 0.020072000101208687
v 2.5014870166778564 0.06998000293970108 -0.28996700048446655
v 2.7238609790802 0.6072250008583069 0.020072000101208687
v 2.7238619327545166 0.06998100131750107 0.020072000101208687
v 2.5014870166778564 0.6072250008583069 -0.15241000056266785
v -2.483849048614502 0.06998000293970108 -0.28996700048446655
v -2.483849048614502 0.6072250008583069 -0.28996700048446655
v 2.5601320266723633 0.06998100131750107 0.1750909984111786
v 2.5014870166778564 0.6072250008583069 -0.28996700048446655
v -2.483849048614502 0.6072250008583069 -0.15241000056266785
v 2.5601320266723633 0.6072250008583069 0.1750909984111786
v -2.483849048614502 0.06998000293970108 -0.15241000056266785
v -2.3663930892944336 0.6072250008583069 0.26767000555992126
v 2.3663930892944336 0.06998100131750107 0.26767098903656006
v -2.8016860485076904 0.6072250008583069 -0.1349480003118515
v 2.3663930892944336 0.6072250008583069 0.26767000555992126
v -2.8016860485076904 0.06998000293970108 -0.1349480003118515
v -2.483849048614502 0.6072250008583069 -0.28996700048446655
v -2.3663930892944336 0.06998100131750107 0.26767098903656006
v -2.483849048614502 0.6072250008583069 -0.15241000056266785
v -2.3663930892944336 0.6072250008583069 0.26767000555992126
v -2.5601320266723633 0.6072250008583069 0.1750909984111786
v -2.7238619327545166 0.06998100131750107 0.020072000101208687
v -2.8016860485076904 0.6072250008583069 -0.1349480003118515
v -2.7238609790802 0.6072250008583069 0.020072000101208687
v -2.936008930206299 3.868030071258545 -0.37183499336242676
v 2.960900068283081 3.819535970687866 -0.40384000539779663
v -2.6252589225769043 3.819535970687866 -0.40384000539779663
v 2.960900068283081 2.2243359088897705 -0.40383899211883545
v -2.6252589225769043 3.868030071258545 -0.37183499336242676
v -2.5601320266723633 0.06998100131750107 0.1750909984111786
v -2.960900068283081 3.819535970687866 -0.18550899624824524
v -2.936008930206299 3.868030071258545 -0.18550899624824524
v -2.960900068283081 2.2243359088897705 -0.18550899624824524
v -2.7056190967559814 3.819535970687866 0.25115200877189636
v -2.694010019302368 3.868030071258545 0.22455599904060364
v 2.500869035720825 3.819535970687866 0.38154199719429016
v 2.505254030227661 3.868030071258545 0.3712790012359619
v -2.8786520957946777 2.2243359088897705 0.03282200172543526
v 2.6436409950256348 2.2243359088897705 -0.40383899211883545
v -2.500869035720825 2.2243359088897705 0.38154301047325134
v 2.939337968826294 3.868030071258545 -0.18550899624824524
v 2.8786520957946777 3.819535970687866 0.03282099962234497
v 2.694580078125 3.868030071258545 0.24243299663066864
v 2.500869035720825 2.2243359088897705 0.38154301047325134
v 2.8786520957946777 3.819535970687866 0.03282099962234497
v 2.8569459915161133 3.868030071258545 0.03282099962234497
v 2.7056190967559814 2.2243359088897705 0.25115200877189636
v 2.8786520957946777 2.2243359088897705 0.03282200172543526
v 2.960900068283081 2.2243359088897705 -0.18550899624824524
v -2.6252589225769043 2.2243359088897705 -0.40383899211883545
v -2.6252589225769043 3.819535970687866 -0.40384000539779663
v 2.960900068283081 3.819535970687866 -0.40384000539779663
v -2.505254030227661 3.868030071258545 0.34939199686050415
v -2.960900068283081 2.2243359088897705 -0.40383899211883545
v -2.7056190967559814 3.819535970687866 0.25115200877189636
v -2.7056190967559814 2.2243359088897705 0.25115200877189636
v -2.8536179065704346 3.868030071258545 0.03282099962234497
v -2.960900068283081 3.819535970687866 -0.18550899624824524
v 2.9395060539245605 3.868030071258545 -0.37183499336242676
v 2.6436409950256348 3.868030071258545 -0.37183499336242676
v -2.569520950317383 0.08903300017118454 -0.030837999656796455
v 2.569520950317383 0.08903300017118454 -0.030837999656796455
v 2.569520950317383 0.08903300017118454 0.04024700075387955
v -2.569520950317383 0.08903300017118454 0.04024700075387955
v -2.569520950317383 0.08903300017118454 0.04024700075387955
v 2.6436409950256348 2.2243359088897705 -0.21010300517082214
v -2.960900068283081 3.819535970687866 -0.40384000539779663
v -2.960900068283081 2.2243359088897705 -0.40383899211883545
v -2.625 0.06998100131750107 -0.40383899211883545
v 2.960900068283081 0.06998100131750107 -0.18550899624824524
v 2.960900068283081 3.819535970687866 -0.40384000539779663
v -2.694010019302368 3.868030071258545 0.22455599904060364
v 2.694580078125 3.868030071258545 0.24243299663066864
v 2.8569459915161133 3.868030071258545 0.03282099962234497
v 2.505254030227661 3.868030071258545 0.3712790012359619
v -2.505254030227661 3.868030071258545 0.34939199686050415
v -2.6252589225769043 2.2243359088897705 -0.40383899211883545
v 2.960900068283081 2.2243359088897705 -0.40383899211883545
v 2.6436409950256348 2.2243359088897705 -0.40383899211883545
v -2.625 0.06998100131750107 -0.21010200679302216
v 2.960900068283081 3.819535970687866 -0.40384000539779663
v -2.936008930206299 3.868030071258545 -0.37183499336242676
v -2.694010019302368 3.868030071258545 0.22455599904060364
v -2.8536179065704346 3.868030071258545 0.03282099962234497
v -2.500869035720825 0.06998100131750107 0.38154301047325134
v 2.960900068283081 0.06998100131750107 -0.18550899624824524
v -2.960900068283081 0.06998100131750107 -0.18550899624824524
v 2.8016860485076904 0.06998000293970108 -0.1349480003118515
v 2.7238619327545166 0.06998100131750107 0.020072000101208687
v 2.5014870166778564 0.06998000293970108 -0.15241000056266785
v 2.5014870166778564 0.06998000293970108 -0.28996700048446655
v -2.483849048614502 0.06998000293970108 -0.28996700048446655
v -2.3663930892944336 0.06998100131750107 0.26767098903656006
v -2.483849048614502 0.06998000293970108 -0.15241000056266785
v -2.8016860485076904 0.06998000293970108 -0.1349480003118515
v 2.8016860485076904 0.6072250008583069 -0.1349480003118515
v 2.7238609790802 0.6072250008583069 0.020072000101208687
v 2.5014870166778564 0.6072250008583069 -0.15241000056266785
v 2.5601320266723633 0.6072250008583069 0.1750909984111786
v 2.5014870166778564 0.6072250008583069 -0.28996700048446655
v 2.3663930892944336 0.6072250008583069 0.26767000555992126
v -2.483849048614502 0.6072250008583069 -0.28996700048446655
v -2.483849048614502 0.6072250008583069 -0.15241000056266785
v -2.3663930892944336 0.6072250008583069 0.26767000555992126
v 0.0028280001133680344 0.6072250008583069 -0.018780000507831573
v -2.7238609790802 0.6072250008583069 0.020072000101208687
v -2.5601320266723633 0.6072250008583069 0.1750909984111786
v -2.8016860485076904 0.6072250008583069 -0.1349480003118515
v -2.960900068283081 3.819535970687866 -0.40384000539779663
v -2.960900068283081 3.819535970687866 -0.40384000539779663
v 2.569520950317383 0.47717100381851196 -0.030837999656796455
v 2.569520950317383 0.08903300017118454 -0.030837999656796455
v 2.569520950317383 0.47717100381851196 0.04024700075387955
v 2.569520950317383 0.08903300017118454 0.04024700075387955
v -2.569520950317383 0.47717100381851196 -0.030837999656796455
v 2.569520950317383 0.47717100381851196 -0.030837999656796455
v -2.569520950317383 0.47717100381851196 0.04024700075387955
v -2.569520950317383 0.08903300017118454 0.04024700075387955
v -2.569520950317383 0.08903300017118454 -0.030837999656796455
v 2.569520950317383 0.47717100381851196 0.04024700075387955
v -2.569520950317383 0.47717100381851196 -0.030837999656796455
v -2.569520950317383 0.47717100381851196 0.04024700075387955
v 2.569520950317383 0.08903300017118454 -0.030837999656796455
v 2.569520950317383 0.08903300017118454 0.04024700075387955
v 2.6436409950256348 0.06998100131750107 -0.21010200679302216
v 2.960900068283081 0.06998100131750107 -0.18550899624824524
v -2.569520950317383 0.08903300017118454 -0.030837999656796455
v 2.960900068283081 2.2243359088897705 -0.18550899624824524
v -2.960900068283081 3.819535970687866 -0.40384000539779663
v -2.6252589225769043 2.2243359088897705 -0.40383899211883545
v -2.6252589225769043 2.2243359088897705 -0.21010300517082214
v 2.960900068283081 3.819535970687866 -0.18550899624824524
v 2.8786520957946777 0.06998100131750107 0.03282200172543526
v 2.7056190967559814 3.819535970687866 0.25115200877189636
v -2.625 0.06998100131750107 -0.21010200679302216
v 2.6436409950256348 3.819535970687866 -0.40384000539779663
v 2.9395060539245605 3.868030071258545 -0.37183499336242676
v 2.7056190967559814 3.819535970687866 0.25115200877189636
v 2.960900068283081 3.819535970687866 -0.18550899624824524
v 2.7056190967559814 0.06998100131750107 0.25115299224853516
v 2.694580078125 3.868030071258545 0.24243299663066864
v -2.8786520957946777 3.819535970687866 0.03282099962234497
v -2.8786520957946777 0.06998100131750107 0.03282200172543526
v -2.960900068283081 3.819535970687866 -0.40384000539779663
v -2.7056190967559814 0.06998100131750107 0.25115299224853516
v -2.500869035720825 3.819535970687866 0.38154199719429016
v -2.8786520957946777 3.819535970687866 0.03282099962234497
v -2.960900068283081 0.06998100131750107 -0.18550899624824524
v -2.936008930206299 3.868030071258545 -0.37183499336242676
v 2.9395060539245605 3.868030071258545 -0.37183499336242676
v 2.939337968826294 3.868030071258545 -0.18550899624824524
v 2.939337968826294 3.868030071258545 -0.18550899624824524
v 2.8569459915161133 3.868030071258545 0.03282099962234497
v 2.505254030227661 3.868030071258545 0.3712790012359619
v -2.694010019302368 3.868030071258545 0.22455599904060364
v -2.6252589225769043 3.868030071258545 -0.37183499336242676
v 2.6436409950256348 3.868030071258545 -0.37183499336242676
v 2.694580078125 3.868030071258545 0.24243299663066864
v -2.960900068283081 2.2243359088897705 -0.40383899211883545
v -2.960900068283081 2.2243359088897705 -0.18550899624824524
v -2.6252589225769043 2.2243359088897705 -0.21010300517082214
v 2.6436409950256348 2.2243359088897705 -0.40383899211883545
v 2.6436409950256348 2.2243359088897705 -0.21010300517082214
v 2.6436409950256348 0.06998100131750107 -0.21010200679302216
v 2.6436409950256348 0.06998100131750107 -0.40383899211883545
v 2.960900068283081 2.2243359088897705 -0.18550899624824524
v 2.6436409950256348 2.2243359088897705 -0.21010300517082214
v -2.6252589225769043 2.2243359088897705 -0.21010300517082214
v -2.960900068283081 2.2243359088897705 -0.18550899624824524
v 2.960900068283081 2.2243359088897705 -0.40383899211883545
v -2.960900068283081 0.06998100131750107 -0.18550899624824524
v 2.6440000534057617 3.868030071258545 -0.18550899624824524
v 2.6436409950256348 3.819535970687866 -0.40384000539779663
v 2.6436409950256348 0.06998100131750107 -0.40383899211883545
v 2.6440000534057617 3.868030071258545 0.03282099962234497
v -2.625 0.06998100131750107 -0.40383899211883545
v -2.625 3.868030071258545 -0.18550899624824524
v -2.936008930206299 3.868030071258545 -0.18550899624824524
v -2.936008930206299 3.868030071258545 -0.37183499336242676
v -2.8536179065704346 3.868030071258545 0.03282099962234497
v -2.625 3.868030071258545 0.03282099962234497
v 2.500869035720825 0.06998100131750107 0.38154301047325134
v 2.8016860485076904 0.06998000293970108 -0.1349480003118515
v 2.8016860485076904 0.06998000293970108 -0.1349480003118515
v 2.960900068283081 0.06998100131750107 -0.18550899624824524
v -2.936008930206299 3.868030071258545 -0.18550899624824524
v 2.6436409950256348 0.06998100131750107 -0.21010200679302216
v 2.500869035720825 0.06998100131750107 0.38154301047325134
v -2.8016860485076904 0.06998000293970108 -0.1349480003118515
v -2.625 0.06998100131750107 -0.21010200679302216
v 2.5014870166778564 0.06998000293970108 -0.28996700048446655
v -2.625 0.06998100131750107 -0.40383899211883545
v -2.483849048614502 0.06998000293970108 -0.28996700048446655
v 2.7056190967559814 0.06998100131750107 0.25115299224853516
v 2.5601320266723633 0.06998100131750107 0.1750909984111786
v 2.5014870166778564 0.06998000293970108 -0.15241000056266785
v 2.6436409950256348 0.06998100131750107 -0.40383899211883545
v 2.8786520957946777 0.06998100131750107 0.03282200172543526
v 2.7238619327545166 0.06998100131750107 0.020072000101208687
v -2.960900068283081 0.06998100131750107 -0.18550899624824524
v 2.3663930892944336 0.06998100131750107 0.26767098903656006
v -2.7056190967559814 0.06998100131750107 0.25115299224853516
v -2.5601320266723633 0.06998100131750107 0.1750909984111786
v -2.483849048614502 0.06998000293970108 -0.15241000056266785
v -2.500869035720825 0.06998100131750107 0.38154301047325134
v -2.3663930892944336 0.06998100131750107 0.26767098903656006
v 2.5014870166778564 0.6072250008583069 -0.15241000056266785
v -2.8786520957946777 0.06998100131750107 0.03282200172543526
v 2.5014870166778564 0.06998000293970108 -0.15241000056266785
v -2.8016860485076904 0.06998000293970108 -0.1349480003118515
v -2.7238619327545166 0.06998100131750107 0.020072000101208687
v 2.8016860485076904 0.6072250008583069 -0.1349480003118515
v 2.8016860485076904 0.6072250008583069 -0.1349480003118515
v 2.8016860485076904 0.06998000293970108 -0.1349480003118515
v 2.5014870166778564 0.6072250008583069 -0.28996700048446655
v 2.7238609790802 0.6072250008583069 0.020072000101208687
v 2.5014870166778564 0.06998000293970108 -0.28996700048446655
v 2.7238609790802 0.6072250008583069 0.020072000101208687
v 2.7238619327545166 0.06998100131750107 0.020072000101208687
v 2.5014870166778564 0.6072250008583069 -0.15241000056266785
v -2.483849048614502 0.06998000293970108 -0.28996700048446655
v -2.483849048614502 0.6072250008583069 -0.28996700048446655
v 2.5601320266723633 0.06998100131750107 0.1750909984111786
v 2.5014870166778564 0.6072250008583069 -0.28996700048446655
v -2.483849048614502 0.6072250008583069 -0.15241000056266785
v 2.5601320266723633 0.6072250008583069 0.1750909984111786
v -2.483849048614502 0.06998000293970108 -0.15241000056266785
v -2.3663930892944336 0.6072250008583069 0.26767000555992126
v 2.3663930892944336 0.06998100131750107 0.26767098903656006
v -2.8016860485076904 0.6072250008583069 -0.1349480003118515
v 2.3663930892944336 0.6072250008583069 0.26767000555992126
v -2.8016860485076904 0.06998000293970108 -0.1349480003118515
v -2.483849048614502 0.6072250008583069 -0.28996700048446655
v -2.3663930892944336 0.06998100131750107 0.26767098903656006
v -2.483849048614502 0.6072250008583069 -0.15241000056266785
v -2.3663930892944336 0.6072250008583069 0.26767000555992126
v -2.5601320266723633 0.6072250008583069 0.1750909984111786
v -2.7238619327545166 0.06998100131750107 0.020072000101208687
v -2.8016860485076904 0.6072250008583069 -0.1349480003118515
v -2.7238609790802 0.6072250008583069 0.020072000101208687
v -2.936008930206299 3.868030071258545 -0.37183499336242676
v 2.960900068283081 3.819535970687866 -0.40384000539779663
v -2.6252589225769043 3.819535970687866 -0.40384000539779663
v 2.960900068283081 2.2243359088897705 -0.40383899211883545
v -2.6252589225769043 3.868030071258545 -0.37183499336242676
v -2.5601320266723633 0.06998100131750107 0.1750909984111786
v -2.960900068283081 3.819535970687866 -0.18550899624824524
v -2.936008930206299 3.868030071258545 -0.18550899624824524
v -2.960900068283081 2.2243359088897705 -0.18550899624824524
v -2.7056190967559814 3.819535970687866 0.25115200877189636
v -2.694010019302368 3.868030071258545 0.22455599904060364
v 2.500869035720825 3.819535970687866 0.38154199719429016
v 2.505254030227661 3.868030071258545 0.3712790012359619
v -2.8786520957946777 2.2243359088897705 0.03282200172543526
v 2.6436409950256348 2.2243359088897705 -0.40383899211883545
v -2.500869035720825 2.2243359088897705 0.38154301047325134
v 2.939337968826294 3.868030071258545 -0.18550899624824524
v 2.8786520957946777 3.819535970687866 0.03282099962234497
v 2.694580078125 3.868030071258545 0.24243299663066864
v 2.500869035720825 2.2243359088897705 0.38154301047325134
v 2.8786520957946777 3.819535970687866 0.03282099962234497
v 2.8569459915161133 3.868030071258545 0.03282099962234497
v 2.7056190967559814 2.2243359088897705 0.25115200877189636
v 2.8786520957946777 2.2243359088897705 0.03282200172543526
v 2.960900068283081 2.2243359088897705 -0.18550899624824524
v -2.6252589225769043 2.2243359088897705 -0.40383899211883545
v -2.6252589225769043 3.819535970687866 -0.40384000539779663
v 2.960900068283081 3.819535970687866 -0.40384000539779663
v -2.505254030227661 3.868030071258545 0.34939199686050415
v -2.960900068283081 2.2243359088897705 -0.40383899211883545
v -2.7056190967559814 3.819535970687866 0.25115200877189636
v -2.7056190967559814 2.2243359088897705 0.25115200877189636
v -2.8536179065704346 3.868030071258545 0.03282099962234497
v -2.960900068283081 3.819535970687866 -0.18550899624824524
v 2.9395060539245605 3.868030071258545 -0.37183499336242676
v 2.6436409950256348 3.868030071258545 -0.37183499336242676
vt 0.8986790180206299 0.9452829957008362
vt 0.9018930196762085 0.4535380005836487
vt 0.9086959958076477 0.4535819888114929
vt 0.9054809808731079 0.9453279972076416
vt 0.9054809808731079 0.9453279972076416
vt 0.10740000009536743 0.25620198249816895
vt 0.7385169863700867 0.4518589973449707
vt 0.7408570051193237 0.279990017414093
vt 0.7050390243530273 0.03623998165130615
vt 0.030710000544786453 0.9761120080947876
vt 0.08235300332307816 0.4443179965019226
vt 0.7109060287475586 0.524403989315033
vt 0.10615800321102142 0.5199270248413086
vt 0.08979299664497375 0.4943060278892517
vt 0.12362600117921829 0.5362210273742676
vt 0.6910560131072998 0.5393940210342407
vt 0.7043430209159851 0.2733740210533142
vt 0.08489800244569778 0.2729640007019043
vt 0.11923400312662125 0.26731300354003906
vt 0.7213550209999084 0.03160202503204346
vt 0.08235300332307816 0.4443179965019226
vt 0.7347859740257263 0.4571170210838318
vt 0.7109060287475586 0.524403989315033
vt 0.7282130122184753 0.5017780065536499
vt 0.6892330050468445 0.9746410250663757
vt 0.07458700239658356 0.028239011764526367
vt 0.7734900116920471 0.9776700139045715
vt 0.8837590217590332 0.34449702501296997
vt 0.883758008480072 0.35197901725769043
vt 0.8837590217590332 0.331525981426239
vt 0.8837590217590332 0.3255929946899414
vt 0.8837590217590332 0.11054497957229614
vt 0.8572689890861511 0.3161519765853882
vt 0.8837590217590332 0.10461097955703735
vt 0.8837590217590332 0.09087902307510376
vt 0.8167269825935364 0.09322601556777954
vt 0.8234140276908875 0.09658300876617432
vt 0.8159739971160889 0.10617202520370483
vt 0.8301010131835938 0.10364598035812378
vt 0.8100399971008301 0.10617202520370483
vt 0.8340939879417419 0.11200398206710815
vt 0.8100399971008301 0.3212270140647888
vt 0.8159739971160889 0.3212270140647888
vt 0.8340950012207031 0.3161519765853882
vt 0.8217380046844482 0.2139570116996765
vt 0.8234140276908875 0.3315719962120056
vt 0.8301010131835938 0.32450902462005615
vt 0.8167279958724976 0.3349289894104004
vt 0.7385169863700867 0.4518589973449707
vt 0.8034499883651733 0.5466489791870117
vt 0.864753007888794 0.4532949924468994
vt 0.9018930196762085 0.4535380005836487
vt 0.908939003944397 0.41644197702407837
vt 0.9086959958076477 0.4535819888114929
vt 0.8615390062332153 0.9450399875640869
vt 0.9021369814872742 0.41639798879623413
vt 0.9426220059394836 0.9455699920654297
vt 0.9054809808731079 0.9453279972076416
vt 0.8986790180206299 0.9452829957008362
vt 0.9458360075950623 0.4538249969482422
vt 0.8984360098838806 0.9824299812316895
vt 0.9052389860153198 0.9824739694595337
vt 0.9018930196762085 0.4535380005836487
vt 0.9086959958076477 0.4535819888114929
vt 0.108085997402668 0.02685701847076416
vt 0.07458700239658356 0.028239011764526367
vt 0.8986790180206299 0.9452829957008362
vt 0.07855100184679031 0.2563149929046631
vt 0.7385169863700867 0.4518589973449707
vt 0.7043430209159851 0.2733740210533142
vt 0.7163810133934021 0.26232701539993286
vt 0.07715599983930588 0.46904999017715454
vt 0.05851199850440025 0.9738619923591614
vt 0.10160700231790543 0.5233739614486694
vt 0.7213550209999084 0.03160202503204346
vt 0.11705300211906433 0.44471800327301025
vt 0.08547600358724594 0.4496229887008667
vt 0.09390100091695786 0.5411089658737183
vt 0.034988999366760254 0.5401259660720825
vt 0.09039399772882462 0.9722700119018555
vt 0.10615800321102142 0.5199270248413086
vt 0.7516559958457947 0.5463709831237793
vt 0.7466760277748108 0.9759309887886047
vt 0.7385169863700867 0.4518589973449707
vt 0.7156299948692322 0.9748150110244751
vt 0.6918849945068359 0.5460759997367859
vt 0.7342749834060669 0.5033069849014282
vt 0.7734900116920471 0.9776700139045715
vt 0.7347859740257263 0.4571170210838318
vt 0.08547600358724594 0.4496229887008667
vt 0.0831570029258728 0.46925199031829834
vt 0.0831570029258728 0.46925199031829834
vt 0.08979299664497375 0.4943060278892517
vt 0.12362600117921829 0.5362210273742676
vt 0.7109060287475586 0.524403989315033
vt 0.7018619775772095 0.45764702558517456
vt 0.11656100302934647 0.4513530135154724
vt 0.10615800321102142 0.5199270248413086
vt 0.7408570051193237 0.279990017414093
vt 0.7474269866943359 0.263109028339386
vt 0.7163810133934021 0.26232701539993286
vt 0.11923400312662125 0.26731300354003906
vt 0.10740000009536743 0.25620198249816895
vt 0.108085997402668 0.02685701847076416
vt 0.123710997402668 0.031032979488372803
vt 0.07855100184679031 0.2563149929046631
vt 0.10740000009536743 0.25620198249816895
vt 0.7163810133934021 0.26232701539993286
vt 0.7474269866943359 0.263109028339386
vt 0.08489800244569778 0.2729640007019043
vt 0.7574840188026428 0.03354597091674805
vt 0.11527600139379501 0.47195202112197876
vt 0.11705300211906433 0.44471800327301025
vt 0.123710997402668 0.031032979488372803
vt 0.1136619970202446 0.49636000394821167
vt 0.7050390243530273 0.03623998165130615
vt 0.7020919919013977 0.47828298807144165
vt 0.7361549735069275 0.4770359992980957
vt 0.7347859740257263 0.4571170210838318
vt 0.7282130122184753 0.5017780065536499
vt 0.7025409936904907 0.5027210116386414
vt 0.11745800077915192 0.9716190099716187
vt 0.09065499901771545 0.024125993251800537
vt 0.045524999499320984 0.9919589757919312
vt 0.030710000544786453 0.9761120080947876
vt 0.7361549735069275 0.4770359992980957
vt 0.108085997402668 0.02685701847076416
vt 0.11745800077915192 0.9716190099716187
vt 0.7424330115318298 0.027324020862579346
vt 0.7213550209999084 0.03160202503204346
vt 0.12476400285959244 0.01874101161956787
vt 0.7050390243530273 0.03623998165130615
vt 0.7043060064315796 0.023572981357574463
vt 0.09039399772882462 0.9722700119018555
vt 0.09916999936103821 0.990123987197876
vt 0.11336400359869003 0.011130988597869873
vt 0.123710997402668 0.031032979488372803
vt 0.05851199850440025 0.9738619923591614
vt 0.06868399679660797 0.990211009979248
vt 0.7574840188026428 0.03354597091674805
vt 0.12770600616931915 0.9893370270729065
vt 0.7156299948692322 0.9748150110244751
vt 0.7072809934616089 0.9924539923667908
vt 0.7155550122261047 0.015709996223449707
vt 0.6892330050468445 0.9746410250663757
vt 0.6791340112686157 0.9919469952583313
vt 0.860584020614624 0.331525981426239
vt 0.7466760277748108 0.9759309887886047
vt 0.8837590217590332 0.331525981426239
vt 0.7595019936561584 0.9932199716567993
vt 0.7370619773864746 0.9919689893722534
vt 0.860584020614624 0.34449702501296997
vt 0.860584020614624 0.34449702501296997
vt 0.8837590217590332 0.34449702501296997
vt 0.860584020614624 0.3255919814109802
vt 0.860584020614624 0.35197901725769043
vt 0.8837590217590332 0.3255929946899414
vt 0.8340939879417419 0.09301501512527466
vt 0.8572689890861511 0.09301501512527466
vt 0.860584020614624 0.331525981426239
vt 0.8837590217590332 0.11054497957229614
vt 0.860584020614624 0.11054497957229614
vt 0.8572679758071899 0.10274100303649902
vt 0.860584020614624 0.3255919814109802
vt 0.860584020614624 0.10461097955703735
vt 0.8340939879417419 0.10274100303649902
vt 0.8837590217590332 0.10461097955703735
vt 0.8340950012207031 0.3161519765853882
vt 0.8572679758071899 0.11200398206710815
vt 0.860584020614624 0.09087997674942017
vt 0.8340939879417419 0.11200398206710815
vt 0.8837590217590332 0.09087902307510376
vt 0.860584020614624 0.11054497957229614
vt 0.8837590217590332 0.06440699100494385
vt 0.860584020614624 0.10461097955703735
vt 0.8605830073356628 0.06440800428390503
vt 0.8605830073356628 0.07367098331451416
vt 0.8837590217590332 0.08339697122573853
vt 0.860584020614624 0.09087997674942017
vt 0.8605830073356628 0.08339697122573853
vt 0.7347859740257263 0.4571170210838318
vt 0.009855000302195549 0.5397080183029175
vt 0.7018659710884094 0.4510679841041565
vt 0.0067969998344779015 0.723347008228302
vt 0.7018619775772095 0.45764702558517456
vt 0.8837590217590332 0.07367002964019775
vt 0.7423689961433411 0.4770979881286621
vt 0.7361549735069275 0.4770359992980957
vt 0.7774279713630676 0.7294520139694214
vt 0.7146900296211243 0.5296710133552551
vt 0.7109060287475586 0.524403989315033
vt 0.12181299924850464 0.5415999889373779
vt 0.12362600117921829 0.5362210273742676
vt 0.7506269812583923 0.7291580438613892
vt 0.11923400312662125 0.26731300354003906
vt 0.6908659934997559 0.7285009622573853
vt 0.0831570029258728 0.46925199031829834
vt 0.06184700131416321 0.5405740141868591
vt 0.10615800321102142 0.5199270248413086
vt 0.1193310022354126 0.7245019674301147
vt 0.08383200317621231 0.495589017868042
vt 0.08979299664497375 0.4943060278892517
vt 0.09125299751758575 0.7242909669876099
vt 0.059004999697208405 0.7240250110626221
vt 0.03193100169301033 0.7237659692764282
vt 0.7043430209159851 0.2733740210533142
vt 0.7018659710884094 0.4510679841041565
vt 0.08235300332307816 0.4443179965019226
vt 0.6910560131072998 0.5393940210342407
vt 0.8024659752845764 0.7295860052108765
vt 0.7197160124778748 0.5462039709091187
vt 0.7186819911003113 0.7288069725036621
vt 0.7282130122184753 0.5017780065536499
vt 0.7784119844436646 0.5465149879455566
vt 0.08547600358724594 0.4496229887008667
vt 0.11656100302934647 0.4513530135154724
vt 0.8986790180206299 0.9452829957008362
vt 0.9018930196762085 0.4535380005836487
vt 0.9086959958076477 0.4535819888114929
vt 0.9054809808731079 0.9453279972076416
vt 0.9054809808731079 0.9453279972076416
vt 0.10740000009536743 0.25620198249816895
vt 0.7385169863700867 0.4518589973449707
vt 0.7408570051193237 0.279990017414093
vt 0.7050390243530273 0.03623998165130615
vt 0.030710000544786453 0.9761120080947876
vt 0.08235300332307816 0.4443179965019226
vt 0.7109060287475586 0.524403989315033
vt 0.10615800321102142 0.5199270248413086
vt 0.08979299664497375 0.4943060278892517
vt 0.12362600117921829 0.5362210273742676
vt 0.6910560131072998 0.5393940210342407
vt 0.7043430209159851 0.2733740210533142
vt 0.08489800244569778 0.2729640007019043
vt 0.11923400312662125 0.26731300354003906
vt 0.7213550209999084 0.03160202503204346
vt 0.08235300332307816 0.4443179965019226
vt 0.7347859740257263 0.4571170210838318
vt 0.7109060287475586 0.524403989315033
vt 0.7282130122184753 0.5017780065536499
vt 0.6892330050468445 0.9746410250663757
vt 0.07458700239658356 0.028239011764526367
vt 0.7734900116920471 0.9776700139045715
vt 0.8837590217590332 0.34449702501296997
vt 0.883758008480072 0.35197901725769043
vt 0.8837590217590332 0.331525981426239
vt 0.8837590217590332 0.3255929946899414
vt 0.8837590217590332 0.11054497957229614
vt 0.8572689890861511 0.3161519765853882
vt 0.8837590217590332 0.10461097955703735
vt 0.8837590217590332 0.09087902307510376
vt 0.8167269825935364 0.09322601556777954
vt 0.8234140276908875 0.09658300876617432
vt 0.8159739971160889 0.10617202520370483
vt 0.8301010131835938 0.10364598035812378
vt 0.8100399971008301 0.10617202520370483
vt 0.8340939879417419 0.11200398206710815
vt 0.8100399971008301 0.3212270140647888
vt 0.8159739971160889 0.3212270140647888
vt 0.8340950012207031 0.3161519765853882
vt 0.8217380046844482 0.2139570116996765
vt 0.8234140276908875 0.3315719962120056
vt 0.8301010131835938 0.32450902462005615
vt 0.8167279958724976 0.3349289894104004
vt 0.7385169863700867 0.4518589973449707
vt 0.8034499883651733 0.5466489791870117
vt 0.864753007888794 0.4532949924468994
vt 0.9018930196762085 0.4535380005836487
vt 0.908939003944397 0.41644197702407837
vt 0.9086959958076477 0.4535819888114929
vt 0.8615390062332153 0.9450399875640869
vt 0.9021369814872742 0.41639798879623413
vt 0.9426220059394836 0.9455699920654297
vt 0.9054809808731079 0.9453279972076416
vt 0.8986790180206299 0.9452829957008362
vt 0.9458360075950623 0.4538249969482422
vt 0.8984360098838806 0.9824299812316895
vt 0.9052389860153198 0.9824739694595337
vt 0.9018930196762085 0.4535380005836487
vt 0.9086959958076477 0.4535819888114929
vt 0.108085997402668 0.02685701847076416
vt 0.07458700239658356 0.028239011764526367
vt 0.8986790180206299 0.9452829957008362
vt 0.07855100184679031 0.2563149929046631
vt 0.7385169863700867 0.4518589973449707
vt 0.7043430209159851 0.2733740210533142
vt 0.7163810133934021 0.26232701539993286
vt 0.07715599983930588 0.46904999017715454
vt 0.05851199850440025 0.9738619923591614
vt 0.10160700231790543 0.5233739614486694
vt 0.7213550209999084 0.03160202503204346
vt 0.11705300211906433 0.44471800327301025
vt 0.08547600358724594 0.4496229887008667
vt 0.09390100091695786 0.5411089658737183
vt 0.034988999366760254 0.5401259660720825
vt 0.09039399772882462 0.9722700119018555
vt 0.10615800321102142 0.5199270248413086
vt 0.7516559958457947 0.5463709831237793
vt 0.7466760277748108 0.9759309887886047
vt 0.7385169863700867 0.4518589973449707
vt 0.7156299948692322 0.9748150110244751
vt 0.6918849945068359 0.5460759997367859
vt 0.7342749834060669 0.5033069849014282
vt 0.7734900116920471 0.9776700139045715
vt 0.7347859740257263 0.4571170210838318
vt 0.08547600358724594 0.4496229887008667
vt 0.0831570029258728 0.46925199031829834
vt 0.0831570029258728 0.46925199031829834
vt 0.08979299664497375 0.4943060278892517
vt 0.12362600117921829 0.5362210273742676
vt 0.7109060287475586 0.524403989315033
vt 0.7018619775772095 0.45764702558517456
vt 0.11656100302934647 0.4513530135154724
vt 0.10615800321102142 0.5199270248413086
vt 0.7408570051193237 0.279990017414093
vt 0.7474269866943359 0.263109028339386
vt 0.7163810133934021 0.26232701539993286
vt 0.11923400312662125 0.26731300354003906
vt 0.10740000009536743 0.25620198249816895
vt 0.108085997402668 0.02685701847076416
vt 0.123710997402668 0.031032979488372803
vt 0.07855100184679031 0.2563149929046631
vt 0.10740000009536743 0.25620198249816895
vt 0.7163810133934021 0.26232701539993286
vt 0.7474269866943359 0.263109028339386
vt 0.08489800244569778 0.2729640007019043
vt 0.7574840188026428 0.03354597091674805
vt 0.11527600139379501 0.47195202112197876
vt 0.11705300211906433 0.44471800327301025
vt 0.123710997402668 0.031032979488372803
vt 0.1136619970202446 0.49636000394821167
vt 0.7050390243530273 0.03623998165130615
vt 0.7020919919013977 0.47828298807144165
vt 0.7361549735069275 0.4770359992980957
vt 0.7347859740257263 0.4571170210838318
vt 0.7282130122184753 0.5017780065536499
vt 0.7025409936904907 0.5027210116386414
vt 0.11745800077915192 0.9716190099716187
vt 0.09065499901771545 0.024125993251800537
vt 0.045524999499320984 0.9919589757919312
vt 0.030710000544786453 0.9761120080947876
vt 0.7361549735069275 0.4770359992980957
vt 0.108085997402668 0.02685701847076416
vt 0.11745800077915192 0.9716190099716187
vt 0.7424330115318298 0.027324020862579346
vt 0.7213550209999084 0.03160202503204346
vt 0.12476400285959244 0.01874101161956787
vt 0.7050390243530273 0.03623998165130615
vt 0.7043060064315796 0.023572981357574463
vt 0.09039399772882462 0.9722700119018555
vt 0.09916999936103821 0.990123987197876
vt 0.11336400359869003 0.011130988597869873
vt 0.123710997402668 0.031032979488372803
vt 0.05851199850440025 0.9738619923591614
vt 0.06868399679660797 0.990211009979248
vt 0.7574840188026428 0.03354597091674805
vt 0.12770600616931915 0.9893370270729065
vt 0.7156299948692322 0.9748150110244751
vt 0.7072809934616089 0.9924539923667908
vt 0.7155550122261047 0.015709996223449707
vt 0.6892330050468445 0.9746410250663757
vt 0.6791340112686157 0.9919469952583313
vt 0.860584020614624 0.331525981426239
vt 0.7466760277748108 0.9759309887886047
vt 0.8837590217590332 0.331525981426239
vt 0.7595019936561584 0.9932199716567993
vt 0.7370619773864746 0.9919689893722534
vt 0.860584020614624 0.34449702501296997
vt 0.860584020614624 0.34449702501296997
vt 0.8837590217590332 0.34449702501296997
vt 0.860584020614624 0.3255919814109802
vt 0.860584020614624 0.35197901725769043
vt 0.8837590217590332 0.3255929946899414
vt 0.8340939879417419 0.09301501512527466
vt 0.8572689890861511 0.09301501512527466
vt 0.860584020614624 0.331525981426239
vt 0.8837590217590332 0.11054497957229614
vt 0.860584020614624 0.11054497957229614
vt 0.8572679758071899 0.10274100303649902
vt 0.860584020614624 0.3255919814109802
vt 0.860584020614624 0.10461097955703735
vt 0.8340939879417419 0.10274100303649902
vt 0.8837590217590332 0.10461097955703735
vt 0.8340950012207031 0.3161519765853882
vt 0.8572679758071899 0.11200398206710815
vt 0.860584020614624 0.09087997674942017
vt 0.8340939879417419 0.11200398206710815
vt 0.8837590217590332 0.09087902307510376
vt 0.860584020614624 0.11054497957229614
vt 0.8837590217590332 0.06440699100494385
vt 0.860584020614624 0.10461097955703735
vt 0.8605830073356628 0.06440800428390503
vt 0.8605830073356628 0.07367098331451416
vt 0.8837590217590332 0.08339697122573853
vt 0.860584020614624 0.09087997674942017
vt 0.8605830073356628 0.08339697122573853
vt 0.7347859740257263 0.4571170210838318
vt 0.009855000302195549 0.5397080183029175
vt 0.7018659710884094 0.4510679841041565
vt 0.0067969998344779015 0.723347008228302
vt 0.7018619775772095 0.45764702558517456
vt 0.8837590217590332 0.07367002964019775
vt 0.7423689961433411 0.4770979881286621
vt 0.7361549735069275 0.4770359992980957
vt 0.7774279713630676 0.7294520139694214
vt 0.7146900296211243 0.5296710133552551
vt 0.7109060287475586 0.524403989315033
vt 0.12181299924850464 0.5415999889373779
vt 0.12362600117921829 0.5362210273742676
vt 0.7506269812583923 0.7291580438613892
vt 0.11923400312662125 0.26731300354003906
vt 0.6908659934997559 0.7285009622573853
vt 0.0831570029258728 0.46925199031829834
vt 0.06184700131416321 0.5405740141868591
vt 0.10615800321102142 0.5199270248413086
vt 0.1193310022354126 0.7245019674301147
vt 0.08383200317621231 0.495589017868042
vt 0.08979299664497375 0.4943060278892517
vt 0.09125299751758575 0.7242909669876099
vt 0.059004999697208405 0.7240250110626221
vt 0.03193100169301033 0.7237659692764282
vt 0.7043430209159851 0.2733740210533142
vt 0.7018659710884094 0.4510679841041565
vt 0.08235300332307816 0.4443179965019226
vt 0.6910560131072998 0.5393940210342407
vt 0.8024659752845764 0.7295860052108765
vt 0.7197160124778748 0.5462039709091187
vt 0.7186819911003113 0.7288069725036621
vt 0.7282130122184753 0.5017780065536499
vt 0.7784119844436646 0.5465149879455566
vt 0.08547600358724594 0.4496229887008667
vt 0.11656100302934647 0.4513530135154724
vn 0 0 -0.9999998807907104
vn 0.9999998807907104 0 -0.00000399999953515362
vn 0 0 0.9999998807907104
vn -0.9999998807907104 0 -0.00000399999953515362
vn 0 -0.9999998807907104 0
vn 0.07728798687458038 0 -0.997008740901947
vn 0.005619999952614307 -0.04850500077009201 -0.9988070130348206
vn 0 0 -0.9999998807907104
vn -0.9999998807907104 -0.00011999998241662979 0
vn 0.9358019828796387 0 0.3525260090827942
vn 0.9894409775733948 0.1378909945487976 0.044638000428676605
vn 0.059914007782936096 0.9903120994567871 -0.12526801228523254
vn 0.07254000753164291 0.986315131187439 -0.14805501699447632
vn -0.03776101395487785 0.9991143345832825 -0.018563007935881615
vn -0.12327001243829727 0.992367148399353 -0.0034490004181861877
vn -0.034765005111694336 0.9941731095314026 -0.10203501582145691
vn 0 -0.9999998807907104 0
vn 0 -0.9999998807907104 0
vn 0.9999998807907104 0 0
vn -0.0730220153927803 -0.000009000002137327101 -0.9973302483558655
vn -0.03779201582074165 -0.02828000858426094 -0.9988853335380554
vn 0.043795984238386154 0.998832643032074 0.02037399262189865
vn -0.07943900674581528 0.9903120994567871 -0.11389101296663284
vn 0.03417099639773369 0.9990898966789246 0.025525996461510658
vn -0.27974599599838257 0 0.9600740075111389
vn 9.99999883788405e-7 -0.9999998807907104 0
vn -9.99999883788405e-7 -0.9999998807907104 0
vn -0.05806996673345566 0 0.9983124136924744
vn -0.8026965260505676 0 -0.5963876247406006
vn -0.9999998807907104 0 -0.00000599999930273043
vn 0 0 0.9999998807907104
vn 0.9999998807907104 0 0
vn 0.2210470288991928 0 -0.9752631187438965
vn 0.054857008159160614 0 0.9984941482543945
vn 0.893700897693634 0 -0.4486629366874695
vn 0 -0.9999998807907104 0
vn 0 -0.9999998807907104 0
vn 0 -0.9999998807907104 0
vn 0 -0.9999998807907104 0
vn 0 -0.9999998807907104 0
vn 0 -0.9999998807907104 0
vn 0 -0.9999998807907104 0
vn 0 -0.9999998807907104 0
vn 0 -0.9999998807907104 0
vn 0 -0.9999998807907104 0
vn 0 -0.9999998807907104 0
vn 0 -0.9999998807907104 0
vn 0 -0.9999998807907104 0
vn 0.0389149971306324 0.5747859477996826 -0.8173778653144836
vn -0.9850342273712158 0.16549904644489288 0.048141010105609894
vn 0 0 -0.9999998807907104
vn 0 0 -0.9999998807907104
vn 0.9999998807907104 0 0
vn 0.9999998807907104 0 -0.00000399999953515362
vn 0 0 -0.9999998807907104
vn 0.9999998807907104 0 0
vn 0 0 0.9999998807907104
vn 0 0 0.9999998807907104
vn -0.9999998807907104 0 -0.00000399999953515362
vn 0 0 0.9999998807907104
vn -0.9999998807907104 0 0
vn -0.9999998807907104 0 0
vn 0 -0.9999998807907104 0
vn 0 -0.9999998807907104 0
vn 0.07728798687458038 0 -0.997008740901947
vn 0.07728798687458038 0 -0.997008740901947
vn 0 -0.9999998807907104 0
vn 0.07728798687458038 0 -0.997008740901947
vn 0.04016000032424927 -0.027775999158620834 -0.9988070130348206
vn -0.9999998807907104 -0.00011999998241662979 0
vn -0.9999998807907104 -0.00011999998241662979 0
vn 0.9640985131263733 0.20522889494895935 0.168507918715477
vn 0.870184600353241 0 0.49272575974464417
vn 0.667188823223114 0.14111396670341492 0.7313998341560364
vn -0.9999998807907104 -0.00011999998241662979 0
vn 0 0.5508248805999756 -0.8346208333969116
vn 0.9297230243682861 0.3666380047798157 0.034519001841545105
vn 0.667188823223114 0.14111396670341492 0.7313998341560364
vn 0.9640985131263733 0.20522889494895935 0.168507918715477
vn 0.6697287559509277 0 0.7426057457923889
vn -0.08346900343894958 0.9863150119781494 -0.14218099415302277
vn -0.8505539894104004 0.20211000740528107 0.48549899458885193
vn -0.870184600353241 0 0.49272575974464417
vn -0.9850342273712158 0.16549904644489288 0.048141010105609894
vn -0.6697282195091248 0 0.7426062226295471
vn -0.24187800288200378 0.27855899930000305 0.9294620156288147
vn -0.8505539894104004 0.20211000740528107 0.48549899458885193
vn -0.9358019828796387 0 0.3525260090827942
vn -0.9105010032653809 0.4134629964828491 -0.006004999857395887
vn -0.04240299016237259 0.9985997676849365 0.03162699192762375
vn -0.009561999700963497 0.9989870190620422 -0.043970998376607895
vn -0.040664996951818466 0.9989868998527527 -0.019268998876214027
vn -0.005190001800656319 0.9991143345832825 -0.04175601527094841
vn 0.1002030000090599 0.9923670291900635 -0.071881003677845
vn 0.1384810209274292 0.9903120994567871 0.010234001092612743
vn 0 0.9999998807907104 0
vn 0 0.9999998807907104 0
vn -0.16479100286960602 0.9863150119781494 -0.005142000038176775
vn 0 -0.9999998807907104 0
vn 0 -0.9999998807907104 0
vn 0 -0.9999998807907104 0
vn 0 -0.9999998807907104 0
vn 0 -0.9999998807907104 0
vn 0.9999998807907104 0 0
vn 0.9999998807907104 0 0
vn 0 -0.9999998807907104 0
vn 0.9999998807907104 0 0
vn -0.0730220153927803 -0.000009000002137327101 -0.9973302483558655
vn -0.07307800650596619 0 -0.997326135635376
vn 0 0 -0.9999998807907104
vn -0.0730220153927803 -0.000009000002137327101 -0.9973302483558655
vn 0 0.9999998807907104 0
vn 0 0 -0.9999998807907104
vn 0 0 -0.9999998807907104
vn 0 0.9999998807907104 0
vn 0 0 -0.9999998807907104
vn 0 0.9999998807907104 0
vn 0.029822999611496925 0.9990190267562866 -0.03273199871182442
vn 0.009562996216118336 0.998832643032074 0.04734698310494423
vn 0.03705999627709389 0.9990898966789246 -0.021111998707056046
vn 0 0.9999998807907104 0
vn 0.2797469198703766 0 0.9600736498832703
vn 0 -0.9999998807907104 0
vn 0 -0.9999998807907104 0
vn 9.99999883788405e-7 -0.9999998807907104 0
vn 0.042458001524209976 0.9990190267562866 0.012574000284075737
vn 0 -0.9999998807907104 -9.99999883788405e-7
vn 0 -0.9999998807907104 9.99999883788405e-7
vn 0 -0.9999998807907104 -9.99999883788405e-7
vn 0 -0.9999998807907104 -9.99999883788405e-7
vn 0 -0.9999998807907104 0
vn 0 -0.9999998807907104 0
vn 0 -0.9999998807907104 0
vn 0 -0.9999998807907104 9.99999883788405e-7
vn 0 -0.9999998807907104 9.99999883788405e-7
vn 0 -0.9999998807907104 0
vn 0 -0.9999998807907104 0
vn 9.99999883788405e-7 -0.9999998807907104 9.99999883788405e-7
vn 9.99999883788405e-7 -0.9999998807907104 9.99999883788405e-7
vn -9.99999883788405e-7 -0.9999998807907104 0
vn 0 -0.9999998807907104 9.99999883788405e-7
vn 0 -0.9999998807907104 9.99999883788405e-7
vn 0 -0.9999998807907104 9.99999883788405e-7
vn 0 -0.9999998807907104 0
vn 0 -0.9999998807907104 9.99999883788405e-7
vn 0 -0.9999998807907104 9.99999883788405e-7
vn -0.05807002633810043 0 0.9983124732971191
vn -9.99999883788405e-7 -0.9999998807907104 9.99999883788405e-7
vn -0.05806996673345566 0 0.9983124136924744
vn 0 -0.9999998807907104 -9.99999883788405e-7
vn -9.99999883788405e-7 -0.9999998807907104 9.99999883788405e-7
vn -0.8937000036239624 0 -0.44866499304771423
vn -0.05806996673345566 0 0.9983124136924744
vn -0.8937004804611206 0 -0.44866374135017395
vn -0.9999998807907104 0 0.00000599999930273043
vn -0.802695631980896 0 -0.5963886976242065
vn -0.9999998807907104 0 -0.000004999999418942025
vn -0.802695631980896 0 -0.5963886976242065
vn -0.8026965260505676 0 -0.5963876247406006
vn -0.9999998807907104 0 0.00000399999953515362
vn 0 0 0.9999998807907104
vn 0 0 0.9999998807907104
vn -0.5662319660186768 0 -0.8242458701133728
vn 0 0 0.9999998807907104
vn 0.9999998807907104 0 0.00000199999976757681
vn -0.5662319660186768 0 -0.8242458701133728
vn 0.9999998807907104 0 0
vn 0.2210470288991928 0 -0.9752631187438965
vn -0.2210470288991928 0 -0.9752631187438965
vn 0.054857008159160614 0 0.9984941482543945
vn -0.2210470288991928 0 -0.9752631187438965
vn 0.054857008159160614 0 0.9984941482543945
vn 0.9999998807907104 0 0.00000199999976757681
vn 0.2210470288991928 0 -0.9752631187438965
vn 0.054857008159160614 0 0.9984941482543945
vn 0.2210470288991928 0 -0.9752631187438965
vn 0.5662330389022827 0 -0.8242450952529907
vn 0.802695631980896 0 -0.5963886976242065
vn 0.8937000036239624 0 -0.44866499304771423
vn 0.802696168422699 0 -0.5963881015777588
vn 0.04165200516581535 0.5297680497169495 -0.8471190929412842
vn 0.9894409775733948 0.1378909945487976 0.044638000428676605
vn 0 0.5508260130882263 -0.8346199989318848
vn 0.9999998807907104 0 0
vn 0 0.5508260130882263 -0.8346199989318848
vn 0.5662319660186768 0 -0.8242458701133728
vn -0.9610563516616821 0.2208290696144104 0.16614806652069092
vn -0.8959897756576538 0.40711989998817444 0.17735695838928223
vn -0.9711563587188721 0 0.23844309151172638
vn -0.6416396498680115 0.2419968545436859 0.7278295755386353
vn -0.4995589852333069 0.4557580053806305 0.7366989850997925
vn 0.2605779767036438 0.09902498871088028 0.9603608846664429
vn 0.17982906103134155 0.17223405838012695 0.9685023427009583
vn -0.8701850175857544 0 0.4927250146865845
vn 0 0 -0.9999998807907104
vn -0.27974599599838257 0 0.9600740075111389
vn 0.902775764465332 0.37364092469215393 0.21304495632648468
vn 0.8644495606422424 0.18188990652561188 0.46866080164909363
vn 0.5568169355392456 0.1528329849243164 0.8164538741111755
vn 0.27974599599838257 0 0.9600740075111389
vn 0.8644495606422424 0.18188990652561188 0.46866080164909363
vn 0.8109168410301208 0.3149259090423584 0.49318888783454895
vn 0.6697282195091248 0 0.7426062226295471
vn 0.870184600353241 0 0.49272575974464417
vn 0.9711563587188721 0 0.23844309151172638
vn 0 0 -0.9999998807907104
vn 0 0 -0.9999998807907104
vn -0.04693199321627617 0.5544209480285645 -0.8309118747711182
vn -0.2058839201927185 0.4457748532295227 0.8711466789245605
vn -0.9999998807907104 0 0
vn -0.6416396498680115 0.2419968545436859 0.7278295755386353
vn -0.6697287559509277 0 0.7426057457923889
vn -0.8061367273330688 0.37139588594436646 0.46066081523895264
vn -0.9610563516616821 0.2208290696144104 0.16614806652069092
vn -0.022169992327690125 0.5099678039550781 -0.8599076867103577
vn 0 0.5508260130882263 -0.8346199989318848
vn 0 0 -0.9999998807907104
vn 0.9999998807907104 0 -0.00000399999953515362
vn 0 0 0.9999998807907104
vn -0.9999998807907104 0 -0.00000399999953515362
vn 0 -0.9999998807907104 0
vn 0.07728798687458038 0 -0.997008740901947
vn 0.005619999952614307 -0.04850500077009201 -0.9988070130348206
vn 0 0 -0.9999998807907104
vn -0.9999998807907104 -0.00011999998241662979 0
vn 0.9358019828796387 0 0.3525260090827942
vn 0.9894409775733948 0.1378909945487976 0.044638000428676605
vn 0.059914007782936096 0.9903120994567871 -0.12526801228523254
vn 0.07254000753164291 0.986315131187439 -0.14805501699447632
vn -0.03776101395487785 0.9991143345832825 -0.018563007935881615
vn -0.12327001243829727 0.992367148399353 -0.0034490004181861877
vn -0.034765005111694336 0.9941731095314026 -0.10203501582145691
vn 0 -0.9999998807907104 0
vn 0 -0.9999998807907104 0
vn 0.9999998807907104 0 0
vn -0.0730220153927803 -0.000009000002137327101 -0.9973302483558655
vn -0.03779201582074165 -0.02828000858426094 -0.9988853335380554
vn 0.043795984238386154 0.998832643032074 0.02037399262189865
vn -0.07943900674581528 0.9903120994567871 -0.11389101296663284
vn 0.03417099639773369 0.9990898966789246 0.025525996461510658
vn -0.27974599599838257 0 0.9600740075111389
vn 9.99999883788405e-7 -0.9999998807907104 0
vn -9.99999883788405e-7 -0.9999998807907104 0
vn -0.05806996673345566 0 0.9983124136924744
vn -0.8026965260505676 0 -0.5963876247406006
vn -0.9999998807907104 0 -0.00000599999930273043
vn 0 0 0.9999998807907104
vn 0.9999998807907104 0 0
vn 0.2210470288991928 0 -0.9752631187438965
vn 0.054857008159160614 0 0.9984941482543945
vn 0.893700897693634 0 -0.4486629366874695
vn 0 -0.9999998807907104 0
vn 0 -0.9999998807907104 0
vn 0 -0.9999998807907104 0
vn 0 -0.9999998807907104 0
vn 0 -0.9999998807907104 0
vn 0 -0.9999998807907104 0
vn 0 -0.9999998807907104 0
vn 0 -0.9999998807907104 0
vn 0 -0.9999998807907104 0
vn 0 -0.9999998807907104 0
vn 0 -0.9999998807907104 0
vn 0 -0.9999998807907104 0
vn 0 -0.9999998807907104 0
vn 0.0389149971306324 0.5747859477996826 -0.8173778653144836
vn -0.9850342273712158 0.16549904644489288 0.048141010105609894
vn 0 0 -0.9999998807907104
vn 0 0 -0.9999998807907104
vn 0.9999998807907104 0 0
vn 0.9999998807907104 0 -0.00000399999953515362
vn 0 0 -0.9999998807907104
vn 0.9999998807907104 0 0
vn 0 0 0.9999998807907104
vn 0 0 0.9999998807907104
vn -0.9999998807907104 0 -0.00000399999953515362
vn 0 0 0.9999998807907104
vn -0.9999998807907104 0 0
vn -0.9999998807907104 0 0
vn 0 -0.9999998807907104 0
vn 0 -0.9999998807907104 0
vn 0.07728798687458038 0 -0.997008740901947
vn 0.07728798687458038 0 -0.997008740901947
vn 0 -0.9999998807907104 0
vn 0.07728798687458038 0 -0.997008740901947
vn 0.04016000032424927 -0.027775999158620834 -0.9988070130348206
vn -0.9999998807907104 -0.00011999998241662979 0
vn -0.9999998807907104 -0.00011999998241662979 0
vn 0.9640985131263733 0.20522889494895935 0.168507918715477
vn 0.870184600353241 0 0.49272575974464417
vn 0.667188823223114 0.14111396670341492 0.7313998341560364
vn -0.9999998807907104 -0.00011999998241662979 0
vn 0 0.5508248805999756 -0.8346208333969116
vn 0.9297230243682861 0.3666380047798157 0.034519001841545105
vn 0.667188823223114 0.14111396670341492 0.7313998341560364
vn 0.9640985131263733 0.20522889494895935 0.168507918715477
vn 0.6697287559509277 0 0.7426057457923889
vn -0.08346900343894958 0.9863150119781494 -0.14218099415302277
vn -0.8505539894104004 0.20211000740528107 0.48549899458885193
vn -0.870184600353241 0 0.49272575974464417
vn -0.9850342273712158 0.16549904644489288 0.048141010105609894
vn -0.6697282195091248 0 0.7426062226295471
vn -0.24187800288200378 0.27855899930000305 0.9294620156288147
vn -0.8505539894104004 0.20211000740528107 0.48549899458885193
vn -0.9358019828796387 0 0.3525260090827942
vn -0.9105010032653809 0.4134629964828491 -0.006004999857395887
vn -0.04240299016237259 0.9985997676849365 0.03162699192762375
vn -0.009561999700963497 0.9989870190620422 -0.043970998376607895
vn -0.040664996951818466 0.9989868998527527 -0.019268998876214027
vn -0.005190001800656319 0.9991143345832825 -0.04175601527094841
vn 0.1002030000090599 0.9923670291900635 -0.071881003677845
vn 0.1384810209274292 0.9903120994567871 0.010234001092612743
vn 0 0.9999998807907104 0
vn 0 0.9999998807907104 0
vn -0.16479100286960602 0.9863150119781494 -0.005142000038176775
vn 0 -0.9999998807907104 0
vn 0 -0.9999998807907104 0
vn 0 -0.9999998807907104 0
vn 0 -0.9999998807907104 0
vn 0 -0.9999998807907104 0
vn 0.9999998807907104 0 0
vn 0.9999998807907104 0 0
vn 0 -0.9999998807907104 0
vn 0.9999998807907104 0 0
vn -0.0730220153927803 -0.000009000002137327101 -0.9973302483558655
vn -0.07307800650596619 0 -0.997326135635376
vn 0 0 -0.9999998807907104
vn -0.0730220153927803 -0.000009000002137327101 -0.9973302483558655
vn 0 0.9999998807907104 0
vn 0 0 -0.9999998807907104
vn 0 0 -0.9999998807907104
vn 0 0.9999998807907104 0
vn 0 0 -0.9999998807907104
vn 0 0.9999998807907104 0
vn 0.029822999611496925 0.9990190267562866 -0.03273199871182442
vn 0.009562996216118336 0.998832643032074 0.04734698310494423
vn 0.03705999627709389 0.9990898966789246 -0.021111998707056046
vn 0 0.9999998807907104 0
vn 0.2797469198703766 0 0.9600736498832703
vn 0 -0.9999998807907104 0
vn 0 -0.9999998807907104 0
vn 9.99999883788405e-7 -0.9999998807907104 0
vn 0.042458001524209976 0.9990190267562866 0.012574000284075737
vn 0 -0.9999998807907104 -9.99999883788405e-7
vn 0 -0.9999998807907104 9.99999883788405e-7
vn 0 -0.9999998807907104 -9.99999883788405e-7
vn 0 -0.9999998807907104 -9.99999883788405e-7
vn 0 -0.9999998807907104 0
vn 0 -0.9999998807907104 0
vn 0 -0.9999998807907104 0
vn 0 -0.9999998807907104 9.99999883788405e-7
vn 0 -0.9999998807907104 9.99999883788405e-7
vn 0 -0.9999998807907104 0
vn 0 -0.9999998807907104 0
vn 9.99999883788405e-7 -0.9999998807907104 9.99999883788405e-7
vn 9.99999883788405e-7 -0.9999998807907104 9.99999883788405e-7
vn -9.99999883788405e-7 -0.9999998807907104 0
vn 0 -0.9999998807907104 9.99999883788405e-7
vn 0 -0.9999998807907104 9.99999883788405e-7
vn 0 -0.9999998807907104 9.99999883788405e-7
vn 0 -0.9999998807907104 0
vn 0 -0.9999998807907104 9.99999883788405e-7
vn 0 -0.9999998807907104 9.99999883788405e-7
vn -0.05807002633810043 0 0.9983124732971191
vn -9.99999883788405e-7 -0.9999998807907104 9.99999883788405e-7
vn -0.05806996673345566 0 0.9983124136924744
vn 0 -0.9999998807907104 -9.99999883788405e-7
vn -9.99999883788405e-7 -0.9999998807907104 9.99999883788405e-7
vn -0.8937000036239624 0 -0.44866499304771423
vn -0.05806996673345566 0 0.9983124136924744
vn -0.8937004804611206 0 -0.44866374135017395
vn -0.9999998807907104 0 0.00000599999930273043
vn -0.802695631980896 0 -0.5963886976242065
vn -0.9999998807907104 0 -0.000004999999418942025
vn -0.802695631980896 0 -0.5963886976242065
vn -0.8026965260505676 0 -0.5963876247406006
vn -0.9999998807907104 0 0.00000399999953515362
vn 0 0 0.9999998807907104
vn 0 0 0.9999998807907104
vn -0.5662319660186768 0 -0.8242458701133728
vn 0 0 0.9999998807907104
vn 0.9999998807907104 0 0.00000199999976757681
vn -0.5662319660186768 0 -0.8242458701133728
vn 0.9999998807907104 0 0
vn 0.2210470288991928 0 -0.9752631187438965
vn -0.2210470288991928 0 -0.9752631187438965
vn 0.054857008159160614 0 0.9984941482543945
vn -0.2210470288991928 0 -0.9752631187438965
vn 0.054857008159160614 0 0.9984941482543945
vn 0.9999998807907104 0 0.00000199999976757681
vn 0.2210470288991928 0 -0.9752631187438965
vn 0.054857008159160614 0 0.9984941482543945
vn 0.2210470288991928 0 -0.9752631187438965
vn 0.5662330389022827 0 -0.8242450952529907
vn 0.802695631980896 0 -0.5963886976242065
vn 0.8937000036239624 0 -0.44866499304771423
vn 0.802696168422699 0 -0.5963881015777588
vn 0.04165200516581535 0.5297680497169495 -0.8471190929412842
vn 0.9894409775733948 0.1378909945487976 0.044638000428676605
vn 0 0.5508260130882263 -0.8346199989318848
vn 0.9999998807907104 0 0
vn 0 0.5508260130882263 -0.8346199989318848
vn 0.5662319660186768 0 -0.8242458701133728
vn -0.9610563516616821 0.2208290696144104 0.16614806652069092
vn -0.8959897756576538 0.40711989998817444 0.17735695838928223
vn -0.9711563587188721 0 0.23844309151172638
vn -0.6416396498680115 0.2419968545436859 0.7278295755386353
vn -0.4995589852333069 0.4557580053806305 0.7366989850997925
vn 0.2605779767036438 0.09902498871088028 0.9603608846664429
vn 0.17982906103134155 0.17223405838012695 0.9685023427009583
vn -0.8701850175857544 0 0.4927250146865845
vn 0 0 -0.9999998807907104
vn -0.27974599599838257 0 0.9600740075111389
vn 0.902775764465332 0.37364092469215393 0.21304495632648468
vn 0.8644495606422424 0.18188990652561188 0.46866080164909363
vn 0.5568169355392456 0.1528329849243164 0.8164538741111755
vn 0.27974599599838257 0 0.9600740075111389
vn 0.8644495606422424 0.18188990652561188 0.46866080164909363
vn 0.8109168410301208 0.3149259090423584 0.49318888783454895
vn 0.6697282195091248 0 0.7426062226295471
vn 0.870184600353241 0 0.49272575974464417
vn 0.9711563587188721 0 0.23844309151172638
vn 0 0 -0.9999998807907104
vn 0 0 -0.9999998807907104
vn -0.04693199321627617 0.5544209480285645 -0.8309118747711182
vn -0.2058839201927185 0.4457748532295227 0.8711466789245605
vn -0.9999998807907104 0 0
vn -0.6416396498680115 0.2419968545436859 0.7278295755386353
vn -0.6697287559509277 0 0.7426057457923889
vn -0.8061367273330688 0.37139588594436646 0.46066081523895264
vn -0.9610563516616821 0.2208290696144104 0.16614806652069092
vn -0.022169992327690125 0.5099678039550781 -0.8599076867103577
vn 0 0.5508260130882263 -0.8346199989318848
usemtl cartridge_genesis
f 129/129/129 144/144/144 140/140/140
f 144/144/144 130/130/130 140/140/140
f 144/144/144 133/133/133 130/130/130
f 133/133/133 132/132/132 130/130/130
f 133/133/133 131/131/131 132/132/132
f 131/131/131 137/137/137 132/132/132
f 131/131/131 136/136/136 137/137/137
f 136/136/136 127/127/127 137/137/137
f 136/136/136 123/123/123 127/127/127
f 123/123/123 26/26/26 127/127/127
f 215/215/215 216/216/216 208/208/208
f 216/216/216 76/76/76 208/208/208
f 76/76/76 216/216/216 183/183/183
f 216/216/216 185/185/185 183/183/183
f 185/185/185 181/181/181 183/183/183
f 181/181/181 49/49/49 183/183/183
f 158/158/158 166/166/166 159/159/159
f 166/166/166 163/163/163 159/159/159
f 166/166/166 171/171/171 163/163/163
f 171/171/171 169/169/169 163/163/163
f 171/171/171 168/168/168 169/169/169
f 168/168/168 33/33/33 169/169/169
f 176/176/176 177/177/177 174/174/174
f 177/177/177 186/186/186 174/174/174
f 177/177/177 180/180/180 186/186/186
f 180/180/180 178/178/178 186/186/186
f 180/180/180 179/179/179 178/178/178
f 179/179/179 35/35/35 178/178/178
f 45/45/45 44/44/44 41/41/41
f 45/45/45 41/41/41 39/39/39
f 45/45/45 39/39/39 37/37/37
f 45/45/45 37/37/37 36/36/36
f 45/45/45 36/36/36 38/38/38
f 45/45/45 38/38/38 40/40/40
f 45/45/45 40/40/40 42/42/42
f 45/45/45 42/42/42 43/43/43
f 45/45/45 43/43/43 48/48/48
f 45/45/45 48/48/48 46/46/46
f 45/45/45 46/46/46 47/47/47
f 45/45/45 47/47/47 44/44/44
f 124/124/124 139/139/139 125/125/125
f 139/139/139 138/138/138 125/125/125
f 139/139/139 135/135/135 138/138/138
f 135/135/135 134/134/134 138/138/138
f 135/135/135 141/141/141 134/134/134
f 141/141/141 128/128/128 134/134/134
f 141/141/141 146/146/146 128/128/128
f 146/146/146 145/145/145 128/128/128
f 146/146/146 143/143/143 145/145/145
f 143/143/143 142/142/142 145/145/145
f 143/143/143 151/151/151 142/142/142
f 151/151/151 148/148/148 142/142/142
f 151/151/151 150/150/150 148/148/148
f 150/150/150 27/27/27 148/148/148
f 193/193/193 199/199/199 192/192/192
f 199/199/199 74/74/74 192/192/192
f 199/199/199 202/202/202 74/74/74
f 202/202/202 201/201/201 74/74/74
f 202/202/202 197/197/197 201/201/201
f 197/197/197 72/72/72 201/201/201
f 197/197/197 77/77/77 72/72/72
f 77/77/77 11/11/11 72/72/72
f 192/192/192 78/78/78 200/200/200
f 78/78/78 203/203/203 200/200/200
f 203/203/203 78/78/78 198/198/198
f 204/204/204 203/203/203 198/198/198
f 198/198/198 79/79/79 204/204/204
f 79/79/79 205/205/205 204/204/204
f 205/205/205 79/79/79 182/182/182
f 184/184/184 205/205/205 182/182/182
f 89/89/89 188/188/188 84/84/84
f 188/188/188 187/187/187 84/84/84
f 188/188/188 213/213/213 187/187/187
f 213/213/213 87/87/87 187/187/187
f 213/213/213 191/191/191 87/87/87
f 191/191/191 190/190/190 87/87/87
f 191/191/191 209/209/209 190/190/190
f 209/209/209 86/86/86 190/190/190
f 209/209/209 193/193/193 86/86/86
f 193/193/193 192/192/192 86/86/86
f 196/196/196 86/86/86 192/192/192
f 200/200/200 196/196/196 192/192/192
f 200/200/200 122/122/122 196/196/196
f 200/200/200 203/203/203 122/122/122
f 203/203/203 80/80/80 122/122/122
f 203/203/203 204/204/204 80/80/80
f 204/204/204 73/73/73 80/80/80
f 204/204/204 205/205/205 73/73/73
f 205/205/205 10/10/10 73/73/73
f 122/122/122 25/25/25 196/196/196
f 196/196/196 25/25/25 85/85/85
f 212/212/212 196/196/196 85/85/85
f 212/212/212 85/85/85 83/83/83
f 194/194/194 212/212/212 83/83/83
f 194/194/194 83/83/83 88/88/88
f 189/189/189 194/194/194 88/88/88
f 82/82/82 194/194/194 189/189/189
f 214/214/214 82/82/82 189/189/189
f 189/189/189 210/210/210 214/214/214
f 210/210/210 50/50/50 214/214/214
f 194/194/194 82/82/82 211/211/211
f 212/212/212 194/194/194 211/211/211
f 211/211/211 86/86/86 212/212/212
f 86/86/86 196/196/196 212/212/212
f 63/63/63 67/67/67 64/64/64
f 67/67/67 5/5/5 64/64/64
f 66/66/66 68/68/68 65/65/65
f 68/68/68 6/6/6 65/65/65
f 71/71/71 75/75/75 70/70/70
f 75/75/75 9/9/9 70/70/70
f 104/104/104 107/107/107 105/105/105
f 107/107/107 19/19/19 105/105/105
f 109/109/109 111/111/111 108/108/108
f 111/111/111 20/20/20 108/108/108
f 147/147/147 153/153/153 149/149/149
f 153/153/153 28/28/28 149/149/149
f 152/152/152 156/156/156 154/154/154
f 156/156/156 29/29/29 154/154/154
f 155/155/155 160/160/160 157/157/157
f 160/160/160 30/30/30 157/157/157
f 162/162/162 164/164/164 161/161/161
f 164/164/164 31/31/31 161/161/161
f 165/165/165 173/173/173 167/167/167
f 173/173/173 32/32/32 167/167/167
f 170/170/170 175/175/175 172/172/172
f 175/175/175 34/34/34 172/172/172
f 100/100/100 101/101/101 99/99/99
f 101/101/101 17/17/17 99/99/99
f 103/103/103 106/106/106 102/102/102
f 106/106/106 18/18/18 102/102/102
f 51/51/51 55/55/55 52/52/52
f 55/55/55 1/1/1 52/52/52
f 53/53/53 56/56/56 54/54/54
f 56/56/56 2/2/2 54/54/54
f 57/57/57 60/60/60 58/58/58
f 60/60/60 3/3/3 58/58/58
f 61/61/61 62/62/62 59/59/59
f 62/62/62 4/4/4 59/59/59
f 24/24/24 121/121/121 23/23/23
f 15/15/15 16/16/16 95/95/95
f 98/98/98 94/94/94 95/95/95
f 98/98/98 12/12/12 121/121/121
f 90/90/90 91/91/91 97/97/97
f 92/92/92 93/93/93 112/112/112
f 92/92/92 112/112/112 97/97/97
f 97/97/97 112/112/112 96/96/96
f 112/112/112 117/117/117 96/96/96
f 22/22/22 96/96/96 117/117/117
f 115/115/115 81/81/81 121/121/121
f 14/14/14 13/13/13 115/115/115
f 14/14/14 115/115/115 112/112/112
f 112/112/112 115/115/115 117/117/117
f 115/115/115 121/121/121 117/117/117
f 126/126/126 117/117/117 121/121/121
f 120/120/120 126/126/126 121/121/121
f 118/118/118 119/119/119 117/117/117
f 207/207/207 69/69/69 206/206/206
f 206/206/206 195/195/195 207/207/207
f 195/195/195 113/113/113 207/207/207
f 195/195/195 110/110/110 113/113/113
f 110/110/110 21/21/21 113/113/113
f 114/114/114 195/195/195 116/116/116
f 195/195/195 206/206/206 116/116/116
f 7/7/7 8/8/8 206/206/206
usemtl cartridge_genesis
f 129/129/129 144/144/144 140/140/140
f 144/144/144 130/130/130 140/140/140
f 144/144/144 133/133/133 130/130/130
f 133/133/133 132/132/132 130/130/130
f 133/133/133 131/131/131 132/132/132
f 131/131/131 137/137/137 132/132/132
f 131/131/131 136/136/136 137/137/137
f 136/136/136 127/127/127 137/137/137
f 136/136/136 123/123/123 127/127/127
f 123/123/123 26/26/26 127/127/127
f 215/215/215 216/216/216 208/208/208
f 216/216/216 76/76/76 208/208/208
f 76/76/76 216/216/216 183/183/183
f 216/216/216 185/185/185 183/183/183
f 185/185/185 181/181/181 183/183/183
f 181/181/181 49/49/49 183/183/183
f 158/158/158 166/166/166 159/159/159
f 166/166/166 163/163/163 159/159/159
f 166/166/166 171/171/171 163/163/163
f 171/171/171 169/169/169 163/163/163
f 171/171/171 168/168/168 169/169/169
f 168/168/168 33/33/33 169/169/169
f 176/176/176 177/177/177 174/174/174
f 177/177/177 186/186/186 174/174/174
f 177/177/177 180/180/180 186/186/186
f 180/180/180 178/178/178 186/186/186
f 180/180/180 179/179/179 178/178/178
f 179/179/179 35/35/35 178/178/178
f 45/45/45 44/44/44 41/41/41
f 45/45/45 41/41/41 39/39/39
f 45/45/45 39/39/39 37/37/37
f 45/45/45 37/37/37 36/36/36
f 45/45/45 36/36/36 38/38/38
f 45/45/45 38/38/38 40/40/40
f 45/45/45 40/40/40 42/42/42
f 45/45/45 42/42/42 43/43/43
f 45/45/45 43/43/43 48/48/48
f 45/45/45 48/48/48 46/46/46
f 45/45/45 46/46/46 47/47/47
f 45/45/45 47/47/47 44/44/44
f 124/124/124 139/139/139 125/125/125
f 139/139/139 138/138/138 125/125/125
f 139/139/139 135/135/135 138/138/138
f 135/135/135 134/134/134 138/138/138
f 135/135/135 141/141/141 134/134/134
f 141/141/141 128/128/128 134/134/134
f 141/141/141 146/146/146 128/128/128
f 146/146/146 145/145/145 128/128/128
f 146/146/146 143/143/143 145/145/145
f 143/143/143 142/142/142 145/145/145
f 143/143/143 151/151/151 142/142/142
f 151/151/151 148/148/148 142/142/142
f 151/151/151 150/150/150 148/148/148
f 150/150/150 27/27/27 148/148/148
f 193/193/193 199/199/199 192/192/192
f 199/199/199 74/74/74 192/192/192
f 199/199/199 202/202/202 74/74/74
f 202/202/202 201/201/201 74/74/74
f 202/202/202 197/197/197 201/201/201
f 197/197/197 72/72/72 201/201/201
f 197/197/197 77/77/77 72/72/72
f 77/77/77 11/11/11 72/72/72
f 192/192/192 78/78/78 200/200/200
f 78/78/78 203/203/203 200/200/200
f 203/203/203 78/78/78 198/198/198
f 204/204/204 203/203/203 198/198/198
f 198/198/198 79/79/79 204/204/204
f 79/79/79 205/205/205 204/204/204
f 205/205/205 79/79/79 182/182/182
f 184/184/184 205/205/205 182/182/182
f 89/89/89 188/188/188 84/84/84
f 188/188/188 187/187/187 84/84/84
f 188/188/188 213/213/213 187/187/187
f 213/213/213 87/87/87 187/187/187
f 213/213/213 191/191/191 87/87/87
f 191/191/191 190/190/190 87/87/87
f 191/191/191 209/209/209 190/190/190
f 209/209/209 86/86/86 190/190/190
f 209/209/209 193/193/193 86/86/86
f 193/193/193 192/192/192 86/86/86
f 196/196/196 86/86/86 192/192/192
f 200/200/200 196/196/196 192/192/192
f 200/200/200 122/122/122 196/196/196
f 200/200/200 203/203/203 122/122/122
f 203/203/203 80/80/80 122/122/122
f 203/203/203 204/204/204 80/80/80
f 204/204/204 73/73/73 80/80/80
f 204/204/204 205/205/205 73/73/73
f 205/205/205 10/10/10 73/73/73
f 122/122/122 25/25/25 196/196/196
f 196/196/196 25/25/25 85/85/85
f 212/212/212 196/196/196 85/85/85
f 212/212/212 85/85/85 83/83/83
f 194/194/194 212/212/212 83/83/83
f 194/194/194 83/83/83 88/88/88
f 189/189/189 194/194/194 88/88/88
f 82/82/82 194/194/194 189/189/189
f 214/214/214 82/82/82 189/189/189
f 189/189/189 210/210/210 214/214/214
f 210/210/210 50/50/50 214/214/214
f 194/194/194 82/82/82 211/211/211
f 212/212/212 194/194/194 211/211/211
f 211/211/211 86/86/86 212/212/212
f 86/86/86 196/196/196 212/212/212
f 63/63/63 67/67/67 64/64/64
f 67/67/67 5/5/5 64/64/64
f 66/66/66 68/68/68 65/65/65
f 68/68/68 6/6/6 65/65/65
f 71/71/71 75/75/75 70/70/70
f 75/75/75 9/9/9 70/70/70
f 104/104/104 107/107/107 105/105/105
f 107/107/107 19/19/19 105/105/105
f 109/109/109 111/111/111 108/108/108
f 111/111/111 20/20/20 108/108/108
f 147/147/147 153/153/153 149/149/149
f 153/153/153 28/28/28 149/149/149
f 152/152/152 156/156/156 154/154/154
f 156/156/156 29/29/29 154/154/154
f 155/155/155 160/160/160 157/157/157
f 160/160/160 30/30/30 157/157/157
f 162/162/162 164/164/164 161/161/161
f 164/164/164 31/31/31 161/161/161
f 165/165/165 173/173/173 167/167/167
f 173/173/173 32/32/32 167/167/167
f 170/170/170 175/175/175 172/172/172
f 175/175/175 34/34/34 172/172/172
f 100/100/100 101/101/101 99/99/99
f 101/101/101 17/17/17 99/99/99
f 103/103/103 106/106/106 102/102/102
f 106/106/106 18/18/18 102/102/102
f 51/51/51 55/55/55 52/52/52
f 55/55/55 1/1/1 52/52/52
f 53/53/53 56/56/56 54/54/54
f 56/56/56 2/2/2 54/54/54
f 57/57/57 60/60/60 58/58/58
f 60/60/60 3/3/3 58/58/58
f 61/61/61 62/62/62 59/59/59
f 62/62/62 4/4/4 59/59/59
f 24/24/24 121/121/121 23/23/23
f 15/15/15 16/16/16 95/95/95
f 98/98/98 94/94/94 95/95/95
f 98/98/98 12/12/12 121/121/121
f 90/90/90 91/91/91 97/97/97
f 92/92/92 93/93/93 112/112/112
f 92/92/92 112/112/112 97/97/97
f 97/97/97 112/112/112 96/96/96
f 112/112/112 117/117/117 96/96/96
f 22/22/22 96/96/96 117/117/117
f 115/115/115 81/81/81 121/121/121
f 14/14/14 13/13/13 115/115/115
f 14/14/14 115/115/115 112/112/112
f 112/112/112 115/115/115 117/117/117
f 115/115/115 121/121/121 117/117/117
f 126/126/126 117/117/117 121/121/121
f 120/120/120 126/126/126 121/121/121
f 118/118/118 119/119/119 117/117/117
f 207/207/207 69/69/69 206/206/206
f 206/206/206 195/195/195 207/207/207
f 195/195/195 113/113/113 207/207/207
f 195/195/195 110/110/110 113/113/113
f 110/110/110 21/21/21 113/113/113
f 114/114/114 195/195/195 116/116/116
f 195/195/195 206/206/206 116/116/116
f 7/7/7 8/8/8 206/206/206

v -2.42 0.18 0.40
v 2.42 0.18 0.40
v 2.42 3.48 0.40
v -2.42 3.48 0.40
vt 0 0
vt 1 0
vt 1 1
vt 0 1
vn 0 0 1
# s3d_label 1
f 433/433/433 434/434/433 435/435/433 436/436/433
# s3d_label 0