# Blender 5.2.1 LTS
# www.blender.org
mtllib gba.mtl
o gba_cart_flathalf_2.0
v 2.430519 0.587336 4.371943
v 2.430519 0.600300 2.111280
v 2.403881 11.587122 4.435023
v 2.403881 11.600086 2.174360
v 1.680519 0.594699 2.771258
v -0.319473 0.580676 4.371904
v -0.319473 0.589856 2.771230
v 1.680519 0.607889 0.471296
v 3.430515 0.602722 2.111294
v 54.680367 0.736241 0.472046
v 52.930370 0.722598 2.111995
v 53.930367 0.725019 2.112009
v 54.680367 0.723051 2.772008
v 53.930367 0.712055 4.372672
v 56.680359 0.718715 4.372711
v 56.680359 0.727894 2.772037
v 52.930370 0.719157 2.711985
v 3.430515 0.599281 2.711284
v 52.903732 11.722383 2.175075
v 53.903728 11.724806 2.175089
v 52.903732 11.718943 2.775065
v 53.903728 11.711842 4.435752
v 3.403877 11.599068 2.774364
v 3.403877 11.602509 2.174375
v 56.652390 12.277671 2.838271
v 54.652393 12.272827 2.838243
v 54.652393 12.286016 0.538281
v 1.652550 12.157665 0.537531
v 56.613155 28.490547 0.631210
v -0.386677 28.352509 0.630403
v 55.048794 35.126667 0.669265
v 0.798954 34.995289 0.668497
v -2.193775 31.988083 0.651252
v -2.157978 32.457466 0.653943
v -0.347443 12.152822 0.537502
v -2.184959 28.348154 0.630377
v -2.049191 32.915474 0.656569
v -1.870090 33.350819 0.659066
v -1.625095 33.752789 0.661371
v -1.320236 34.111492 0.663428
v -0.963013 34.418083 0.665186
v -0.562225 34.665016 0.666603
v -0.127743 34.846214 0.667642
v 0.329739 34.957218 0.668279
v 55.518185 35.090870 0.669060
v 55.976196 34.982086 0.668436
v 56.411552 34.802994 0.667409
v 56.813530 34.558002 0.666004
v 57.172234 34.253147 0.664256
v 57.478832 33.895924 0.662207
v 57.725773 33.495144 0.659909
v 57.906975 33.060669 0.657418
v 58.017979 32.603195 0.654795
v 58.056049 32.133991 0.652104
v 58.064865 28.494062 0.631230
v 56.652390 12.290860 0.538309
v 1.652550 12.144476 2.837493
v -0.347443 12.139632 2.837464
v -0.386677 28.330139 4.531039
v 56.613155 28.468178 4.531845
v -2.193775 31.965714 4.551887
v -2.184959 28.325785 4.531013
v 58.064865 28.471693 4.531866
v 58.056049 32.111622 4.552740
v 55.048790 35.104298 4.569901
v 55.518185 35.068501 4.569696
v 55.976196 34.959717 4.569072
v 56.411552 34.780624 4.568045
v 56.813530 34.535633 4.566641
v 57.172234 34.230778 4.564893
v 57.478828 33.873554 4.562844
v 57.725769 33.472775 4.560545
v 57.906975 33.038300 4.558053
v 58.017975 32.580826 4.555430
v -2.157978 32.435097 4.554579
v -2.049191 32.893105 4.557206
v -1.870090 33.328449 4.559702
v -1.625095 33.730419 4.562007
v -1.320236 34.089123 4.564065
v -0.963013 34.395714 4.565823
v -0.562225 34.642647 4.567240
v -0.127743 34.823845 4.568278
v 0.329739 34.934849 4.568914
v 0.798954 34.972919 4.569133
vn 1.0000 0.0024 -0.0000
vn 0.0024 -1.0000 -0.0057
vn -0.0000 0.0057 -1.0000
vn -1.0000 -0.0024 -0.0000
vn -0.0000 -0.0057 1.0000
vn 0.0760 0.9971 0.0057
vn 0.2311 0.9729 0.0056
vn 0.3804 0.9248 0.0053
vn 0.5204 0.8539 0.0049
vn 0.6476 0.7620 0.0044
vn 0.7588 0.6513 0.0037
vn 0.8514 0.5246 0.0030
vn 0.8514 0.5245 0.0030
vn 0.9229 0.3849 0.0022
vn 0.9718 0.2358 0.0014
vn 0.9967 0.0809 0.0005
vn -0.9971 0.0760 0.0004
vn -0.9729 0.2311 0.0013
vn -0.9248 0.3805 0.0022
vn -0.8539 0.5204 0.0030
vn -0.7620 0.6476 0.0037
vn -0.6513 0.7588 0.0044
vn -0.5246 0.8514 0.0049
vn -0.3849 0.9229 0.0053
vn -0.2358 0.9718 0.0056
vn -0.0809 0.9967 0.0057
vn -0.0024 1.0000 0.0057
s 1
f 1//1 2//1 3//1
f 3//1 2//1 4//1
f 2//2 1//2 5//2
f 5//2 1//2 6//2
f 5//2 6//2 7//2
f 5//2 8//2 2//2
f 2//2 8//2 9//2
f 9//2 8//2 10//2
f 9//2 10//2 11//2
f 11//2 10//2 12//2
f 12//2 10//2 13//2
f 12//2 13//2 14//2
f 14//2 13//2 15//2
f 15//2 13//2 16//2
f 11//2 17//2 9//2
f 9//2 17//2 18//2
f 19//2 20//2 21//2
f 21//2 20//2 22//2
f 21//2 22//2 23//2
f 23//2 22//2 3//2
f 23//2 3//2 4//2
f 4//2 24//2 23//2
f 16//3 13//3 25//3
f 25//3 13//3 26//3
f 13//1 10//1 26//1
f 26//1 10//1 27//1
f 10//3 8//3 27//3
f 27//3 8//3 28//3
f 27//3 28//3 29//3
f 29//3 28//3 30//3
f 29//3 30//3 31//3
f 31//3 30//3 32//3
f 32//3 30//3 33//3
f 32//3 33//3 34//3
f 28//3 35//3 30//3
f 30//3 36//3 33//3
f 34//3 37//3 32//3
f 32//3 37//3 38//3
f 32//3 38//3 39//3
f 39//3 40//3 32//3
f 32//3 40//3 41//3
f 32//3 41//3 42//3
f 42//3 43//3 32//3
f 32//3 43//3 44//3
f 45//3 46//3 31//3
f 31//3 46//3 47//3
f 31//3 47//3 48//3
f 48//3 49//3 31//3
f 31//3 49//3 50//3
f 31//3 50//3 51//3
f 51//3 52//3 31//3
f 31//3 52//3 53//3
f 31//3 53//3 54//3
f 55//3 29//3 54//3
f 54//3 29//3 31//3
f 29//3 56//3 27//3
f 8//4 5//4 28//4
f 28//4 5//4 57//4
f 5//3 7//3 57//3
f 57//3 7//3 58//3
f 7//4 6//4 58//4
f 58//4 6//4 59//4
f 58//4 59//4 30//4
f 30//4 35//4 58//4
f 18//4 23//4 9//4
f 9//4 23//4 24//4
f 2//5 9//5 4//5
f 4//5 9//5 24//5
f 11//1 19//1 17//1
f 17//1 19//1 21//1
f 11//5 12//5 19//5
f 19//5 12//5 20//5
f 18//5 17//5 23//5
f 23//5 17//5 21//5
f 16//1 25//1 15//1
f 15//1 25//1 60//1
f 60//1 25//1 29//1
f 29//1 25//1 56//1
f 25//2 26//2 56//2
f 56//2 26//2 27//2
f 35//2 28//2 58//2
f 58//2 28//2 57//2
f 61//4 33//4 62//4
f 62//4 33//4 36//4
f 63//1 55//1 64//1
f 64//1 55//1 54//1
f 31//6 65//6 45//6
f 45//6 65//6 66//6
f 45//7 66//7 46//7
f 46//7 66//7 67//7
f 46//8 67//8 47//8
f 47//8 67//8 68//8
f 47//9 68//9 48//9
f 48//9 68//9 69//9
f 48//10 69//10 49//10
f 49//10 69//10 70//10
f 49//11 70//11 50//11
f 50//11 70//11 71//11
f 50//12 71//13 51//12
f 51//12 71//13 72//13
f 51//14 72//14 52//14
f 52//14 72//14 73//14
f 52//15 73//15 53//15
f 53//15 73//15 74//15
f 53//16 74//16 54//16
f 54//16 74//16 64//16
f 33//17 61//17 34//17
f 34//17 61//17 75//17
f 34//18 75//18 37//18
f 37//18 75//18 76//18
f 37//19 76//19 38//19
f 38//19 76//19 77//19
f 38//20 77//20 39//20
f 39//20 77//20 78//20
f 39//21 78//21 40//21
f 40//21 78//21 79//21
f 40//22 79//22 41//22
f 41//22 79//22 80//22
f 41//23 80//23 42//23
f 42//23 80//23 81//23
f 42//24 81//24 43//24
f 43//24 81//24 82//24
f 43//25 82//25 44//25
f 44//25 82//25 83//25
f 44//26 83//26 32//26
f 32//26 83//26 84//26
f 84//27 65//27 32//27
f 32//27 65//27 31//27
f 63//2 60//2 55//2
f 55//2 60//2 29//2
f 12//4 14//4 20//4
f 20//4 14//4 22//4
f 59//2 62//2 30//2
f 30//2 62//2 36//2
f 14//5 15//5 22//5
f 22//5 15//5 60//5
f 22//5 60//5 3//5
f 3//5 60//5 59//5
f 3//5 59//5 6//5
f 63//5 64//5 60//5
f 60//5 64//5 65//5
f 60//5 65//5 59//5
f 59//5 65//5 84//5
f 59//5 84//5 61//5
f 61//5 84//5 75//5
f 75//5 84//5 76//5
f 76//5 84//5 77//5
f 77//5 84//5 78//5
f 78//5 84//5 79//5
f 79//5 84//5 80//5
f 80//5 84//5 81//5
f 81//5 84//5 82//5
f 82//5 84//5 83//5
f 64//5 74//5 65//5
f 65//5 74//5 73//5
f 65//5 73//5 72//5
f 72//5 71//5 65//5
f 65//5 71//5 70//5
f 65//5 70//5 69//5
f 69//5 68//5 65//5
f 65//5 68//5 67//5
f 65//5 67//5 66//5
f 61//5 62//5 59//5
f 6//5 1//5 3//5
o gba_cart_roundhalf_2.0
v 57.096577 1.009052 1.285896
v 57.096577 0.998160 3.185164
v 55.596577 1.009052 1.285896
v 55.596577 0.995810 3.595158
v 55.596577 0.988297 4.905136
v 1.596575 0.995810 3.595158
v 1.596575 0.988297 4.905136
v 0.096575 0.998160 3.185164
v 0.096575 1.009052 1.285896
v 1.596575 1.009052 1.285896
v 0.096575 28.747705 3.344300
v 1.596575 28.737841 5.064271
v 28.596596 32.377777 5.085145
v 27.100197 32.362022 5.085056
v 25.603800 32.314903 5.084785
v 55.596577 28.737841 5.064271
v 49.396576 30.010763 5.071572
v 48.834694 30.150507 5.072372
v 48.046143 30.336100 5.073438
v 56.828289 28.737841 5.064271
v 56.828289 32.377777 5.085145
v 55.548286 33.657761 5.092485
v 56.784672 32.709068 5.087046
v 56.656799 33.017769 5.088816
v 56.453384 33.282860 5.090337
v 56.188286 33.486275 5.091503
v 55.879578 33.614143 5.092236
v 49.396576 33.657761 5.092485
v 40.567791 31.406332 5.079575
v 46.568729 30.649294 5.075233
v 45.029388 30.924952 5.076815
v 43.480511 31.146933 5.078087
v 42.027206 31.302420 5.078979
v 39.071381 31.628454 5.080849
v 37.574986 31.823389 5.081965
v 36.078587 31.990309 5.082923
v 34.582188 32.128387 5.083715
v 33.085789 32.236832 5.084338
v 31.589392 32.314903 5.084785
v 30.092993 32.362022 5.085056
v 24.107401 32.236832 5.084338
v 22.611002 32.128387 5.083715
v 21.114605 31.990313 5.082923
v 19.618206 31.823393 5.081966
v 18.121809 31.628458 5.080849
v 16.625408 31.406393 5.079489
v 15.539455 31.334272 5.079162
v 14.454320 31.233240 5.078582
v 13.361405 31.101965 5.077828
v 12.252136 30.939028 5.076895
v 11.131127 30.745413 5.075785
v 10.013951 30.525000 5.074521
v 8.902430 30.279676 5.073113
v 7.796575 30.010763 5.071572
v 0.018287 32.377777 5.085145
v 0.018287 28.737841 5.064271
v 7.796575 33.657761 5.092485
v 1.298287 33.657761 5.092485
v 0.966999 33.614143 5.092236
v 0.658287 33.486275 5.091503
v 0.393191 33.282860 5.090337
v 0.189775 33.017769 5.088816
v 0.061902 32.709068 5.087046
v 57.096577 28.747705 3.344300
v 57.096577 28.758596 1.445031
v 55.596577 11.758875 1.347543
v 55.596577 11.745632 3.656805
v 1.596575 11.758875 1.347543
v 1.596575 11.745632 3.656805
v 0.096575 28.758596 1.445031
v -1.701713 28.758596 1.445031
v -1.701713 32.398537 1.465906
v 1.298287 35.398483 1.483109
v 55.548286 35.398483 1.483109
v -1.664778 32.867828 1.468596
v -1.554882 33.325569 1.471221
v -1.374732 33.760483 1.473716
v -1.128764 34.161865 1.476017
v -0.823033 34.519821 1.478070
v -0.465068 34.825546 1.479823
v -0.063684 35.071510 1.481234
v 0.371236 35.251663 1.482267
v 0.828984 35.361549 1.482897
v 56.017590 35.361549 1.482897
v 56.475338 35.251663 1.482267
v 56.910259 35.071510 1.481234
v 57.311642 34.825546 1.479823
v 57.669609 34.519821 1.478070
v 57.975338 34.161865 1.476017
v 58.221306 33.760483 1.473716
v 58.401459 33.325569 1.471221
v 58.511353 32.867828 1.468596
v 58.548286 32.398537 1.465906
v 58.548286 28.758596 1.445031
v 58.548286 28.747705 3.344300
v 58.548286 32.387642 3.365174
v 58.511353 32.856941 3.367866
v 58.401459 33.314682 3.370490
v 58.221306 33.749596 3.372984
v 57.975338 34.150970 3.375286
v 57.669609 34.508934 3.377339
v 57.311642 34.814659 3.379092
v 56.910259 35.060623 3.380502
v 56.475338 35.240768 3.381536
v 56.017590 35.350662 3.382166
v 55.548286 35.387596 3.382377
v 12.402696 35.386917 3.500941
v 44.796436 35.386894 3.504851
v 45.651325 35.387138 3.462158
v 1.298287 35.387596 3.382377
v 7.796575 35.387596 3.382377
v 8.784626 35.387566 3.387192
v 9.738691 35.387482 3.401564
v 10.659342 35.387344 3.425387
v 11.547148 35.387154 3.458551
v 43.971848 35.386597 3.555594
v 13.226966 35.386620 3.552130
v 43.176422 35.386269 3.613865
v 14.021426 35.386284 3.611316
v 42.409027 35.385895 3.679138
v 14.787568 35.385902 3.677676
v 41.668530 35.385483 3.750890
v 15.526886 35.385483 3.750387
v 40.953739 35.385033 3.828554
v 16.240873 35.385033 3.828626
v 40.263176 35.384560 3.911310
v 16.931026 35.384560 3.911569
v 17.598835 35.384064 3.998394
v 39.595242 35.384064 3.998238
v 18.873402 35.383018 4.180394
v 38.320858 35.383011 4.180934
v 20.076698 35.381943 4.367981
v 37.117798 35.381935 4.369284
v 21.221319 35.380875 4.554349
v 35.973270 35.380859 4.555937
v 34.874508 35.379845 4.733672
v 22.319931 35.379852 4.732670
v 33.808929 35.378914 4.896121
v 23.385201 35.378914 4.896112
v 32.764122 35.378105 5.037328
v 24.429680 35.378098 5.037967
v 31.729515 35.377441 5.152804
v 25.464016 35.377434 5.153531
v 30.696058 35.376945 5.239285
v 26.497269 35.376938 5.239773
v 27.538450 35.376633 5.293705
v 28.596575 35.376526 5.312345
v 29.654745 35.376633 5.293543
v 46.537647 35.387329 3.428040
v 47.456539 35.387474 3.403021
v 48.409138 35.387566 3.387626
v 49.396576 35.387596 3.382377
v 0.828984 35.350662 3.382166
v 0.371236 35.240768 3.381536
v -0.063684 35.060623 3.380502
v -0.465068 34.814659 3.379092
v -0.823033 34.508934 3.377339
v -1.128764 34.150970 3.375286
v -1.374732 33.749596 3.372984
v -1.554882 33.314682 3.370490
v -1.664778 32.856941 3.367866
v -1.701713 32.387642 3.365174
v -1.701713 28.747705 3.344300
v 9.133797 30.340891 5.082868
v 10.475752 30.652819 5.114434
v 11.817389 30.945322 5.168612
v 13.155656 31.217501 5.247910
v 14.502201 31.470781 5.356033
v 15.375712 31.412661 5.189337
v 16.313927 31.567987 5.294522
v 17.220627 31.708120 5.409511
v 17.389574 31.522573 5.178859
v 18.082382 31.832125 5.529794
v 18.120089 31.627039 5.281508
v 18.817034 31.720739 5.385575
v 18.898382 31.941332 5.652160
v 19.484737 31.804819 5.489925
v 19.675686 32.037544 5.774765
v 20.124247 31.879942 5.592935
v 20.409161 32.121460 5.893929
v 20.726807 31.946337 5.691575
v 21.797832 32.261635 6.121022
v 21.901821 32.061943 5.883387
v 22.649309 32.335144 6.255219
v 22.528090 32.116211 5.982426
v 23.188387 32.168015 6.081975
v 23.561995 32.403610 6.389013
v 23.878582 32.215996 6.178803
v 24.527540 32.463837 6.514322
v 24.596157 32.258995 6.269530
v 25.340803 32.296150 6.350574
v 25.543869 32.513474 6.622350
v 26.111748 32.326630 6.418395
v 26.605822 32.550362 6.704495
v 26.901680 32.349548 6.469973
v 27.689672 32.572227 6.753643
v 27.699347 32.363991 6.502615
v 28.170927 32.576668 6.763546
v 28.175449 32.368347 6.512383
v 28.596575 32.369576 6.515122
v 28.596575 32.786255 7.017520
v 28.166405 32.784981 7.014706
v 27.679998 32.780457 7.004666
v 26.313211 32.750153 6.936910
v 24.992689 32.696899 6.819745
v 23.751720 32.625244 6.668583
v 23.162292 32.583893 6.585787
v 22.595068 32.539764 6.500992
v 22.052382 32.493690 6.416139
v 21.536371 32.446487 6.333123
v 20.547417 32.346138 6.171094
v 20.038553 32.289513 6.087842
v 19.503344 32.226715 6.001472
v 18.373575 32.082230 5.826472
v 17.777575 31.999704 5.739739
v 17.157703 31.909361 5.654459
v 15.853413 31.704187 5.493856
v 41.283566 31.502344 5.247436
v 40.499920 31.627684 5.341245
v 39.832993 31.518209 5.174907
v 39.748428 31.741194 5.439844
v 38.967091 31.641691 5.297095
v 39.030788 31.843161 5.541567
v 38.344837 31.934771 5.644468
v 39.094486 32.044678 5.786038
v 38.077076 32.178932 5.940084
v 42.957638 31.210527 5.080046
v 42.100925 31.364027 5.159885
v 41.953365 31.600985 5.427359
v 41.344757 31.703409 5.493246
v 43.909534 31.242338 5.257112
v 43.236488 31.370687 5.308670
v 42.583244 31.490362 5.365631
v 45.283356 30.965033 5.172849
v 46.658768 30.666456 5.115689
v 48.029964 30.348150 5.083040
v 40.182709 31.887136 5.635077
v 37.689297 32.016907 5.747077
v 37.126087 32.292831 6.092252
v 37.063244 32.090309 5.848051
v 36.465763 32.155739 5.946051
v 36.639187 31.927809 5.663013
v 35.947258 31.999613 5.776840
v 35.895924 32.213966 6.039738
v 35.349419 32.265915 6.128487
v 35.407558 32.469788 6.373503
v 34.279251 32.356087 6.295063
v 33.790054 32.601204 6.620109
v 33.199741 32.431931 6.447192
v 32.149147 32.699409 6.825326
v 32.112904 32.492577 6.576571
v 31.236109 32.529747 6.658307
v 31.208282 32.322273 6.408556
v 30.339323 32.348495 6.467224
v 30.358105 32.556435 6.717746
v 29.469011 32.364288 6.503014
v 29.478418 32.572525 6.754035
v 29.487827 32.780762 7.005056
v 30.376886 32.764366 6.968268
v 31.263933 32.737206 6.908058
v 36.238426 32.388885 6.237997
v 32.076660 32.285728 6.327816
v 33.369442 32.212318 6.171203
v 34.652557 32.117386 5.984250
v 37.372082 31.845091 5.543577
v 38.147518 31.750158 5.420834
v 27.479351 33.646812 7.002394
v 28.596575 33.646698 7.022455
v 27.687405 34.511688 6.153855
v 26.791363 34.511909 6.114572
v 25.904186 34.512276 6.051583
v 25.021610 34.512756 5.966917
v 24.215017 33.648354 6.733498
v 23.253120 34.514053 5.740726
v 22.051294 33.650139 6.421710
v 22.356913 34.514839 5.604314
v 21.443268 34.515678 5.457304
v 20.045479 34.516991 5.229134
v 19.318552 34.517654 5.113631
v 18.568888 34.518311 4.999319
v 17.804670 34.518936 4.889336
v 18.616146 33.653297 5.870837
v 17.367472 33.654320 5.692243
v 17.012398 34.519547 4.783463
v 16.043625 33.655273 5.526764
v 16.189070 34.520119 4.683095
v 15.348878 33.655708 5.450772
v 15.331675 34.520653 4.589627
v 14.629776 33.656113 5.380253
v 14.437209 34.521141 4.504455
v 13.884463 33.656479 5.315937
v 13.502666 34.521576 4.428976
v 13.111087 33.656807 5.258555
v 12.525038 34.521950 4.364584
v 12.307793 33.657097 5.208841
v 11.509955 34.522240 4.313029
v 11.472763 33.657333 5.167507
v 10.604802 33.657516 5.134994
v 10.632071 34.522430 4.280190
v 9.703227 33.657654 5.111516
v 9.720959 34.522568 4.256541
v 8.767373 33.657738 5.097279
v 8.776000 34.522652 4.242236
v 19.804090 33.652237 6.056454
v 20.944723 33.651169 6.242358
v 25.294231 33.647659 6.853913
v 26.380457 33.647141 6.944879
v 48.426155 33.657738 5.097333
v 48.200626 34.522461 4.245374
v 47.491257 33.657654 5.111700
v 47.057632 34.522331 4.268049
v 46.590946 33.657516 5.135322
v 45.965237 34.522125 4.304674
v 45.724285 33.657333 5.167939
v 44.921089 34.521835 4.354290
v 44.890312 33.657089 5.209373
v 44.087601 33.656807 5.259314
v 43.922840 34.521484 4.415944
v 43.314396 33.656479 5.317006
v 42.968136 34.521065 4.488678
v 42.568928 33.656105 5.381679
v 42.054623 34.520592 4.571536
v 41.849434 33.655701 5.452566
v 41.179928 34.520065 4.663543
v 41.154144 33.655258 5.528897
v 40.341244 34.519493 4.763389
v 39.829128 33.654312 5.694812
v 39.535366 34.518883 4.869467
v 38.759087 34.518250 4.980158
v 38.009201 34.517593 5.093847
v 37.282494 34.516937 5.208916
v 36.575756 34.516281 5.323746
v 37.391891 33.652222 6.058115
v 36.251427 33.651161 6.243196
v 35.209450 34.514999 5.546253
v 35.143421 33.650139 6.421821
v 33.930679 34.513878 5.742577
v 32.971779 33.648369 6.730740
v 32.668190 34.512917 5.910395
v 31.892900 33.647675 6.851398
v 31.267183 34.512093 6.053293
v 30.808931 33.647148 6.943334
v 29.854710 34.511589 6.141633
v 29.712585 33.646812 7.001901
v 38.579750 33.653282 5.873269
vn -0.0000 -1.0000 -0.0057
vn -0.7537 -0.0038 0.6573
vn -0.0000 -0.0057 1.0000
vn 0.0042 -0.0055 1.0000
vn 0.0025 -0.0057 1.0000
vn 0.0001 -0.0069 1.0000
vn 0.0003 -0.0087 1.0000
vn 0.0002 -0.0081 1.0000
vn 0.0001 -0.0062 1.0000
vn 0.0001 -0.0060 1.0000
vn -0.0000 -0.0059 1.0000
vn -0.0042 -0.0055 1.0000
vn -0.0025 -0.0057 1.0000
vn 0.7537 -0.0038 0.6573
vn 1.0000 -0.0000 -0.0000
vn -0.0000 0.0057 -1.0000
vn 0.9969 0.0785 0.0005
vn 0.9969 0.0785 0.0004
vn 0.9724 0.2334 0.0013
vn 0.9239 0.3827 0.0022
vn 0.8526 0.5225 0.0030
vn 0.8527 0.5225 0.0030
vn 0.7604 0.6494 0.0037
vn 0.6494 0.7604 0.0044
vn 0.5225 0.8526 0.0049
vn 0.3827 0.9239 0.0053
vn 0.2334 0.9724 0.0056
vn 0.0785 0.9969 0.0057
vn -0.0000 1.0000 0.0057
vn -0.0000 1.0000 0.0058
vn -0.0000 1.0000 0.0059
vn -0.0000 1.0000 0.0056
vn -0.0785 0.9969 0.0057
vn -0.2334 0.9724 0.0056
vn -0.3827 0.9239 0.0053
vn -0.5225 0.8526 0.0049
vn -0.6494 0.7604 0.0044
vn -0.7604 0.6494 0.0037
vn -0.8526 0.5225 0.0030
vn -0.9239 0.3827 0.0022
vn -0.9724 0.2334 0.0013
vn -0.9969 0.0785 0.0004
vn -0.9969 0.0785 0.0005
vn -1.0000 -0.0000 -0.0000
vn 0.2099 -0.8658 0.4543
vn 0.1479 -0.6743 0.7235
vn 0.1738 -0.8050 0.5673
vn 0.1421 -0.7242 0.6748
vn 0.1463 -0.7829 0.6047
vn 0.1277 -0.7434 0.6566
vn 0.1203 -0.7729 0.6231
vn 0.1104 -0.7550 0.6464
vn 0.0934 -0.7674 0.6343
vn 0.0919 -0.7650 0.6374
vn 0.0929 -0.7666 0.6353
vn 0.0913 -0.7642 0.6385
vn 0.0716 -0.7637 0.6415
vn 0.0707 -0.7612 0.6446
vn 0.0713 -0.7630 0.6425
vn 0.0704 -0.7603 0.6457
vn 0.0568 -0.7717 0.6334
vn 0.0504 -0.7620 0.6456
vn 0.0384 -0.7695 0.6375
vn 0.0386 -0.7712 0.6354
vn 0.0357 -0.7727 0.6337
vn 0.0206 -0.7672 0.6410
vn 0.0332 -0.7667 0.6411
vn 0.0328 -0.7670 0.6408
vn 0.0218 -0.7679 0.6402
vn 0.0077 -0.7719 0.6357
vn 0.0203 -0.7693 0.6385
vn 0.0087 -0.7702 0.6377
vn 0.0083 -0.7689 0.6393
vn -0.0013 -0.7682 0.6402
vn -0.0068 -0.7687 0.6396
vn -0.0142 -0.7729 0.6343
vn -0.0160 -0.7697 0.6382
vn -0.0165 -0.7744 0.6325
vn -0.0248 -0.7704 0.6371
vn -0.0259 -0.7718 0.6353
vn -0.0336 -0.7722 0.6345
vn -0.0335 -0.7719 0.6349
vn -0.0349 -0.7717 0.6350
vn -0.0353 -0.7717 0.6350
vn -0.0350 -0.7715 0.6353
vn -0.0348 -0.7715 0.6353
vn -0.0316 -0.7720 0.6348
vn -0.0341 -0.7712 0.6356
vn -0.0286 -0.7720 0.6350
vn -0.0252 -0.7722 0.6349
vn -0.0223 -0.7717 0.6357
vn -0.0209 -0.7714 0.6360
vn -0.0151 -0.7715 0.6360
vn -0.0097 -0.7673 0.6412
vn -0.0060 -0.7697 0.6383
vn -0.0040 -0.7697 0.6384
vn 0.0011 -0.7697 0.6384
vn -0.0059 -0.7697 0.6383
vn -0.0138 -0.7682 0.6401
vn -0.0217 -0.7663 0.6421
vn -0.0295 -0.7678 0.6400
vn -0.0340 -0.7702 0.6369
vn -0.0352 -0.7715 0.6352
vn -0.0343 -0.7718 0.6350
vn -0.0325 -0.7724 0.6344
vn -0.0308 -0.7719 0.6350
vn -0.0214 -0.7684 0.6396
vn -0.0142 -0.7729 0.6344
vn -0.0019 -0.7745 0.6325
vn 0.0075 -0.7749 0.6320
vn 0.0150 -0.7707 0.6371
vn 0.0243 -0.7694 0.6383
vn 0.0406 -0.7723 0.6340
vn 0.0441 -0.7745 0.6311
vn 0.0538 -0.7621 0.6452
vn 0.0691 -0.7725 0.6312
vn -0.0533 -0.7519 0.6572
vn -0.0345 -0.7675 0.6402
vn -0.0479 -0.7706 0.6355
vn -0.0456 -0.7662 0.6410
vn -0.0338 -0.7673 0.6404
vn -0.0202 -0.7680 0.6401
vn -0.0324 -0.7695 0.6379
vn -0.0224 -0.7658 0.6426
vn -0.0108 -0.7656 0.6433
vn -0.0130 -0.7699 0.6380
vn -0.0035 -0.7680 0.6405
vn -0.0063 -0.7732 0.6342
vn -0.0000 -0.7759 0.6308
vn -0.0218 -0.2093 0.9776
vn -0.0757 -0.7589 0.6468
vn -0.0767 -0.7600 0.6454
vn -0.0760 -0.7599 0.6456
vn -0.0612 -0.7664 0.6394
vn -0.0599 -0.7645 0.6419
vn -0.0610 -0.7658 0.6401
vn -0.0706 -0.7656 0.6395
vn -0.0594 -0.7654 0.6408
vn -0.0461 -0.7707 0.6356
vn -0.1067 -0.7484 0.6546
vn -0.0910 -0.7611 0.6422
vn -0.0967 -0.7635 0.6386
vn -0.0958 -0.7632 0.6391
vn -0.0901 -0.7607 0.6428
vn -0.0844 -0.7648 0.6387
vn -0.0828 -0.7639 0.6400
vn -0.0719 -0.7659 0.6389
vn -0.1166 -0.7686 0.6290
vn -0.1320 -0.7410 0.6584
vn -0.1391 -0.7618 0.6327
vn -0.1549 -0.7353 0.6598
vn -0.1553 -0.7366 0.6583
vn -0.1551 -0.7360 0.6590
vn -0.1547 -0.7343 0.6609
vn -0.1749 -0.7466 0.6418
vn -0.2342 -0.9405 -0.2463
vn -0.0448 -0.7723 0.6336
vn -0.0314 -0.7658 0.6423
vn -0.0243 -0.7740 0.6327
vn -0.0232 -0.7732 0.6337
vn 0.0061 -0.7690 0.6392
vn 0.0131 -0.7754 0.6313
vn 0.0150 -0.7739 0.6332
vn 0.0224 -0.7723 0.6349
vn 0.0200 -0.7695 0.6384
vn 0.0301 -0.7702 0.6371
vn 0.0270 -0.7710 0.6362
vn 0.0316 -0.7728 0.6339
vn 0.0306 -0.7739 0.6326
vn 0.0344 -0.7714 0.6354
vn 0.0327 -0.7707 0.6364
vn 0.0337 -0.7719 0.6349
vn 0.0309 -0.7685 0.6392
vn 0.0267 -0.7704 0.6370
vn 0.0232 -0.7703 0.6373
vn 0.0267 -0.7706 0.6368
vn 0.0197 -0.7701 0.6376
vn 0.0160 -0.7700 0.6379
vn 0.0123 -0.7698 0.6382
vn 0.0082 -0.7698 0.6383
vn 0.0122 -0.7698 0.6382
vn 0.0198 -0.7701 0.6376
vn 0.0234 -0.7745 0.6322
vn 0.0326 -0.7717 0.6351
vn 0.0345 -0.7723 0.6343
vn 0.0337 -0.7704 0.6366
vn 0.0136 -0.7685 0.6397
vn 0.0055 -0.7688 0.6394
vn -0.1467 -0.9887 0.0293
vn -0.1423 -0.9898 -0.0080
vn -0.1295 -0.9916 0.0029
vn -0.1316 -0.9913 -0.0028
vn -0.1309 -0.9914 -0.0010
vn -0.1292 -0.9916 0.0039
vn -0.1117 -0.9937 -0.0021
vn -0.1226 -0.9924 -0.0073
vn -0.1188 -0.9929 0.0017
vn -0.1112 -0.9938 -0.0019
vn -0.1120 -0.9937 0.0012
vn -0.1033 -0.9946 -0.0061
vn -0.1043 -0.9945 -0.0064
vn -0.0905 -0.9959 -0.0050
vn -0.0919 -0.9958 -0.0039
vn -0.0914 -0.9958 -0.0050
vn -0.0726 -0.9974 -0.0036
vn -0.0747 -0.9972 -0.0063
vn -0.0744 -0.9972 -0.0059
vn -0.0723 -0.9974 -0.0036
vn -0.0549 -0.9985 -0.0053
vn -0.0576 -0.9983 -0.0075
vn -0.0572 -0.9983 -0.0072
vn -0.0521 -0.9986 -0.0030
vn -0.0411 -0.9991 -0.0062
vn -0.0427 -0.9991 -0.0067
vn -0.0299 -0.9995 -0.0038
vn -0.0308 -0.9995 -0.0043
vn -0.0305 -0.9995 -0.0044
vn -0.0174 -0.9998 -0.0060
vn -0.0184 -0.9998 -0.0065
vn -0.0071 -1.0000 -0.0029
vn -0.0066 -1.0000 -0.0052
vn -0.0061 -1.0000 -0.0057
vn 0.0054 -1.0000 -0.0051
vn 0.0030 -1.0000 -0.0057
vn 0.0035 -1.0000 -0.0055
vn 0.0099 -0.9999 -0.0035
vn 0.0105 -0.9999 -0.0031
vn 0.0217 -0.9997 -0.0064
vn 0.0184 -0.9998 -0.0064
vn 0.0188 -0.9998 -0.0066
vn 0.0304 -0.9995 -0.0040
vn 0.0315 -0.9995 -0.0032
vn 0.0430 -0.9991 -0.0064
vn 0.0401 -0.9992 -0.0065
vn 0.0404 -0.9992 -0.0063
vn 0.0513 -0.9987 -0.0035
vn 0.0521 -0.9986 -0.0028
vn 0.0634 -0.9980 -0.0066
vn 0.0606 -0.9981 -0.0063
vn 0.0609 -0.9981 -0.0064
vn 0.0703 -0.9975 -0.0044
vn 0.0723 -0.9974 -0.0022
vn 0.0817 -0.9966 -0.0067
vn 0.0791 -0.9968 -0.0062
vn 0.0871 -0.9962 -0.0060
vn 0.0958 -0.9954 -0.0086
vn 0.0928 -0.9957 -0.0021
vn 0.0993 -0.9950 -0.0086
vn 0.1103 -0.9939 -0.0009
vn 0.1098 -0.9939 -0.0018
vn 0.1146 -0.9934 -0.0055
vn 0.1114 -0.9938 -0.0003
vn 0.1177 -0.9930 -0.0067
vn 0.1286 -0.9917 0.0039
vn 0.1256 -0.9921 -0.0041
vn 0.1264 -0.9920 -0.0019
vn 0.1292 -0.9916 0.0056
vn 0.1345 -0.9909 -0.0056
vn 0.1341 -0.9910 -0.0059
vn 0.1420 -0.9898 -0.0055
vn 0.1424 -0.9898 -0.0058
vn 0.1467 -0.9888 0.0278
vn -0.7071 -0.0041 0.7071
vn -0.0556 0.7020 0.7101
vn -0.0920 0.6950 0.7131
vn -0.1655 0.6853 0.7092
vn -0.2705 0.6489 0.7112
vn -0.3704 0.6004 0.7087
vn -0.4292 0.5553 0.7123
vn -0.4599 0.5345 0.7091
vn -0.5385 0.4559 0.7086
vn -0.5594 0.4251 0.7116
vn -0.6045 0.3664 0.7074
vn -0.6530 0.2664 0.7090
vn -0.6893 0.1614 0.7062
vn -0.6990 0.0880 0.7097
vn -0.7060 0.0515 0.7063
vn -0.0017 0.7030 0.7111
vn -0.0000 0.7030 0.7112
vn -0.0035 0.7030 0.7111
vn -0.0127 0.7018 0.7122
vn -0.0107 0.7029 0.7112
vn -0.0131 0.7029 0.7111
vn -0.0106 0.7031 0.7110
vn -0.0124 0.7040 0.7101
vn -0.0310 0.7029 0.7106
vn -0.0310 0.7021 0.7114
vn -0.0358 0.7016 0.7116
vn -0.0402 0.7040 0.7091
vn -0.0365 0.7044 0.7088
vn -0.0484 0.7021 0.7104
vn -0.0570 0.7015 0.7104
vn -0.0608 0.7039 0.7077
vn -0.0587 0.7044 0.7074
vn -0.0666 0.7020 0.7091
vn -0.0689 0.7027 0.7082
vn -0.0784 0.7041 0.7058
vn -0.0812 0.7030 0.7065
vn -0.0812 0.7026 0.7069
vn -0.0952 0.7026 0.7052
vn -0.0951 0.7029 0.7049
vn -0.1004 0.7059 0.7011
vn -0.1032 0.7034 0.7033
vn -0.1065 0.7036 0.7025
vn -0.1132 0.7031 0.7020
vn -0.1131 0.7030 0.7021
vn -0.1136 0.7032 0.7018
vn -0.1068 0.7031 0.7030
vn -0.1138 0.7031 0.7019
vn -0.1096 0.7030 0.7027
vn -0.1088 0.7031 0.7027
vn -0.1008 0.7032 0.7038
vn -0.1064 0.7030 0.7031
vn -0.1009 0.7030 0.7040
vn -0.1009 0.7029 0.7041
vn -0.0908 0.7010 0.7073
vn -0.0895 0.7032 0.7053
vn -0.0867 0.7035 0.7054
vn -0.0770 0.7028 0.7072
vn -0.0769 0.7027 0.7073
vn -0.0677 0.7029 0.7080
vn -0.0685 0.7023 0.7086
vn -0.0578 0.7028 0.7090
vn -0.0583 0.7009 0.7108
vn -0.0561 0.7031 0.7089
vn -0.0444 0.7025 0.7103
vn -0.0457 0.7032 0.7096
vn -0.0351 0.7028 0.7105
vn -0.0355 0.7030 0.7103
vn -0.0307 0.7031 0.7104
vn -0.0264 0.7031 0.7106
vn -0.0224 0.7031 0.7107
vn -0.0183 0.7031 0.7108
vn -0.0145 0.7031 0.7110
vn -0.0107 0.7031 0.7110
vn -0.0034 0.7030 0.7111
vn -0.0920 0.7039 0.7043
vn -0.0847 0.7033 0.7059
vn -0.0806 0.7030 0.7067
vn -0.0770 0.7031 0.7069
vn -0.0685 0.7035 0.7074
vn -0.0582 0.7051 0.7067
vn -0.0444 0.7037 0.7091
vn -0.0351 0.7034 0.7099
vn -0.0183 0.7031 0.7109
vn -0.0107 0.7030 0.7111
vn -0.1098 0.7031 0.7026
vn -0.1136 0.7031 0.7020
vn -0.0689 0.7035 0.7073
vn -0.0592 0.7011 0.7106
vn -0.0509 0.7036 0.7088
vn -0.0371 0.7012 0.7120
vn -0.0315 0.7036 0.7099
vn 0.0018 0.7030 0.7111
vn 0.0042 0.7028 0.7114
vn 0.0040 0.7024 0.7117
vn 0.0133 0.7036 0.7104
vn 0.0117 0.7020 0.7121
vn 0.0188 0.7027 0.7112
vn 0.0252 0.7006 0.7131
vn 0.0243 0.7027 0.7111
vn 0.0349 0.7015 0.7118
vn 0.0436 0.7024 0.7105
vn 0.0354 0.7016 0.7117
vn 0.0437 0.7017 0.7111
vn 0.0533 0.7026 0.7095
vn 0.0528 0.7021 0.7101
vn 0.0632 0.7030 0.7084
vn 0.0623 0.7017 0.7097
vn 0.0648 0.7035 0.7077
vn 0.0763 0.7031 0.7070
vn 0.0747 0.7034 0.7068
vn 0.0864 0.7041 0.7048
vn 0.0879 0.7037 0.7050
vn 0.0992 0.7040 0.7033
vn 0.0924 0.7037 0.7044
vn 0.0993 0.7036 0.7037
vn 0.0998 0.7030 0.7041
vn 0.1082 0.7038 0.7021
vn 0.0109 0.7024 0.7117
vn 0.0120 0.7036 0.7105
vn 0.0255 0.7046 0.7091
vn 0.0348 0.7035 0.7098
vn 0.0355 0.7034 0.7099
vn 0.0433 0.7032 0.7097
vn 0.0521 0.7034 0.7088
vn 0.0624 0.7050 0.7065
vn 0.0755 0.7039 0.7063
vn 0.0841 0.7033 0.7059
vn 0.0877 0.7030 0.7057
vn 0.1104 0.7032 0.7023
vn 0.1118 0.7028 0.7026
vn 0.1120 0.7032 0.7021
vn 0.1135 0.7031 0.7019
vn 0.1131 0.7029 0.7023
vn 0.1132 0.7031 0.7020
vn 0.1135 0.7030 0.7021
vn 0.1126 0.7027 0.7026
vn 0.1008 0.6981 0.7089
vn 0.1009 0.7064 0.7006
vn 0.1007 0.6990 0.7080
vn 0.0933 0.7022 0.7058
vn 0.0789 0.7006 0.7092
vn 0.0716 0.7036 0.7070
vn 0.0775 0.7033 0.7066
vn 0.0628 0.7005 0.7109
vn 0.0600 0.7002 0.7114
vn 0.0379 0.7018 0.7114
vn 0.0442 0.7026 0.7103
vn 0.0366 0.7030 0.7102
vn 0.0378 0.7016 0.7115
vn 0.0130 0.7041 0.7100
vn 0.0137 0.7037 0.7104
vn 0.0147 0.7021 0.7119
vn 0.0156 0.7021 0.7119
vn 0.0126 0.7030 0.7111
vn 0.1067 0.7028 0.7033
vn 0.1007 0.7030 0.7040
vn 0.0940 0.7025 0.7054
vn 0.0784 0.7038 0.7061
vn 0.0788 0.7031 0.7067
vn 0.0588 0.7045 0.7072
vn 0.0369 0.7037 0.7095
vn 0.0367 0.7039 0.7093
vn 0.1078 0.7031 0.7029
vn -0.0000 0.7030 0.7111
vn 0.7060 0.0515 0.7063
vn 0.6990 0.0880 0.7096
vn 0.6893 0.1614 0.7062
vn 0.6530 0.2664 0.7090
vn 0.6045 0.3664 0.7074
vn 0.5594 0.4252 0.7116
vn 0.5385 0.4559 0.7086
vn 0.4599 0.5345 0.7091
vn 0.4292 0.5553 0.7123
vn 0.3704 0.6004 0.7087
vn 0.2705 0.6489 0.7112
vn 0.1655 0.6853 0.7092
vn 0.0920 0.6950 0.7131
vn 0.0556 0.7019 0.7101
vn 0.7071 -0.0041 0.7071
vn 0.0139 -0.0057 0.9999
vn 0.0141 -0.0052 0.9999
vn 0.0161 -0.0035 0.9999
vn 0.0184 -0.0011 0.9998
vn 0.0412 -0.0071 0.9991
vn 0.0533 0.0021 0.9986
vn 0.0676 -0.0049 0.9977
vn 0.0845 0.0036 0.9964
vn 0.0925 -0.0026 0.9957
vn 0.0925 -0.0024 0.9957
vn 0.0930 -0.0023 0.9957
vn 0.1111 0.0027 0.9938
vn 0.1236 -0.0082 0.9923
vn 0.1408 0.0055 0.9900
vn 0.1506 -0.0071 0.9886
vn 0.1502 -0.0069 0.9886
vn 0.1605 -0.0050 0.9870
vn 0.1611 -0.0055 0.9869
vn 0.1609 -0.0057 0.9869
vn 0.1609 -0.0062 0.9869
vn 0.1550 -0.0054 0.9879
vn 0.1562 -0.0074 0.9877
vn 0.1510 -0.0034 0.9885
vn 0.1421 -0.0082 0.9898
vn 0.1414 -0.0084 0.9899
vn 0.1346 -0.0066 0.9909
vn 0.1365 -0.0062 0.9906
vn 0.1257 -0.0085 0.9920
vn 0.1242 -0.0087 0.9922
vn 0.1183 -0.0066 0.9930
vn 0.1202 -0.0064 0.9927
vn 0.1068 -0.0086 0.9942
vn 0.1083 -0.0066 0.9941
vn 0.0965 -0.0074 0.9953
vn 0.0974 -0.0067 0.9952
vn 0.0855 -0.0069 0.9963
vn 0.0855 -0.0044 0.9963
vn 0.0852 -0.0068 0.9963
vn 0.0663 -0.0059 0.9978
vn 0.0519 -0.0059 0.9986
vn 0.0584 -0.0050 0.9983
vn 0.0603 -0.0047 0.9982
vn 0.0621 -0.0055 0.9981
vn 0.0741 -0.0065 0.9972
vn 0.0496 -0.0063 0.9987
vn 0.0400 -0.0050 0.9992
vn 0.0405 -0.0048 0.9992
vn 0.0382 -0.0055 0.9993
vn 0.0376 -0.0057 0.9993
vn 0.0262 -0.0060 0.9996
vn 0.0253 -0.0058 0.9997
vn 0.0252 -0.0045 0.9997
vn 0.0170 -0.0060 0.9998
vn 0.0154 -0.0062 0.9999
vn 0.0067 -0.0053 1.0000
vn 0.0071 -0.0052 1.0000
vn -0.0056 -0.0048 1.0000
vn -0.0132 -0.0058 0.9999
vn -0.0152 -0.0060 0.9999
vn -0.0231 -0.0050 0.9997
vn -0.0224 -0.0048 0.9997
vn -0.0252 -0.0055 0.9997
vn -0.0260 -0.0057 0.9996
vn -0.0374 -0.0052 0.9993
vn -0.0378 -0.0050 0.9993
vn -0.0379 -0.0045 0.9993
vn -0.0470 -0.0056 0.9989
vn -0.0494 -0.0059 0.9988
vn -0.0589 -0.0045 0.9983
vn -0.0583 -0.0043 0.9983
vn -0.0610 -0.0053 0.9981
vn -0.0618 -0.0055 0.9981
vn -0.0740 -0.0057 0.9972
vn -0.0751 -0.0054 0.9972
vn -0.0780 -0.0009 0.9970
vn -0.0845 -0.0055 0.9964
vn -0.0860 -0.0060 0.9963
vn -0.0976 -0.0053 0.9952
vn -0.0983 -0.0051 0.9951
vn -0.0985 -0.0035 0.9951
vn -0.1069 -0.0057 0.9942
vn -0.1087 -0.0062 0.9941
vn -0.1217 -0.0051 0.9925
vn -0.1215 -0.0049 0.9926
vn -0.1237 -0.0064 0.9923
vn -0.1240 -0.0066 0.9923
vn -0.1368 -0.0055 0.9906
vn -0.1356 -0.0052 0.9908
vn -0.1426 -0.0064 0.9898
vn -0.1428 -0.0045 0.9897
vn -0.1517 -0.0045 0.9884
vn -0.1530 -0.0058 0.9882
vn -0.1606 -0.0047 0.9870
vn -0.1599 -0.0048 0.9871
vn -0.1610 -0.0049 0.9869
vn -0.1606 -0.0046 0.9870
vn -0.1599 -0.0047 0.9871
vn -0.1557 -0.0050 0.9878
vn -0.1542 -0.0048 0.9880
vn -0.1541 -0.0049 0.9880
vn -0.1477 -0.0017 0.9890
vn -0.1429 -0.0028 0.9897
vn -0.1469 -0.0009 0.9892
vn -0.1396 0.0008 0.9902
vn -0.1391 0.0002 0.9903
vn -0.1114 -0.0010 0.9938
vn -0.1204 -0.0084 0.9927
vn -0.1202 -0.0085 0.9927
vn -0.1109 -0.0005 0.9938
vn -0.0840 -0.0031 0.9965
vn -0.0881 -0.0079 0.9961
vn -0.0880 -0.0075 0.9961
vn -0.0835 -0.0026 0.9965
vn -0.0523 -0.0050 0.9986
vn -0.0496 -0.0086 0.9987
vn -0.0520 -0.0055 0.9986
vn -0.0493 -0.0088 0.9987
vn -0.0202 -0.0018 0.9998
vn -0.0206 -0.0022 0.9998
vn -0.0205 -0.0020 0.9998
vn -0.0065 -0.0057 1.0000
vn -0.0180 -0.0000 0.9998
s 1
f 85//28 86//28 87//28
f 87//28 86//28 88//28
f 88//28 86//28 89//28
f 88//28 89//28 90//28
f 90//28 89//28 91//28
f 90//28 91//28 92//28
f 93//28 94//28 92//28
f 92//28 94//28 90//28
f 92//29 91//29 95//29
f 95//29 91//29 96//29
f 89//30 97//30 91//30
f 91//30 97//30 98//30
f 91//30 98//30 99//30
f 100//30 101//31 89//30
f 89//30 101//31 102//30
f 89//30 102//30 103//30
f 104//30 105//30 100//30
f 100//30 105//30 101//31
f 101//31 105//30 106//30
f 106//30 105//30 107//30
f 106//30 107//30 108//30
f 108//30 109//30 106//30
f 106//30 109//30 110//30
f 106//30 110//30 111//30
f 106//30 112//32 101//31
f 89//30 103//30 113//30
f 113//30 103//30 114//30
f 113//30 114//30 115//30
f 115//30 116//30 113//30
f 113//30 116//30 117//30
f 113//30 118//30 89//30
f 89//30 118//30 119//30
f 89//30 119//30 120//30
f 120//30 121//30 89//30
f 89//30 121//30 122//30
f 89//30 122//30 123//30
f 123//30 124//30 89//30
f 89//30 124//30 97//30
f 99//30 125//30 91//30
f 91//30 125//30 126//30
f 91//30 126//30 127//30
f 127//30 128//30 91//30
f 91//30 128//30 129//30
f 91//30 129//30 130//33
f 131//34 132//35 130//33
f 130//33 132//35 133//36
f 130//33 133//36 134//37
f 134//37 135//38 130//33
f 130//33 135//38 136//38
f 130//33 136//38 137//30
f 130//33 137//30 91//30
f 91//30 137//30 138//39
f 91//30 138//39 96//30
f 96//30 138//39 139//30
f 96//30 139//30 140//30
f 141//40 142//30 138//39
f 138//39 142//30 139//30
f 143//30 144//30 142//30
f 142//30 144//30 145//30
f 142//30 145//30 146//30
f 146//30 147//30 142//30
f 142//30 147//30 139//30
f 89//41 86//41 100//41
f 100//41 86//41 148//41
f 86//42 85//42 148//42
f 148//42 85//42 149//42
f 150//28 151//28 152//28
f 152//28 151//28 153//28
f 94//43 93//43 152//43
f 152//43 93//43 154//43
f 152//43 154//43 150//43
f 150//43 154//43 149//43
f 150//43 149//43 85//43
f 155//43 156//43 154//43
f 154//43 156//43 157//43
f 154//43 157//43 158//43
f 156//43 159//43 157//43
f 157//43 159//43 160//43
f 157//43 160//43 161//43
f 161//43 162//43 157//43
f 157//43 162//43 163//43
f 157//43 163//43 164//43
f 164//43 165//43 157//43
f 157//43 165//43 166//43
f 157//43 166//43 167//43
f 168//43 169//43 158//43
f 158//43 169//43 170//43
f 158//43 170//43 171//43
f 171//43 172//43 158//43
f 158//43 172//43 173//43
f 158//43 173//43 174//43
f 174//43 175//43 158//43
f 158//43 175//43 176//43
f 158//43 176//43 177//43
f 178//43 149//43 177//43
f 177//43 149//43 158//43
f 85//43 87//43 150//43
f 154//43 158//43 149//43
f 149//28 178//28 148//28
f 148//28 178//28 179//28
f 148//28 179//28 104//28
f 104//28 100//28 148//28
f 177//42 180//42 178//42
f 178//42 180//42 179//42
f 180//44 177//45 181//44
f 181//44 177//45 176//45
f 181//46 176//46 182//46
f 182//46 176//46 175//46
f 182//47 175//47 183//47
f 183//47 175//47 174//47
f 183//48 174//48 184//48
f 184//48 174//48 173//49
f 184//50 173//50 185//50
f 185//50 173//50 172//50
f 185//51 172//51 186//51
f 186//51 172//51 171//51
f 186//52 171//52 187//52
f 187//52 171//52 170//52
f 187//53 170//53 188//53
f 188//53 170//53 169//53
f 188//54 169//54 189//54
f 189//54 169//54 168//54
f 189//55 168//55 190//55
f 190//55 168//55 158//55
f 157//56 191//56 158//56
f 158//56 191//56 192//56
f 158//56 192//56 193//56
f 194//56 195//56 157//56
f 157//56 195//56 196//56
f 157//56 196//56 197//56
f 197//56 198//56 157//56
f 157//56 198//56 199//57
f 157//56 199//57 191//56
f 192//56 191//56 200//58
f 200//58 191//56 201//57
f 200//58 201//57 202//56
f 202//56 201//57 203//56
f 202//56 203//56 204//56
f 204//56 203//56 205//56
f 204//56 205//56 206//56
f 206//56 205//56 207//57
f 206//56 207//57 208//57
f 208//57 207//57 209//57
f 208//57 209//57 210//56
f 210//56 209//57 211//56
f 210//56 211//56 212//56
f 210//56 212//56 213//56
f 213//56 212//56 214//56
f 213//56 214//56 215//57
f 215//57 214//56 216//56
f 215//57 216//56 217//56
f 217//56 216//56 218//56
f 217//56 218//56 219//57
f 219//57 218//56 220//56
f 220//56 218//56 221//56
f 220//56 221//56 222//56
f 222//56 221//56 223//56
f 222//56 223//56 224//56
f 224//56 223//56 225//56
f 224//56 225//56 226//57
f 226//57 225//56 227//57
f 226//57 227//57 228//56
f 228//56 227//57 229//57
f 228//56 229//57 230//59
f 231//57 232//56 230//59
f 230//59 232//56 228//56
f 193//56 233//57 158//56
f 158//56 233//57 234//56
f 158//56 234//56 235//56
f 235//56 236//56 158//56
f 158//56 236//56 190//56
f 194//60 157//60 237//60
f 237//60 157//60 167//60
f 237//61 167//61 238//61
f 238//61 167//61 166//61
f 238//62 166//62 239//62
f 239//62 166//62 165//62
f 239//63 165//63 240//63
f 240//63 165//63 164//63
f 240//64 164//64 241//64
f 241//64 164//64 163//64
f 241//65 163//65 242//65
f 242//65 163//65 162//65
f 242//66 162//66 243//66
f 243//66 162//66 161//66
f 243//67 161//67 244//67
f 244//67 161//67 160//67
f 244//68 160//68 245//68
f 245//68 160//68 159//68
f 245//69 159//70 246//69
f 246//69 159//70 156//70
f 155//71 247//71 156//71
f 156//71 247//71 246//71
f 87//71 88//71 150//71
f 150//71 88//71 151//71
f 88//43 90//43 151//43
f 151//43 90//43 153//43
f 90//42 94//42 153//42
f 153//42 94//42 152//42
f 138//72 137//72 248//72
f 248//73 137//73 136//73
f 248//74 136//74 249//74
f 249//75 136//75 135//75
f 249//76 135//76 250//76
f 250//77 135//77 134//77
f 250//78 134//78 251//78
f 251//79 134//79 133//79
f 251//80 133//81 252//82
f 252//82 133//81 132//83
f 252//84 132//85 253//86
f 253//86 132//85 131//87
f 253//88 131//88 254//88
f 254//89 131//89 130//89
f 254//90 130//91 255//92
f 255//93 130//94 256//95
f 255//93 256//95 257//96
f 257//97 256//98 258//99
f 257//97 258//99 259//100
f 257//97 259//100 260//101
f 260//101 259//100 261//102
f 260//101 261//102 262//103
f 262//103 261//102 263//104
f 262//103 263//104 264//105
f 264//105 263//104 265//106
f 264//105 265//106 266//107
f 266//107 265//106 267//108
f 266//107 267//108 268//109
f 268//109 267//108 269//110
f 268//109 269//110 270//111
f 268//109 270//111 271//112
f 271//112 270//111 272//113
f 271//112 272//113 273//114
f 273//114 272//113 274//115
f 273//114 274//115 275//116
f 273//114 275//116 276//117
f 276//117 275//116 277//118
f 276//117 277//118 278//119
f 278//119 277//118 279//120
f 278//119 279//120 280//121
f 280//121 279//120 281//122
f 280//121 281//122 282//123
f 282//123 281//122 283//123
f 282//123 283//123 284//124
f 284//124 285//124 282//123
f 282//123 285//124 286//125
f 282//123 286//125 280//121
f 280//121 286//125 287//126
f 280//121 287//126 278//119
f 278//119 287//126 288//127
f 278//119 288//127 276//117
f 276//117 288//127 289//128
f 276//117 289//128 273//114
f 273//114 289//128 290//129
f 273//114 290//129 271//112
f 271//112 290//129 291//130
f 271//112 291//130 268//109
f 268//109 291//130 292//131
f 268//109 292//131 293//132
f 268//109 293//132 266//107
f 266//107 293//132 294//133
f 266//107 294//133 295//134
f 266//107 295//134 264//105
f 264//105 295//134 296//135
f 264//105 296//135 262//103
f 262//103 296//135 297//136
f 262//103 297//136 260//101
f 260//101 297//136 298//137
f 260//101 298//137 257//96
f 257//96 298//137 299//138
f 257//96 299//138 255//93
f 255//92 299//139 300//140
f 255//92 300//140 254//90
f 254//90 300//140 301//141
f 254//142 301//142 253//142
f 253//143 301//143 252//143
f 117//144 302//144 113//144
f 113//145 302//146 303//147
f 113//145 303//147 304//148
f 304//149 303//150 305//151
f 304//149 305//151 306//152
f 306//152 305//151 307//153
f 306//152 307//153 308//154
f 308//154 307//153 309//155
f 308//154 309//155 310//156
f 116//157 311//157 117//157
f 117//158 311//159 312//160
f 117//161 312//162 302//163
f 302//163 312//162 313//164
f 302//146 313//165 314//166
f 115//167 315//167 116//167
f 116//168 315//169 316//170
f 116//168 316//170 311//171
f 311//159 316//172 317//173
f 311//159 317//173 312//160
f 312//162 317//174 313//164
f 315//175 115//175 318//175
f 318//176 115//176 114//176
f 318//177 114//177 319//177
f 319//178 114//179 103//180
f 319//178 103//180 320//181
f 320//182 103//182 102//182
f 320//183 102//183 101//183
f 302//146 314//166 303//147
f 303//147 314//166 321//184
f 303//150 321//185 305//151
f 305//151 321//186 309//187
f 305//151 309//187 307//153
f 308//154 310//156 322//188
f 322//188 310//156 323//189
f 322//188 323//189 324//190
f 324//190 323//189 325//191
f 324//190 325//191 326//192
f 326//192 325//191 327//193
f 327//193 325//191 328//194
f 327//193 328//194 329//195
f 329//195 328//194 330//196
f 329//195 330//196 331//197
f 331//197 330//196 332//198
f 331//197 332//198 333//199
f 333//199 332//198 334//200
f 333//199 334//200 335//201
f 335//201 334//200 336//202
f 335//201 336//202 337//203
f 337//203 336//202 338//204
f 338//204 336//202 339//205
f 338//204 339//205 340//206
f 340//206 339//205 341//207
f 340//206 341//207 284//124
f 284//124 341//207 285//124
f 285//124 341//207 342//207
f 342//207 341//207 343//208
f 343//208 341//207 339//205
f 343//208 339//205 344//209
f 344//209 339//205 336//202
f 344//209 336//202 334//200
f 323//189 345//210 325//191
f 325//191 345//210 328//194
f 345//210 330//196 328//194
f 337//203 346//211 335//201
f 335//201 346//211 333//199
f 346//211 347//212 333//199
f 333//199 347//212 331//197
f 347//212 348//213 331//197
f 331//197 348//213 329//195
f 348//213 327//193 329//195
f 326//192 349//214 324//190
f 324//190 349//214 322//188
f 349//214 350//215 322//188
f 322//188 350//215 308//154
f 350//215 306//152 308//154
f 113//216 304//216 118//216
f 118//217 304//217 306//217
f 118//218 306//219 350//220
f 118//218 350//220 119//221
f 119//222 350//223 349//224
f 119//222 349//224 120//225
f 120//225 349//224 326//226
f 120//227 326//228 327//229
f 120//227 327//229 121//230
f 121//230 327//229 348//231
f 121//232 348//233 347//234
f 121//232 347//234 122//235
f 122//236 347//237 346//238
f 122//236 346//238 123//239
f 123//240 346//241 337//242
f 123//240 337//242 124//243
f 124//243 337//242 338//244
f 124//245 338//246 340//247
f 124//245 340//247 97//248
f 97//248 340//247 284//249
f 97//250 284//251 283//252
f 283//252 281//253 97//250
f 97//250 281//253 98//254
f 98//255 281//256 279//257
f 98//255 279//257 277//258
f 98//255 277//258 99//259
f 99//260 277//261 275//262
f 99//260 275//262 274//263
f 99//260 274//263 125//264
f 125//265 274//266 272//267
f 125//265 272//267 270//268
f 125//265 270//268 126//269
f 126//270 270//271 269//272
f 126//270 269//272 267//273
f 126//270 267//273 127//274
f 127//274 267//273 265//275
f 127//276 265//277 263//278
f 127//276 263//278 128//279
f 128//279 263//278 261//280
f 128//281 261//282 259//283
f 128//281 259//283 129//284
f 129//285 259//286 258//287
f 129//285 258//287 256//288
f 256//289 130//289 129//289
f 140//290 139//290 247//290
f 247//290 139//290 246//290
f 194//291 237//291 142//291
f 142//292 237//292 143//292
f 143//293 237//293 238//293
f 143//294 238//294 239//294
f 143//294 239//294 144//294
f 144//295 239//295 240//295
f 144//296 240//296 145//296
f 145//297 240//297 241//297
f 145//298 241//298 242//298
f 145//299 242//299 146//299
f 146//300 242//300 243//300
f 146//301 243//301 244//301
f 146//301 244//301 147//301
f 147//302 244//302 245//302
f 147//303 245//303 139//303
f 139//304 245//304 246//304
f 195//305 194//306 141//307
f 141//307 194//306 142//306
f 351//308 352//309 353//310
f 353//310 352//309 231//311
f 353//310 231//311 230//312
f 353//313 230//314 354//315
f 354//316 230//317 229//318
f 354//316 229//318 355//319
f 355//320 229//321 227//322
f 355//320 227//322 356//323
f 356//323 227//324 225//325
f 356//323 225//325 357//326
f 357//327 225//328 358//329
f 357//327 358//329 359//330
f 359//330 358//329 360//331
f 359//330 360//331 361//332
f 361//332 360//331 221//333
f 361//332 221//333 218//334
f 225//328 223//335 358//329
f 358//329 223//335 360//331
f 223//335 221//333 360//331
f 361//332 218//334 362//336
f 362//336 218//334 216//337
f 362//336 216//337 363//338
f 363//338 216//337 214//339
f 363//338 214//339 364//340
f 364//340 214//339 365//341
f 364//340 365//341 366//342
f 366//342 365//341 367//343
f 367//343 365//341 368//344
f 367//343 368//344 369//345
f 369//345 368//344 370//346
f 369//345 370//346 371//347
f 371//347 370//346 372//348
f 371//347 372//348 373//349
f 373//349 372//348 374//350
f 373//349 374//350 375//351
f 375//351 374//350 376//352
f 375//351 376//352 377//353
f 377//353 376//352 378//354
f 377//353 378//354 379//355
f 379//355 378//354 380//356
f 379//355 380//356 381//357
f 381//357 380//356 382//358
f 382//358 380//356 383//359
f 382//358 383//359 384//360
f 384//360 383//359 385//361
f 384//360 385//361 386//362
f 386//362 385//361 387//362
f 386//362 387//362 141//307
f 141//307 387//362 196//363
f 141//307 196//363 195//305
f 214//339 212//364 365//341
f 365//341 212//364 368//344
f 212//364 211//365 368//344
f 368//344 211//365 370//346
f 211//365 209//366 370//346
f 370//346 209//366 207//367
f 370//346 207//367 372//348
f 372//348 207//367 205//368
f 372//348 205//368 374//350
f 374//350 205//368 203//369
f 374//350 203//369 376//352
f 376//352 203//369 201//370
f 376//352 201//370 378//354
f 378//354 201//370 191//371
f 378//354 191//371 380//356
f 380//356 191//371 199//358
f 380//356 199//358 383//359
f 383//359 199//358 198//372
f 383//359 198//372 385//361
f 385//361 198//372 197//373
f 385//361 197//373 387//362
f 387//362 197//373 196//363
f 364//340 366//342 363//338
f 363//338 366//342 388//374
f 363//338 388//374 362//336
f 362//336 388//374 389//375
f 362//336 389//375 361//332
f 361//332 389//375 359//330
f 357//326 390//376 356//323
f 356//323 390//376 355//320
f 390//377 391//378 355//319
f 355//319 391//378 354//316
f 391//379 351//380 354//315
f 354//315 351//380 353//313
f 112//381 236//382 392//383
f 392//383 236//382 393//384
f 392//383 393//384 394//385
f 394//385 393//384 395//386
f 394//385 395//386 396//387
f 396//387 395//386 397//388
f 396//387 397//388 398//389
f 398//389 397//388 399//390
f 398//389 399//390 400//391
f 400//391 399//390 401//392
f 401//392 399//390 402//393
f 401//392 402//393 403//394
f 403//394 402//393 404//395
f 403//394 404//395 405//396
f 405//396 404//395 406//397
f 405//396 406//397 407//398
f 407//398 406//397 408//399
f 407//398 408//399 409//400
f 409//400 408//399 410//401
f 409//400 410//401 411//402
f 411//402 410//401 412//403
f 411//402 412//403 413//404
f 413//404 412//403 213//405
f 413//404 213//405 215//406
f 236//382 235//407 393//384
f 393//384 235//407 234//408
f 393//384 234//408 395//386
f 395//386 234//408 233//409
f 395//386 233//409 397//388
f 397//388 233//409 193//410
f 397//388 193//410 399//390
f 399//390 193//410 192//411
f 399//390 192//411 200//412
f 399//390 200//412 402//393
f 402//393 200//412 202//413
f 402//393 202//413 404//395
f 404//395 202//413 204//414
f 404//395 204//414 406//397
f 406//397 204//414 206//415
f 406//397 206//415 408//399
f 408//399 206//415 208//416
f 408//399 208//416 410//401
f 410//401 208//416 210//417
f 410//401 210//417 213//405
f 413//404 215//406 414//418
f 414//418 215//406 217//419
f 414//418 217//419 415//420
f 415//420 217//419 416//421
f 415//420 416//421 417//422
f 417//422 416//421 418//423
f 418//423 416//421 419//424
f 418//423 419//424 420//425
f 420//426 419//424 421//427
f 420//426 421//427 422//428
f 422//428 421//427 423//429
f 422//430 423//430 424//430
f 424//431 423//432 425//433
f 424//431 425//433 426//434
f 426//435 425//436 427//437
f 426//435 427//437 428//438
f 428//439 427//440 352//441
f 352//441 427//440 232//442
f 352//441 232//442 231//443
f 217//419 219//424 416//421
f 416//421 219//424 419//424
f 219//424 220//444 419//424
f 419//424 220//444 421//427
f 220//444 222//445 421//427
f 421//427 222//445 224//446
f 421//427 224//446 423//429
f 423//432 224//447 226//448
f 423//432 226//448 425//433
f 425//449 226//449 228//449
f 425//436 228//450 427//437
f 427//437 228//450 232//451
f 415//420 417//422 414//418
f 414//418 417//422 429//452
f 414//418 429//452 413//404
f 413//404 429//452 411//402
f 213//405 412//403 410//401
f 190//453 236//382 106//306
f 106//306 236//382 112//381
f 180//454 181//454 105//454
f 105//455 181//455 107//455
f 107//456 181//456 182//456
f 107//457 182//457 183//457
f 107//457 183//457 108//457
f 108//458 183//458 184//458
f 108//459 184//459 109//459
f 109//460 184//460 185//460
f 109//461 185//461 186//461
f 109//462 186//462 110//462
f 110//463 186//463 187//463
f 110//464 187//464 188//464
f 110//464 188//464 111//464
f 111//465 188//465 189//465
f 111//466 189//466 106//466
f 106//467 189//467 190//467
f 179//468 180//468 104//468
f 104//468 180//468 105//468
f 285//469 342//470 352//471
f 352//471 342//470 428//472
f 428//473 342//473 343//473
f 428//474 343//474 426//474
f 426//475 343//475 344//475
f 426//476 344//477 424//478
f 424//478 344//477 334//479
f 424//480 334//480 422//480
f 422//481 334//481 332//481
f 422//482 332//482 420//482
f 420//483 332//484 330//485
f 420//483 330//485 418//486
f 418//486 330//485 345//487
f 418//486 345//487 323//488
f 418//486 323//488 417//489
f 417//489 323//488 310//490
f 417//489 310//490 429//491
f 429//491 310//490 309//492
f 429//491 309//492 411//493
f 411//494 309//495 321//496
f 411//494 321//496 409//497
f 409//498 321//499 314//500
f 409//498 314//500 407//501
f 407//501 314//500 313//502
f 407//501 313//502 405//503
f 405//503 313//502 317//504
f 405//503 317//504 403//505
f 403//505 317//504 316//506
f 403//505 316//506 315//507
f 318//508 400//509 315//510
f 315//507 400//511 401//512
f 315//507 401//512 403//505
f 400//509 318//508 398//513
f 398//514 318//515 319//516
f 398//514 319//516 396//517
f 396//518 319//519 394//520
f 394//520 319//519 320//521
f 394//520 320//521 392//522
f 392//523 320//524 101//31
f 392//523 101//31 112//32
f 141//40 138//39 386//525
f 386//525 138//39 248//526
f 386//525 248//526 384//527
f 384//528 248//529 249//530
f 384//528 249//530 382//531
f 382//532 249//533 381//534
f 381//534 249//533 250//535
f 381//534 250//535 379//536
f 379//537 250//538 251//539
f 379//537 251//539 377//540
f 377//541 251//542 375//543
f 375//543 251//542 252//544
f 375//543 252//544 373//545
f 373//546 252//547 371//548
f 371//548 252//547 301//549
f 371//548 301//549 369//550
f 369//551 301//552 300//553
f 369//551 300//553 367//554
f 367//555 300//556 299//557
f 367//555 299//557 366//558
f 366//558 299//557 298//559
f 366//558 298//559 297//560
f 366//558 297//560 388//561
f 388//561 297//560 296//562
f 388//561 296//562 295//563
f 388//561 295//563 389//564
f 389//564 295//563 294//565
f 389//564 294//565 359//566
f 359//566 294//565 293//567
f 359//566 293//567 292//568
f 292//569 291//570 359//571
f 359//571 291//570 357//572
f 357//572 291//570 290//573
f 357//574 290//575 289//576
f 357//574 289//576 390//577
f 390//578 289//579 288//580
f 390//578 288//580 391//581
f 391//582 288//583 351//584
f 351//584 288//583 287//585
f 351//586 287//587 286//588
f 285//589 352//589 286//589
f 286//588 352//590 351//586
f 155//28 154//28 247//28
f 247//28 154//28 95//28
f 247//28 95//28 140//28
f 140//28 95//28 96//28
f 93//71 92//71 154//71
f 154//71 92//71 95//71
o sticker
v 3.138515 1.197232 5.298580
v 3.138515 28.314049 5.298580
v 3.138515 1.197232 4.914652
v 3.138515 28.314049 4.914652
v 54.200184 1.197232 5.298580
v 54.200184 28.314049 5.298580
v 54.200184 1.197232 4.914652
v 54.200184 28.314049 4.914652
vn -1.0000 -0.0000 -0.0000
vn -0.0000 -0.0000 -1.0000
vn 1.0000 -0.0000 -0.0000
vn -0.0000 -0.0000 1.0000
vn -0.0000 -1.0000 -0.0000
vn -0.0000 1.0000 -0.0000
vt 0.375000 0.000000
vt 0.625000 0.000000
vt 0.625000 0.250000
vt 0.375000 0.250000
vt 0.625000 0.500000
vt 0.375000 0.500000
vt 0.625000 0.750000
vt 0.375000 0.750000
vt 0.625000 1.000000
vt 0.375000 1.000000
vt 0.125000 0.500000
vt 0.125000 0.750000
vt 0.875000 0.500000
vt 0.875000 0.750000
s 0
f 430/1/591 431/2/591 433/3/591 432/4/591
f 432/4/592 433/3/592 437/5/592 436/6/592
f 436/6/593 437/5/593 435/7/593 434/8/593
f 434/8/594 435/7/594 431/9/594 430/10/594
f 432/11/595 436/6/595 434/8/595 430/12/595
f 437/5/596 433/13/596 431/14/596 435/7/596
