# Blender 5.2.1 LTS
# www.blender.org
mtllib nds.mtl
o DS_cart
v -15.859126 -1.479504 -3.853842
v -15.860802 -1.500330 -1.853927
v -15.899802 -1.419331 -1.853559
v 16.959793 8.196856 0.096605
v 16.967754 8.213443 -2.708334
v 16.967625 15.918309 -2.662774
v 16.959663 15.901723 0.142166
v -15.791124 -1.571502 -3.854193
v -15.796801 -1.583328 -1.854236
v -15.597216 16.572710 0.053730
v -15.720214 16.512712 0.053026
v -15.440215 16.599710 0.054335
v -15.802212 16.443712 0.052385
v -15.866211 16.360714 0.051713
v -15.934805 -1.239334 -1.852594
v -15.934792 -2.037321 -1.857313
v -15.738800 -1.636328 -1.854385
v -15.597799 -1.710326 -1.854422
v -15.499799 -1.735326 -1.854292
v -15.655123 -1.668500 -3.854381
v -15.520123 -1.718500 -3.854293
v -14.429127 -1.727499 -3.851250
v -14.434803 -1.739326 -1.851293
v -15.429122 -1.727499 -3.854088
v -15.434798 -1.739326 -1.854131
v -13.934618 -12.889131 -1.915805
v -15.934567 -15.389087 -1.936264
v -13.948621 -12.772133 -1.915153
v -14.054624 -12.564137 -1.914224
v -14.199625 -12.449139 -1.913955
v -14.331625 -12.402140 -1.914052
v -14.225948 -12.420312 -3.913902
v -13.934763 -4.239282 -1.864657
v -13.992802 -2.006321 -1.851617
v -13.963799 -2.072320 -1.851925
v -15.873667 -16.023720 -0.139805
v -15.837665 -16.175718 -0.140602
v 16.957794 8.188751 0.096552
v -14.301639 -18.072685 -0.147460
v -14.638640 -17.871687 -0.147228
v -15.537654 -16.899704 -0.144032
v -15.680657 -16.619711 -0.142782
v -15.455651 -17.033703 -0.144591
v -15.270648 -17.287699 -0.145568
v -15.060645 -17.520695 -0.146350
v -13.866637 -18.252682 -0.147289
v 14.258870 -8.480381 -3.809758
v 14.268871 -8.577380 -3.810303
v 14.262059 -8.591572 -1.410355
v -13.174638 -18.389679 -0.146135
v -13.408638 -18.362680 -0.146640
v -14.130802 -1.842324 -1.851039
v -14.055801 -1.915323 -1.851258
v -14.302803 -1.758325 -1.851031
v -15.792663 -16.326715 -0.141367
v -12.939638 -18.399679 -0.145528
v -13.934796 -2.239317 -1.852831
v -13.959124 -2.060493 -3.851885
v -13.929120 -2.227491 -3.852787
v -12.185094 -8.392113 -1.393236
v -12.147839 -8.308577 -1.483639
v -12.153242 -8.359421 -1.340952
v -13.997622 -12.648135 -1.914558
v 13.761190 -8.197383 -1.104439
v 13.839314 -8.174122 -1.148080
v 13.808994 -8.267788 -1.035718
v 13.843529 -8.136673 -1.223849
v 13.761800 -8.101112 -1.318872
v -13.928900 -15.377260 -3.930545
v -12.228907 -15.377260 -3.925720
v -13.933536 -18.214970 -2.297302
v -14.026081 -4.520452 -3.866622
v -14.105081 -4.607450 -3.867360
v -14.012758 -4.506278 -1.866457
v -15.919563 -15.663082 -1.937842
v -15.850557 -16.089077 -1.940165
v 14.198056 -8.347575 -1.409093
v 14.192909 -8.342883 -1.357079
v 14.168842 -8.312019 -1.333965
v 14.128798 -8.266115 -1.317807
v -15.429071 -4.727448 -3.871828
v -15.434748 -4.739273 -1.871871
v -14.429076 -4.727448 -3.868989
v 14.148867 -8.252384 -3.808722
v 14.229869 -8.386383 -3.809284
v 14.106054 -8.228578 -1.408651
v -15.675549 -16.609068 -1.942743
v 14.150597 -8.325534 -1.247094
v 14.203872 -8.366960 -1.344190
v -15.773069 -4.864446 -3.873614
v -15.858068 -4.972444 -3.874494
v -15.873743 -5.001268 -1.874666
v -15.935674 -15.556728 -0.137220
v -15.939676 -15.399731 -0.136303
v -11.929891 -8.320770 -1.112084
v -11.959580 -8.230122 -1.221635
v -11.910600 -8.209163 -1.214372
v -15.920740 -5.122266 -1.875515
v -15.893065 -5.042441 -3.875006
v -15.929062 -5.227438 -3.876204
v -13.934528 -18.217039 -1.947310
v -14.082529 -18.160040 -1.947393
v -14.377076 -4.724447 -3.868824
v -14.434752 -4.739273 -1.869033
v -11.863881 -8.279747 -1.115654
v 14.067053 -8.194578 -1.408561
v 14.073865 -8.180387 -3.808509
v -15.525748 -4.748273 -1.872182
v -15.592072 -4.756446 -3.872462
v 14.057722 -8.207271 -1.291660
v -15.637748 -4.782272 -1.872701
v -11.893380 -8.158702 -1.292026
v -11.823668 -8.197300 -1.191054
v -15.722746 -4.831272 -1.873232
v 14.250772 -8.592170 -1.309388
v 14.248057 -8.474573 -1.409702
v 14.213708 -8.418302 -1.286465
v -15.934738 -5.239264 -1.876246
v 14.235635 -8.549459 -1.260177
v -12.006733 -8.316440 -1.168278
v -12.014503 -8.252961 -1.248926
v -12.103373 -8.310688 -1.295521
v 14.077242 -8.334272 -1.122352
v 13.926055 -8.282663 -1.056474
v 14.027184 -8.304392 -1.102317
v 14.022515 -8.212701 -1.218790
v -14.286754 -4.715273 -1.868471
v -14.291078 -4.706449 -3.868474
v -14.191078 -4.666449 -3.867953
v -14.179756 -4.668274 -1.867889
v -14.110757 -4.619275 -1.867403
v -11.961025 -8.149963 -1.417169
v -11.932206 -8.153342 -1.353106
v -13.959085 -4.394454 -3.865686
v -13.955762 -4.381279 -1.865556
v 14.104220 -8.382319 -1.114559
v -13.666669 -18.296244 -2.250025
v -13.544713 -18.324339 -2.233844
v -13.929087 -4.227457 -3.864614
v -12.235668 -18.391401 -1.543511
v -13.049814 -18.384544 -2.197795
v -12.233823 -18.387558 -2.193496
v 13.911226 -8.217304 -1.117131
v 15.971657 16.603710 0.143513
v 14.156664 16.599710 0.138338
v 14.156664 16.603710 0.138362
v -11.737254 -8.594529 -0.984153
v 13.760643 -8.594529 -0.911785
v 13.760808 -18.394358 -0.969733
v -15.911208 16.266716 0.051029
v -15.940205 16.099720 0.049960
v 14.240822 -18.392241 -1.326366
v 14.262224 -18.391401 -1.468304
v 14.264070 -18.387558 -2.118289
v 14.268986 -15.377260 -3.850512
v -12.159552 -8.509068 -1.231852
v -12.141512 -8.424982 -1.246304
v -12.112749 -8.524477 -1.162809
v 13.957476 -8.181785 -1.204792
v 13.895579 -8.140567 -1.241724
v -11.846031 -8.091388 -3.881549
v -11.890842 -8.115579 -1.481768
v -11.968841 -8.149579 -1.482190
v 16.348656 16.548710 0.144258
v 16.202656 16.583710 0.144050
v 16.785658 16.298716 0.144020
v 16.722656 16.357714 0.144190
v 14.184489 -8.417757 -1.209543
v 16.914661 16.109718 0.143268
v 16.530657 16.478712 0.144360
v -11.854997 -8.330988 -1.074931
v -11.736814 -8.230606 -1.139004
v 14.139282 -8.416189 -1.136660
v -11.729031 -8.077389 -3.881134
v -11.833843 -8.101579 -1.481523
v 14.151196 -8.521370 -1.106248
v -11.736444 -8.140833 -1.269475
v -11.825178 -8.115277 -1.363577
v -11.736219 -8.111366 -1.348301
v 16.458242 -18.399679 -0.062090
v 14.187320 -8.593116 -1.149570
v 14.123084 -8.593606 -1.066754
v 16.958233 -17.899687 -0.057714
v 16.963833 -17.913939 -2.382832
v 16.964880 -17.885838 -2.399664
v 14.223518 -8.592702 -1.219467
v 14.212497 -8.519744 -1.212066
v -11.933417 -8.180779 -1.279270
v 14.081992 -8.520797 -1.034439
v 14.070031 -8.444715 -1.048024
v 16.504242 -18.396679 -0.061941
v -13.399760 -18.350433 -2.217587
v 15.966169 -17.097143 -2.855844
v 16.771229 -18.282196 -2.171551
v 16.733187 -18.308285 -2.156814
v 16.909506 -18.114622 -2.268171
v 16.897470 -18.136698 -2.255335
v 14.065933 -8.593920 -1.013917
v -12.215071 -18.392241 -1.401454
v 16.643114 -18.354446 -2.130342
v 16.599092 -18.368492 -2.122550
v 14.187485 -18.392944 -1.207519
v -14.882534 -17.669048 -1.946760
v -14.697533 -17.816046 -1.947104
v -15.135537 -17.423052 -1.946024
v -14.365531 -18.025042 -1.947398
v -15.361541 -17.152058 -1.945063
v -15.532545 -16.889061 -1.943993
v -14.568532 -17.905045 -1.947265
v 16.666132 -18.344410 -2.136218
v 15.968979 -15.377260 -3.845688
v 15.965756 7.511425 -2.710329
v 15.979756 7.511425 -2.710289
v 14.123249 -18.393435 -1.124703
v 16.866390 -18.183863 -2.227702
v 16.850355 -18.204933 -2.215871
v 16.895460 -18.140715 -2.252365
v -11.813059 -8.350119 -1.052925
v 16.814293 -18.244068 -2.193205
v 16.791258 -18.265139 -2.181395
v 16.711166 -18.321333 -2.148954
v 16.779242 -18.275175 -2.175488
v 16.689148 -18.333374 -2.142087
v 16.832321 -18.225004 -2.204041
v 16.543072 -18.381533 -2.115786
v 16.488060 -18.386559 -2.111972
v -11.836101 -8.391207 -1.038233
v -11.947082 -8.480169 -1.045074
v -11.979932 -8.391857 -1.097646
v 16.947666 -18.015285 -2.324476
v 16.941629 -18.037363 -2.311624
v -12.098840 -8.247577 -1.483139
v 16.931585 -18.064449 -2.296812
v -12.035098 -8.203117 -1.391693
v -11.735843 -8.091580 -1.481186
v -12.071713 -8.388402 -1.174888
v 13.760902 -8.304983 -1.003074
v 16.921545 -18.089539 -2.281989
v -11.737087 -8.359178 -1.042762
v -11.822154 -8.430318 -1.019424
v 16.961786 -17.942034 -2.367004
v 16.950684 -18.005249 -2.330409
v 16.787239 -18.275681 -0.060423
v 16.854237 -18.203682 -0.059807
v 16.697241 -18.338680 -0.061051
v 16.625242 -18.370680 -0.061444
v 13.768867 -8.077389 -3.808766
v 16.939234 -18.031685 -0.058548
v 16.956232 -17.945686 -0.057992
v 16.906235 -18.120684 -0.059168
v 13.799647 -8.594517 -0.913674
v 13.760649 -8.555516 -0.913554
v 13.760735 -8.418336 -0.943743
v 13.814723 -8.438359 -0.939708
v 13.894835 -8.381124 -0.979143
v -12.040957 -8.593914 -1.089014
v -12.182466 -8.592891 -1.262413
v -15.280625 -12.151143 -1.915261
v -15.860640 -11.210160 -1.911343
v -15.274949 -12.139317 -3.915218
v -15.854963 -11.198334 -3.911300
v -15.934642 -10.947165 -1.909998
v -15.921640 -11.059162 -1.910623
v 15.972618 16.620296 -2.661447
v 15.979618 16.620296 -2.661427
v 13.902701 -8.594404 -0.932381
v 14.167449 16.626181 -3.661557
v 15.975442 16.626181 -3.656425
v -15.902963 -11.092335 -3.910809
v -15.928966 -10.935338 -3.909955
v -15.855426 16.383184 -3.748205
v -15.906423 16.270185 -3.749018
v -15.791427 16.466183 -3.747533
v -15.684428 16.551182 -3.746727
v -15.592430 16.593180 -3.746217
v -15.494431 16.618181 -3.745791
v -15.429430 16.622181 -3.745583
v -15.259624 -12.183144 -1.915391
v 16.464060 -18.387558 -2.112045
v -15.929420 16.122190 -3.749959
v -14.067125 -1.883497 -3.851145
v -15.163948 -12.261315 -3.915624
v -14.125126 -1.830498 -3.850996
v -11.893176 -8.555368 -1.011365
v -11.904170 -8.594357 -1.013627
v -14.191127 -1.788498 -3.850935
v -15.929129 -1.227508 -3.852551
v -14.319127 -1.740499 -3.851015
v -14.004125 -1.966495 -3.851457
v 14.006862 -8.491068 -0.988476
v 13.961780 -8.520240 -0.959775
v -15.908127 -1.369506 -3.853331
v -12.033029 -8.184386 -3.882630
v -11.890141 -8.475294 -1.023883
v -11.798212 -8.493441 -0.998729
v 13.917931 -8.333923 -1.012799
v 16.966166 -17.097143 -2.853006
v -12.235833 -8.591572 -1.485562
v 13.990884 -8.434021 -0.996184
v -12.109026 -8.252384 -3.883248
v -14.389949 -12.379313 -3.914125
v -14.868947 -12.376313 -3.915467
v -14.999946 -12.352313 -3.915697
v 13.971973 -8.350835 -1.027746
v -11.975072 -8.543150 -1.048526
v -12.022970 -8.507938 -1.084454
v -12.229021 -8.577380 -3.885510
v -12.180024 -8.362383 -3.884100
v 16.040104 16.615059 -2.661286
v -14.318949 -12.390313 -3.913989
v 16.238668 16.595129 -2.660840
v -12.206837 -8.424574 -1.484492
v 16.276896 16.585964 -2.660786
v -13.928942 -12.877304 -3.915762
v -13.947944 -12.741306 -3.915011
v 13.899702 -8.567404 -0.932230
v 13.910727 -8.516353 -0.940897
v -11.789246 -8.594511 -0.987301
v -14.167948 -12.451312 -3.913921
v 16.324551 16.567636 -2.660759
v 16.820194 16.283562 -2.661032
v 16.888844 16.175793 -2.661475
v 16.636393 16.433405 -2.660668
v -12.226834 -8.500572 -1.484998
v -14.084947 -12.514310 -3.914058
v -14.048947 -12.552310 -3.914180
v -13.977946 -12.662309 -3.914629
v 14.167449 16.622181 -3.661580
v 16.569620 16.480536 -2.660579
v 16.619894 16.448854 -2.660623
v 14.044059 -18.393831 -1.057928
v 13.975945 -18.394068 -1.018122
v 16.112387 7.520267 -2.709861
v 13.927890 -18.394186 -0.998259
v 15.972771 7.511455 -2.715308
v 15.979771 7.511455 -2.715290
v 15.968595 7.517339 -3.710307
v 15.975595 7.517339 -3.710288
v 16.199228 7.530794 -2.709552
v 16.199047 7.530787 -2.714552
v 16.582382 7.673002 -2.707623
v 16.112638 7.520313 -2.714859
v -12.074098 -8.236116 -1.391999
v -12.198147 -8.440224 -1.374557
v 16.965740 8.192664 -2.703463
v 16.960491 8.181725 -0.853503
v 16.961845 8.152257 -2.703713
v 16.961849 8.152177 -2.708714
v -11.737196 -8.454406 -1.004325
v -11.737251 -8.568522 -0.985000
v -12.113023 -8.269960 -1.418310
v -12.137202 -8.324338 -1.354699
v 16.910744 7.982418 -2.704862
v 16.887323 7.946629 -2.705140
v 16.946848 8.091468 -2.704115
v 16.910759 7.982447 -2.709862
v 16.946926 8.091693 -2.709113
v 16.804062 7.830210 -2.706064
v 16.804045 7.830211 -2.711065
v 16.887455 7.946837 -2.710139
v -11.737089 -18.394358 -1.042102
v 16.773272 7.801526 -2.706321
v 16.773409 7.801670 -2.711320
v 16.686329 7.721949 -2.707038
v 16.686312 7.721951 -2.712039
v 16.622383 7.685896 -2.707433
v 13.904865 -8.096388 -3.808492
v 13.960865 -8.115387 -3.808445
v -11.951949 -18.394068 -1.091711
v -12.175344 -18.392809 -1.305343
v -12.148472 -18.393074 -1.260267
v -12.041796 -18.393747 -1.145966
v -11.854050 -18.394274 -1.056434
v -11.802078 -18.394333 -1.046287
v -12.189342 -8.483632 -1.305788
v -12.131435 -8.371823 -1.272961
v 16.622684 7.686079 -2.712431
v 16.582886 7.673249 -2.712620
v -12.222154 -8.592240 -1.372524
v 16.922623 16.126305 -2.661671
v -12.063812 -8.437608 -1.140156
v -15.076623 -12.337140 -1.915782
v -12.098590 -8.374143 -1.218881
v -14.968622 -12.375139 -1.915700
v 13.762054 -8.091580 -1.408817
v -14.874623 -12.388140 -1.915510
v -15.152624 -12.291142 -1.915726
v 13.901784 -8.122141 -1.313599
v 13.941053 -8.124579 -1.408504
v 16.593088 -18.370499 -2.121578
vn -0.9010 -0.4338 -0.0053
vn 1.0000 -0.0000 0.0028
vn -0.8042 -0.5944 -0.0069
vn -0.7919 -0.6106 -0.0059
vn -0.0028 -0.0059 1.0000
vn 0.0028 0.0059 -1.0000
vn -0.4647 -0.8855 -0.0052
vn -0.3473 -0.9377 -0.0097
vn -0.0000 -1.0000 -0.0059
vn -0.2472 -0.9690 -0.0056
vn -0.0984 -0.9951 -0.0074
vn -0.0614 -0.9981 -0.0061
vn -0.3354 -0.9420 -0.0092
vn -0.0029 -0.0058 1.0000
vn -0.9947 -0.1025 -0.0034
vn -0.9845 -0.1752 -0.0037
vn -0.9850 -0.1727 -0.0034
vn -0.9842 -0.1768 -0.0038
vn -0.9852 -0.1711 -0.0033
vn -0.9155 -0.4023 -0.0045
vn 0.8238 -0.5431 -0.1623
vn -0.1463 -0.7401 -0.6564
vn -0.1474 -0.7398 -0.6565
vn -0.1592 -0.7364 -0.6575
vn 0.0200 -0.8967 -0.4421
vn 0.0788 -0.9095 -0.4081
vn 0.0025 -0.4988 -0.8667
vn 0.0024 -0.4988 -0.8667
vn 0.0022 -0.4987 -0.8668
vn -0.7403 0.6723 0.0002
vn -0.7971 -0.6033 -0.0245
vn -0.7496 -0.6615 0.0216
vn -0.0000 1.0000 0.0059
vn -0.8558 -0.5173 -0.0030
vn -0.7911 -0.6116 -0.0080
vn -0.9871 -0.1599 -0.0069
vn -0.7901 -0.6106 -0.0545
vn -0.9582 -0.2855 -0.0175
vn -0.8366 -0.4867 -0.2514
vn -0.9731 -0.2305 -0.0041
vn -0.8414 -0.4969 -0.2125
vn -0.7858 0.6185 0.0028
vn -0.9913 -0.1316 -0.0011
vn -0.9996 -0.0254 -0.0074
vn -0.9985 -0.0547 -0.0032
vn 0.3781 -0.6602 -0.6490
vn 0.3786 -0.6601 -0.6488
vn 0.3760 -0.6606 -0.6498
vn -0.9816 0.1910 -0.0060
vn -0.0576 0.9983 0.0057
vn 0.3754 -0.6607 -0.6501
vn -0.6925 -0.7214 -0.0062
vn -0.0984 0.9951 0.0056
vn -0.1752 0.9845 0.0018
vn -0.6571 -0.7538 -0.0042
vn -0.6614 -0.7371 -0.1390
vn -0.2905 0.9569 0.0057
vn -0.6514 -0.7469 -0.1331
vn 0.2455 -0.8368 -0.4894
vn -0.4994 0.8663 -0.0018
vn -0.5124 0.8587 -0.0006
vn -0.9868 -0.1175 -0.1110
vn -0.9929 -0.1188 -0.0042
vn -0.7477 0.6640 0.0078
vn -0.9555 -0.2948 -0.0036
vn -0.9305 -0.3663 -0.0064
vn -0.9290 -0.3655 -0.0590
vn -0.8944 0.4472 -0.0006
vn -0.9418 -0.3143 -0.1190
vn -0.9322 0.3621 0.0016
vn -0.9166 -0.3982 0.0358
vn -0.9929 0.1188 -0.0021
vn -0.9740 -0.1598 -0.1609
vn 0.4333 -0.6332 -0.6414
vn 0.6403 -0.5724 -0.5122
vn -0.4317 -0.1240 -0.8935
vn -0.5830 -0.6496 -0.4880
vn -1.0000 -0.0000 -0.0028
vn -0.1601 0.9871 0.0027
vn -0.2049 0.9788 0.0048
vn 0.5389 -0.6359 -0.5524
vn -0.3714 0.9285 0.0049
vn -0.4022 0.9156 0.0031
vn -0.5657 0.8246 0.0040
vn -0.5790 0.8153 0.0032
vn 0.5629 -0.7725 -0.2940
vn -0.7555 0.6552 0.0017
vn -0.8829 0.4695 -0.0016
vn -0.7364 -0.4893 -0.4673
vn 0.0011 -0.4983 -0.8670
vn -0.9099 0.4149 0.0031
vn 0.0069 -0.4999 -0.8660
vn -0.6492 -0.6301 -0.4259
vn -0.9892 0.1463 0.0007
vn -0.9842 0.1768 -0.0017
vn -0.0040 -1.0000 -0.0055
vn -0.0039 -1.0000 -0.0057
vn -0.0037 -1.0000 -0.0059
vn -0.2105 -0.6902 -0.6923
vn -0.0029 -0.0059 1.0000
vn -0.0028 -0.0060 1.0000
vn -0.9888 0.0013 -0.1491
vn 0.7697 -0.2650 -0.5809
vn -0.4641 -0.7084 -0.5319
vn -0.4587 -0.7088 -0.5360
vn -0.4543 -0.7090 -0.5393
vn -0.4609 -0.8404 -0.2853
vn -0.4533 -0.7091 -0.5401
vn -0.2309 -0.8411 -0.4891
vn -0.2693 -0.8347 -0.4803
vn 0.3996 -0.9167 -0.0018
vn -0.4219 -0.6663 -0.6148
vn -0.8559 -0.4309 -0.2858
vn -0.8117 -0.4982 -0.3048
vn 0.3993 -0.9153 -0.0534
vn 0.2930 -0.9388 -0.1813
vn 0.0912 -0.6099 -0.7872
vn 0.1782 -0.7586 -0.6267
vn -0.7500 -0.4714 -0.4640
vn -0.7557 -0.4660 -0.4602
vn -0.7491 -0.4723 -0.4645
vn 0.1188 -0.9929 -0.0048
vn 0.2385 -0.9711 -0.0053
vn -0.8272 -0.2405 -0.5079
vn 0.2870 -0.5145 -0.8081
vn -0.7567 -0.4651 -0.4594
vn 0.1599 -0.9041 -0.3963
vn -0.6592 -0.6561 -0.3674
vn 0.1008 -0.9320 -0.3481
vn -0.7714 -0.5839 -0.2529
vn -0.6706 -0.6567 -0.3451
vn 0.2370 -0.9629 -0.1292
vn -0.7898 -0.0276 -0.6128
vn 0.9994 -0.0359 0.0026
vn -0.9570 -0.0050 -0.2901
vn -0.9570 -0.0040 -0.2902
vn -0.8570 -0.1305 -0.4985
vn -0.8844 -0.0871 -0.4585
vn -0.9194 -0.1003 -0.3802
vn -0.9149 -0.3255 -0.2390
vn -0.8428 -0.2193 -0.4916
vn 0.3067 -0.8277 -0.4699
vn -0.9079 -0.2408 -0.3431
vn 0.4041 -0.7774 -0.4821
vn -0.9685 -0.1397 -0.2062
vn 0.3786 -0.8696 -0.3170
vn -0.7170 -0.0983 -0.6901
vn -0.7015 -0.2307 -0.6743
vn 0.0025 -0.4990 -0.8666
vn 0.0009 -0.4981 -0.8671
vn 0.0074 -0.4963 -0.8681
vn 0.0079 -0.4960 -0.8683
vn 0.0051 -0.4975 -0.8675
vn -0.5694 -0.4331 -0.6987
vn -0.7156 -0.2676 -0.6452
vn -0.7007 -0.3042 -0.6454
vn -0.2917 -0.9565 -0.0077
vn -0.2918 -0.9565 -0.0079
vn -0.2906 -0.9568 -0.0067
vn -0.2903 -0.9569 -0.0065
vn -0.0023 -0.5017 -0.8651
vn -0.6776 -0.0570 -0.7332
vn -0.9938 0.0006 -0.1111
vn -0.0027 -1.0000 -0.0047
vn -0.9570 0.0015 -0.2901
vn 0.0013 -0.4993 -0.8664
vn 0.0053 -0.4977 -0.8674
vn -0.0016 -0.5004 -0.8658
vn -0.8880 0.0027 -0.4599
vn -0.0026 -0.5008 -0.8656
vn -0.7428 -0.6695 -0.0054
vn -0.9123 0.0029 -0.4094
vn 0.0025 -0.4987 -0.8667
vn -0.5679 -0.8231 -0.0069
vn -0.6221 -0.7829 -0.0038
vn -0.7902 0.0036 -0.6129
vn -0.6395 -0.7688 0.0001
vn -0.6971 -0.7169 -0.0099
vn 0.0043 -0.4977 -0.8673
vn 0.0090 -0.4947 -0.8690
vn 0.0083 -0.4952 -0.8687
vn -0.7680 -0.6404 -0.0095
vn 0.0037 -0.4981 -0.8671
vn -0.9477 -0.3189 -0.0086
vn 0.1169 -0.6284 -0.7690
vn 0.0050 -0.4974 -0.8675
vn 0.0082 -0.4957 -0.8684
vn 0.0048 -0.4974 -0.8675
vn -0.8083 -0.5887 -0.0035
vn -0.0094 -0.5042 -0.8635
vn -0.8529 -0.5219 -0.0103
vn -0.0050 -0.5027 -0.8644
vn -0.8384 -0.5451 -0.0056
vn 0.0087 -0.4962 -0.8682
vn 0.0025 -0.4989 -0.8667
vn 0.0025 -0.4983 -0.8670
vn -0.8906 -0.4548 -0.0052
vn 0.3059 -0.5593 -0.7705
vn -0.0060 -0.5038 -0.8638
vn -0.9341 -0.3571 -0.0048
vn 0.0048 -0.4976 -0.8674
vn -0.3594 -0.9332 0.0015
vn 0.5163 -0.7521 -0.4095
vn -0.0138 -0.5038 -0.8637
vn -0.3823 -0.9240 -0.0039
vn 0.2053 -0.9550 -0.2143
vn -0.4305 -0.9025 -0.0086
vn -0.5114 -0.8593 -0.0042
vn -0.5098 -0.8603 -0.0045
vn -0.5122 -0.8588 -0.0040
vn 0.3669 -0.9082 -0.2015
vn -0.5089 -0.8608 -0.0047
vn -0.0953 -0.5607 -0.8225
vn 0.3632 -0.3991 -0.8419
vn 0.5796 -0.7669 -0.2755
vn 0.3144 -0.3965 -0.8625
vn -0.0052 -0.5051 -0.8631
vn -0.0070 -0.5065 -0.8622
vn -0.0022 -0.5026 -0.8645
vn 0.6005 -0.7959 -0.0769
vn 0.0198 -0.4854 -0.8741
vn 0.5809 -0.8139 -0.0092
vn -0.0965 -0.9953 -0.0084
vn 0.1015 -0.9948 -0.0056
vn -0.1146 -0.9934 -0.0064
vn -0.2335 -0.9723 -0.0068
vn 0.4950 -0.4937 -0.7150
vn 0.5659 -0.4474 -0.6925
vn -0.1779 -0.9840 0.0064
vn -0.2243 -0.9745 -0.0011
vn 0.0237 -0.8236 -0.5666
vn 0.1645 -0.8781 -0.4493
vn -0.0425 -0.9991 -0.0051
vn 0.2476 -0.4464 -0.8599
vn 0.0363 -0.6853 -0.7273
vn 0.0686 -0.9868 -0.1467
vn 0.0019 -0.6857 -0.7279
vn 0.1012 -0.9873 -0.1221
vn -0.0079 -0.5063 -0.8623
vn 0.0896 -0.4055 -0.9097
vn 0.9975 -0.0711 0.0028
vn -0.2118 -0.4755 -0.8538
vn 0.0027 -0.4988 -0.8667
vn -0.0015 -0.5020 -0.8649
vn 0.0789 -0.3746 -0.9238
vn 0.0165 -0.4885 -0.8724
vn 0.0018 -0.8238 -0.5669
vn -0.0483 -0.0452 -0.9978
vn -0.0046 -0.2149 -0.9766
vn -0.0061 -0.2148 -0.9766
vn -0.0067 -0.2149 -0.9766
vn -0.1047 -0.4609 -0.8812
vn -0.1048 -0.4610 -0.8812
vn -0.1051 -0.4610 -0.8811
vn -0.1045 -0.4609 -0.8813
vn 0.8131 0.3342 -0.4766
vn 0.3990 -0.9170 -0.0034
vn 0.7747 0.0187 -0.6321
vn -0.8513 -0.5247 -0.0055
vn -0.9272 -0.3745 -0.0048
vn -0.1713 0.0062 -0.9852
vn -0.1756 0.0063 -0.9844
vn -0.1786 0.0063 -0.9839
vn -0.9110 -0.4125 -0.0017
vn -0.0484 0.0059 -0.9988
vn -0.9865 -0.1634 -0.0065
vn -0.9933 -0.1153 -0.0035
vn -0.8360 -0.5487 -0.0056
vn 0.0231 -0.4926 -0.8700
vn -0.7397 -0.6729 -0.0091
vn 0.4807 -0.0849 -0.8728
vn -0.3671 -0.2993 -0.8807
vn 0.7321 -0.6812 -0.0035
vn 0.6601 -0.7512 0.0020
vn 0.4788 -0.8779 -0.0041
vn 0.7436 -0.6686 -0.0010
vn 0.0080 -0.4960 -0.8683
vn 0.2313 -0.1588 -0.9598
vn 0.0148 -0.4935 -0.8696
vn 0.3562 -0.1575 -0.9210
vn 0.3499 -0.3949 -0.8495
vn 0.4453 -0.8954 0.0011
vn 0.3750 -0.3849 -0.8433
vn 0.2796 -0.3333 -0.9004
vn -0.1625 -0.6249 -0.7636
vn -0.1486 -0.5249 -0.8381
vn -0.3736 -0.4104 -0.8319
vn 0.6668 -0.7452 -0.0013
vn -0.3794 -0.5645 -0.7331
vn -0.3587 -0.4013 -0.8428
vn 0.4274 0.1557 -0.8906
vn 0.4476 -0.2631 -0.8546
vn -0.5313 -0.4489 -0.7185
vn 0.3944 -0.1254 -0.9104
vn 0.0862 0.9963 0.0061
vn 0.0961 0.9954 0.0055
vn 0.0860 0.9963 0.0060
vn 0.0863 0.9963 0.0061
vn -0.0136 -0.5134 -0.8580
vn 0.0999 0.9950 0.0053
vn 0.8913 -0.4533 -0.0018
vn 0.2331 0.9724 0.0070
vn 0.6066 -0.2278 -0.7617
vn 0.9750 -0.2222 0.0051
vn 0.5630 -0.0741 -0.8232
vn -0.4830 -0.5958 -0.6417
vn 0.8402 -0.5423 0.0009
vn -0.5766 -0.4012 -0.7118
vn 0.9810 -0.1939 0.0015
vn -0.2793 -0.2050 -0.9381
vn 0.6020 -0.7985 -0.0045
vn 0.9380 -0.3468 0.0019
vn 0.7796 -0.6262 -0.0021
vn -0.1436 -0.1394 -0.9798
vn -0.1434 -0.1362 -0.9802
vn -0.1433 -0.1355 -0.9804
vn 0.2233 -0.0037 -0.9747
vn 0.2235 -0.0059 -0.9747
vn 0.2233 -0.0064 -0.9747
vn -0.2475 -0.2905 -0.9243
vn 0.3590 0.9333 0.0032
vn 0.3589 0.9334 0.0032
vn 0.9670 -0.2545 0.0073
vn -0.1378 -0.1548 -0.9783
vn 0.0028 0.0060 -1.0000
vn -0.6789 0.0043 -0.7343
vn 0.0028 0.0058 -1.0000
vn 0.0029 0.0060 -1.0000
vn 0.2144 -0.2299 -0.9493
vn 0.0028 0.0057 -1.0000
vn -0.6446 0.0049 -0.7645
vn -0.5046 0.0050 -0.8634
vn -0.3820 0.0039 -0.9242
vn -0.0000 -1.0000 -0.0060
vn -0.0000 -1.0000 -0.0061
vn 0.0001 -1.0000 -0.0060
vn 0.3480 -0.9374 -0.0112
vn 0.3480 -0.9374 -0.0113
vn 0.1203 -0.9927 -0.0030
vn 0.1203 -0.9927 -0.0032
vn -0.4465 -0.0460 -0.8936
vn -0.4463 -0.0446 -0.8938
vn -0.4462 -0.0449 -0.8938
vn 0.0665 -0.9978 -0.0057
vn -0.1436 -0.1406 -0.9796
vn 0.6318 -0.6942 -0.3449
vn -0.4474 -0.0549 -0.8926
vn 0.0027 0.0059 -1.0000
vn -0.5726 -0.2305 -0.7868
vn -0.5533 -0.2618 -0.7908
vn -0.4469 0.0049 -0.8946
vn -0.3237 0.2185 -0.9206
vn 0.9612 -0.2522 -0.1119
vn -0.3512 -0.2928 -0.8894
vn -0.1683 0.0062 -0.9857
vn 0.8837 -0.4485 -0.1337
vn -0.1786 -0.0144 -0.9838
vn 0.0029 0.0059 -1.0000
vn 0.9954 -0.0960 0.0023
vn -0.5009 -0.0744 -0.8623
vn 0.9954 -0.0959 0.0020
vn 0.0150 -0.1671 -0.9858
vn 0.0142 -0.1671 -0.9858
vn 0.0164 -0.1670 -0.9858
vn -0.5503 -0.1114 -0.8275
vn 0.8379 -0.5291 -0.1338
vn 0.0908 -0.2790 -0.9560
vn 0.9493 -0.3143 0.0007
vn 0.9493 -0.3143 0.0008
vn 0.9493 -0.3143 0.0010
vn 0.0586 -0.3737 -0.9257
vn 0.9709 -0.2396 0.0045
vn 0.0356 -0.5989 -0.8000
vn 0.9709 -0.2396 0.0046
vn 0.9709 -0.2395 0.0044
vn 0.1626 -0.0482 -0.9855
vn 0.8134 -0.5817 -0.0028
vn 0.0604 0.0059 -0.9982
vn 0.0616 0.0059 -0.9981
vn 0.0632 0.0059 -0.9980
vn 0.8820 -0.4535 -0.1282
vn 0.1461 -0.2067 -0.9674
vn 0.8367 -0.5476 -0.0007
vn 0.8368 -0.5475 -0.0008
vn 0.0604 -0.0325 -0.9976
vn 0.6816 -0.7317 -0.0025
vn 0.6752 -0.7376 -0.0033
vn 0.6817 -0.7316 -0.0031
vn 0.6818 -0.7315 -0.0027
vn 0.6752 -0.7376 -0.0026
vn 0.4827 0.0046 -0.8758
vn 0.3162 -0.9487 -0.0019
vn 0.3039 -0.9527 -0.0007
vn 0.3134 -0.9496 -0.0012
vn 0.0025 -0.5993 -0.8006
vn 0.0651 -0.9979 -0.0057
vn 0.8474 -0.5309 -0.0001
vn 0.7954 -0.6061 -0.0011
vn 0.5169 0.0049 -0.8560
vn 0.5651 -0.8250 -0.0017
vn 0.5735 -0.8192 -0.0030
vn 0.5099 -0.8603 0.0002
vn 0.8645 -0.3676 -0.3427
vn 0.8851 -0.3161 -0.3416
vn 0.8801 -0.3354 -0.3361
vn 0.9563 -0.1660 0.2407
vn 0.0024 -0.4637 -0.8860
vn 0.4633 -0.8138 -0.3509
vn 0.0027 -0.3743 -0.9273
vn 0.0026 -0.1670 -0.9860
vn 0.4315 -0.9021 -0.0040
vn 0.0028 -0.2149 -0.9766
vn 0.7790 -0.6254 -0.0455
vn 0.0028 -0.0362 -0.9993
vn 0.0028 -0.0416 -0.9991
vn 0.0028 -0.0453 -0.9990
vn 0.0028 -0.0326 -0.9995
vn 0.6094 -0.7171 -0.3383
vn 0.7311 0.0039 -0.6823
vn 0.9024 -0.4309 0.0040
vn 0.4911 -0.8711 -0.0021
vn 0.4911 -0.8711 -0.0022
vn 0.6896 -0.7177 -0.0970
vn -0.0002 -0.5010 -0.8655
vn 0.6443 -0.7607 -0.0792
vn 0.3068 -0.9516 -0.0159
vn 0.3070 -0.9516 -0.0160
vn 0.3069 -0.9516 -0.0163
vn -0.9853 0.1711 -0.0011
vn -0.9881 0.1536 -0.0019
vn 0.9242 0.0023 -0.3820
vn -0.9020 0.4318 -0.0000
vn -0.9115 0.4114 -0.0008
vn -0.7919 0.6106 0.0014
vn 0.7748 0.0025 -0.6323
vn 0.3349 0.9422 0.0053
vn -0.6439 0.7651 0.0027
vn -0.6220 0.7830 0.0021
vn 0.5331 0.8460 0.0080
vn 0.9951 -0.0984 0.0022
vn 0.8589 0.0029 -0.5121
vn 0.6319 0.7751 0.0036
vn 0.0106 -0.4914 -0.8709
vn -0.4153 0.9097 0.0044
vn -0.4384 0.8988 0.0050
vn 0.6835 0.7299 -0.0013
vn 0.6836 0.7299 -0.0013
vn 0.6834 0.7301 -0.0013
vn 0.9217 -0.0415 -0.3856
vn -0.1695 0.9855 0.0051
vn -0.2472 0.9689 0.0082
vn 0.8259 0.5637 0.0057
vn 0.9323 -0.1320 -0.3368
vn -0.0614 0.9981 0.0057
vn 0.3390 0.0058 -0.9408
vn 0.9408 0.0017 -0.3391
vn -0.9892 -0.1463 -0.0037
vn 0.8434 0.5372 0.0075
vn 0.0643 0.0059 -0.9979
vn -0.9816 -0.1909 -0.0007
vn 0.9628 -0.1550 -0.2211
vn 0.9774 0.2114 0.0040
vn -0.9135 -0.4069 -0.0063
vn 0.9928 0.0007 -0.1201
vn 0.9897 0.0011 -0.1435
vn 0.9734 -0.1560 -0.1676
vn 0.9880 -0.0970 -0.1201
vn -0.6746 -0.7382 -0.0063
vn 0.2233 0.0056 -0.9747
vn -0.5806 -0.8141 -0.0112
vn 0.1916 0.0053 -0.9815
vn -0.9335 -0.3586 -0.0060
vn -0.9300 -0.3675 -0.0065
vn -0.9314 -0.3640 -0.0063
vn -0.9020 -0.4318 -0.0035
vn -0.9348 -0.3550 -0.0058
vn -0.8222 -0.5692 -0.0067
vn -0.9904 -0.1383 -0.0036
vn 0.7449 -0.4787 -0.4648
vn -0.7965 -0.6046 -0.0051
vn -0.9929 -0.1188 -0.0022
vn -0.4388 -0.8986 -0.0044
vn 0.5795 -0.4058 -0.7068
vn 0.5548 -0.2941 -0.7782
vn -0.3511 -0.9362 -0.0146
vn 0.6302 -0.1567 -0.7605
vn -0.6746 -0.7382 -0.0079
vn 0.7256 -0.1158 -0.6783
vn -0.6975 -0.7166 -0.0062
vn -0.5369 -0.8436 -0.0065
vn 0.7545 -0.2933 -0.5872
vn -0.1173 -0.9931 -0.0062
vn -0.4851 -0.8744 -0.0120
vn -0.1424 -0.9898 -0.0077
vn 0.7278 -0.5052 -0.4637
vn -0.3319 -0.9433 -0.0056
vn -0.1802 -0.9836 -0.0084
vn 0.7784 -0.3930 -0.4896
vn -0.1531 -0.9882 -0.0068
vn 0.7540 -0.3304 -0.5677
vn -0.3070 -0.9517 -0.0076
vn 0.7601 -0.2746 -0.5890
vn -0.4714 -0.8819 -0.0065
vn 0.0003 -0.9944 -0.1054
vn -0.6046 -0.7965 -0.0087
vn 0.8795 -0.4759 0.0060
vn 0.9376 -0.3477 -0.0014
vn 0.8955 -0.4450 0.0042
vn -0.6214 -0.7835 -0.0101
vn 0.9111 -0.2516 -0.3265
vn 0.9290 -0.3702 0.0022
vn 0.7974 -0.4975 -0.3416
vn 0.7978 -0.4938 -0.3459
vn 0.7975 -0.4960 -0.3434
vn -0.8275 -0.5615 -0.0042
vn 0.0008 -0.9367 -0.3502
vn -0.7260 -0.6877 -0.0061
vn 0.7973 -0.4981 -0.3409
vn -0.8402 -0.5423 -0.0056
vn 0.0006 -0.9123 -0.4096
vn 0.7260 -0.6330 -0.2686
vn 0.7259 -0.6330 -0.2690
vn 0.7278 -0.6326 -0.2647
vn 0.7283 -0.6325 -0.2639
vn -0.1370 -0.9906 -0.0062
vn 0.6560 -0.5443 -0.5228
vn 0.5667 -0.6169 -0.5462
vn 0.9854 -0.1704 0.0046
vn -0.1595 -0.7367 -0.6571
vn 0.9990 -0.0434 -0.0047
vn 0.9658 -0.2590 0.0087
vn -0.0062 -1.0000 -0.0059
vn 0.9593 -0.2822 0.0099
vn -0.0257 -0.9996 -0.0107
vn -0.3191 -0.8425 -0.4341
vn -0.7104 -0.7038 -0.0065
vn -0.5178 -0.8555 -0.0098
vn 0.0006 -0.9891 -0.1473
vn -0.4235 -0.8681 -0.2591
vn -0.1599 -0.9528 -0.2581
vn -0.4366 -0.8642 -0.2503
vn -0.4545 -0.8752 -0.1656
vn -0.1813 -0.9834 -0.0088
vn -0.1383 -0.9904 -0.0062
vn -0.1351 -0.9605 -0.2432
vn -0.1439 -0.9840 -0.1047
vn -0.1810 -0.9822 -0.0497
vn -0.4986 -0.8668 -0.0074
vn -0.4856 -0.8741 -0.0065
vn -0.4814 -0.8664 -0.1325
vn -0.3213 -0.9470 -0.0063
vn 0.0089 -0.4962 -0.8681
vn 0.0025 -0.4987 -0.8668
vn 0.0231 -0.4909 -0.8709
vn 0.4062 -0.9138 -0.0064
vn 0.3169 -0.9485 -0.0014
vn 0.0416 -0.9991 -0.0053
vn 0.0911 -0.9958 0.0016
vn 0.2150 -0.9766 -0.0034
vn 0.2101 -0.9777 -0.0065
vn 0.8296 -0.5584 0.0010
vn 0.7265 -0.6872 -0.0006
vn 0.6753 -0.7376 0.0013
vn 0.6420 -0.7667 0.0031
s 1
f 1//1 2//1 3//1
f 4//2 5//2 6//2
f 4//2 6//2 7//2
f 1//3 8//3 2//3
f 8//4 9//4 2//4
f 10//5 11//5 12//5
f 12//5 11//5 13//5
f 12//5 13//5 14//5
f 15//6 3//6 16//6
f 2//6 16//6 3//6
f 2//6 9//6 16//6
f 9//6 17//6 16//6
f 17//6 18//6 16//6
f 18//6 19//6 16//6
f 17//7 20//7 18//7
f 20//8 21//8 18//8
f 22//9 23//9 24//9
f 25//9 24//9 23//9
f 19//10 18//10 21//10
f 26//6 27//6 28//6
f 29//6 27//6 30//6
f 21//11 24//11 19//11
f 24//12 25//12 19//12
f 30//13 31//13 32//13
f 25//6 33//6 19//6
f 34//6 35//6 23//6
f 36//5 37//5 38//14
f 39//5 38//14 40//5
f 41//5 38//14 42//5
f 43//5 38//14 41//5
f 44//5 38//14 43//5
f 45//5 38//14 44//5
f 40//5 38//14 45//5
f 46//5 38//14 39//5
f 47//15 48//15 49//15
f 50//5 38//14 51//5
f 51//5 38//14 46//5
f 52//6 53//6 54//6
f 34//6 23//6 53//6
f 23//6 54//6 53//6
f 37//5 55//5 38//14
f 56//5 38//14 50//5
f 55//5 42//5 38//14
f 57//16 58//17 59//18
f 58//17 57//16 35//19
f 34//20 58//20 35//20
f 60//21 61//21 62//21
f 63//6 28//6 27//6
f 64//22 65//23 66//24
f 25//6 23//6 57//6
f 35//6 57//6 23//6
f 57//6 33//6 25//6
f 67//25 65//25 64//25
f 67//26 64//26 68//26
f 69//27 70//28 71//29
f 72//30 73//30 74//30
f 27//6 26//6 75//6
f 75//6 26//6 76//6
f 77//31 78//31 79//31
f 79//32 80//32 77//32
f 81//33 82//33 83//33
f 84//34 85//34 77//34
f 77//35 86//35 84//35
f 36//36 75//36 76//36
f 86//37 77//37 80//37
f 37//38 87//38 55//38
f 88//39 79//39 89//39
f 37//40 36//40 76//40
f 79//41 78//41 89//41
f 90//42 91//42 92//42
f 36//43 93//43 75//43
f 75//44 93//44 94//44
f 75//45 94//45 27//45
f 95//46 96//47 97//48
f 98//49 99//49 100//49
f 101//6 102//6 26//6
f 103//50 83//50 104//50
f 95//46 97//48 105//51
f 82//33 104//33 83//33
f 84//52 106//52 107//52
f 81//53 108//53 82//53
f 109//54 108//54 81//54
f 84//55 86//55 106//55
f 86//56 80//56 110//56
f 108//57 109//57 111//57
f 106//58 86//58 110//58
f 97//59 112//59 113//59
f 111//60 90//60 114//60
f 90//61 111//61 109//61
f 49//62 115//62 116//62
f 49//63 116//63 47//63
f 114//64 90//64 92//64
f 85//65 47//65 116//65
f 116//66 77//66 85//66
f 78//67 77//67 116//67
f 99//68 92//68 91//68
f 116//69 117//69 89//69
f 99//70 98//70 92//70
f 78//71 116//71 89//71
f 98//72 100//72 118//72
f 119//73 116//73 115//73
f 16//6 19//6 33//6
f 82//6 108//6 16//6
f 82//6 16//6 104//6
f 108//6 111//6 16//6
f 111//6 114//6 16//6
f 96//74 95//74 120//74
f 121//75 120//75 122//75
f 123//76 124//76 125//76
f 92//6 16//6 114//6
f 125//77 126//77 123//77
f 16//6 98//6 118//6
f 92//6 98//6 16//6
f 57//78 59//78 33//78
f 103//79 104//79 127//79
f 128//80 103//80 127//80
f 96//81 120//81 121//81
f 129//82 128//82 127//82
f 130//83 129//83 127//83
f 73//84 129//84 130//84
f 73//85 130//85 131//85
f 132//86 133//86 121//86
f 74//87 73//87 131//87
f 134//88 72//88 135//88
f 123//89 88//89 136//89
f 137//90 71//29 70//28
f 72//91 74//91 135//91
f 70//28 138//92 137//90
f 88//93 123//93 126//93
f 33//94 134//94 135//94
f 59//78 139//78 33//78
f 33//95 139//95 134//95
f 140//96 141//97 142//98
f 66//99 143//99 124//99
f 131//6 16//6 74//6
f 130//6 16//6 131//6
f 127//6 16//6 130//6
f 104//6 16//6 127//6
f 33//6 135//6 16//6
f 135//6 74//6 16//6
f 144//5 145//5 4//100
f 146//101 145//5 144//5
f 147//6 148//6 149//6
f 150//5 151//5 12//5
f 152//102 115//102 153//102
f 154//78 153//78 155//78
f 156//103 157//103 158//103
f 143//104 159//105 125//106
f 159//107 110//107 126//107
f 159//105 126//108 125//106
f 67//109 160//109 143//109
f 12//5 14//5 150//5
f 159//110 143//110 160//110
f 161//111 162//111 163//111
f 125//112 124//112 143//112
f 164//5 165//5 4//100
f 145//5 94//5 4//100
f 166//5 167//5 7//5
f 165//5 144//5 4//100
f 89//113 168//113 88//113
f 7//5 169//5 166//5
f 170//5 7//5 167//5
f 12//5 94//5 145//5
f 170//5 164//5 4//100
f 7//5 170//5 4//100
f 117//114 168//114 89//114
f 163//115 162//115 132//115
f 93//5 38//14 94//5
f 132//116 162//116 133//116
f 171//117 105//117 172//117
f 38//14 4//100 94//5
f 151//5 94//5 12//5
f 105//118 97//118 172//118
f 88//119 173//120 136//121
f 161//122 174//122 175//122
f 162//123 161//123 175//123
f 168//124 176//124 173//124
f 113//125 172//125 97//125
f 88//119 168//126 173//120
f 177//127 112//127 178//127
f 88//128 126//128 110//128
f 179//129 177//129 178//129
f 80//130 79//130 88//130
f 88//131 110//131 80//131
f 180//5 38//14 56//5
f 178//132 162//132 175//132
f 181//133 182//133 176//133
f 183//134 184//134 185//134
f 119//135 115//136 186//136
f 181//137 176//137 187//137
f 186//138 181//138 187//138
f 119//139 186//139 187//139
f 187//140 116//140 119//140
f 187//141 176//141 168//141
f 188//142 112//142 97//142
f 187//143 168//143 117//143
f 188//144 97//144 96//144
f 187//145 117//145 116//145
f 112//146 188//146 133//146
f 176//147 182//147 189//147
f 176//148 189//148 190//148
f 191//100 183//5 180//5
f 93//5 36//5 38//14
f 70//28 141//149 192//150
f 193//151 194//152 195//153
f 70//28 192//150 138//92
f 190//154 123//154 136//154
f 176//155 190//155 173//155
f 173//156 190//156 136//156
f 137//157 46//158 101//159
f 137//157 101//159 71//160
f 196//161 197//161 193//161
f 189//162 182//162 198//162
f 49//163 153//163 115//163
f 141//97 140//96 199//164
f 152//165 186//136 115//136
f 200//166 201//167 193//168
f 202//169 181//169 186//169
f 203//6 26//6 204//6
f 205//6 26//6 203//6
f 102//6 206//6 26//6
f 207//6 26//6 205//6
f 208//6 26//6 207//6
f 87//6 26//6 208//6
f 76//6 26//6 87//6
f 204//6 26//6 209//6
f 210//170 200//166 193//168
f 44//171 205//171 45//171
f 202//172 186//172 152//172
f 193//173 155//27 211//27
f 48//78 155//78 49//78
f 212//6 213//6 193//6
f 40//174 204//174 209//174
f 40//175 203//175 204//175
f 214//176 182//176 181//176
f 40//177 45//177 203//177
f 205//178 203//178 45//178
f 215//179 216//180 193//181
f 44//182 207//182 205//182
f 193//181 217//183 215//179
f 37//184 76//184 87//184
f 171//185 172//185 218//185
f 219//186 220//187 193//188
f 43//189 207//189 44//189
f 195//190 221//190 193//190
f 207//191 43//191 41//191
f 193//192 220//192 222//192
f 207//193 41//193 208//193
f 193//194 221//195 223//196
f 41//197 42//197 87//197
f 41//197 87//197 208//197
f 105//198 171//198 95//198
f 193//199 216//199 224//199
f 153//78 49//78 155//78
f 42//200 55//200 87//200
f 193//188 224//201 219//186
f 39//202 102//202 101//202
f 181//176 202//176 214//176
f 188//203 96//203 121//203
f 193//204 225//204 226//204
f 39//205 101//205 46//205
f 162//206 112//206 133//206
f 39//207 206//207 102//207
f 209//208 39//209 40//210
f 178//211 112//211 162//211
f 209//208 206//212 39//209
f 217//213 193//213 197//213
f 227//214 95//214 171//214
f 133//215 188//215 121//215
f 209//6 26//6 206//6
f 101//78 26//78 71//78
f 95//216 228//216 229//216
f 141//97 199//164 56//9
f 193//217 230//218 231//219
f 132//220 232//220 163//220
f 193//221 231//221 233//221
f 212//2 193//2 211//2
f 132//222 234//222 232//222
f 50//223 192//223 141//223
f 175//224 174//224 235//224
f 50//225 51//225 192//225
f 192//226 51//226 46//226
f 95//227 229//227 120//227
f 229//228 236//228 120//228
f 192//229 46//229 138//229
f 137//230 138//230 46//230
f 177//231 172//231 113//231
f 177//232 113//232 112//232
f 141//233 56//233 50//233
f 227//234 171//234 218//234
f 237//235 64//235 66//235
f 235//236 179//236 178//236
f 64//237 237//237 172//237
f 175//238 235//238 178//238
f 193//239 233//239 238//239
f 239//240 240//240 227//240
f 183//241 241//241 184//241
f 124//242 237//242 66//242
f 142//243 141//149 70//28
f 193//217 242//244 230//218
f 218//245 239//245 227//245
f 193//246 238//246 196//246
f 64//247 172//247 177//247
f 191//100 243//5 244//5
f 243//5 191//100 245//5
f 246//5 245//5 191//100
f 174//9 247//9 235//9
f 248//5 249//5 191//100
f 249//5 183//5 191//100
f 244//5 250//5 191//100
f 251//248 148//248 252//248
f 191//100 250//5 248//5
f 252//249 253//250 254//251
f 237//252 254//253 253//254
f 237//252 255//255 254//253
f 256//256 156//256 158//256
f 245//257 200//257 210//257
f 256//258 257//258 156//258
f 183//5 38//14 180//5
f 258//6 27//6 259//6
f 260//259 258//259 259//259
f 260//259 259//259 261//259
f 27//6 262//6 263//6
f 27//6 263//6 259//6
f 146//33 144//33 264//33
f 265//33 264//33 144//33
f 261//260 259//260 263//260
f 266//261 149//262 251//263
f 267//33 146//33 264//33
f 267//33 264//33 268//33
f 261//264 263//264 269//264
f 148//265 251//265 149//265
f 263//266 270//266 269//266
f 271//6 247//6 272//6
f 273//6 247//6 271//6
f 274//6 247//6 273//6
f 275//6 247//6 274//6
f 276//6 247//6 275//6
f 277//6 247//6 276//6
f 263//267 262//267 270//267
f 258//6 278//6 27//6
f 260//268 278//268 258//268
f 193//269 226//269 279//269
f 280//6 247//6 281//6
f 260//270 282//270 278//270
f 283//6 280//6 281//6
f 256//271 284//271 285//271
f 286//6 280//6 283//6
f 287//6 280//6 22//6
f 288//6 280//6 286//6
f 289//6 281//6 247//6
f 290//272 291//272 255//272
f 244//273 243//273 194//273
f 288//6 22//6 280//6
f 287//6 22//6 24//6
f 287//6 24//6 21//6
f 287//6 21//6 20//6
f 287//6 20//6 8//6
f 287//6 8//6 1//6
f 292//6 287//6 1//6
f 194//274 222//274 244//274
f 58//6 289//6 247//6
f 59//6 58//6 247//6
f 103//6 293//6 83//6
f 223//275 221//275 245//275
f 244//276 224//276 216//276
f 194//152 193//151 222//277
f 72//6 134//6 174//6
f 174//6 161//6 72//6
f 294//278 295//278 284//278
f 210//279 193//194 223//196
f 139//6 247//6 134//6
f 294//280 284//280 228//280
f 59//6 247//6 139//6
f 247//6 174//6 134//6
f 91//6 293//6 99//6
f 90//6 293//6 91//6
f 109//6 293//6 90//6
f 81//6 293//6 109//6
f 83//6 293//6 81//6
f 128//6 293//6 103//6
f 129//6 293//6 128//6
f 129//6 73//6 293//6
f 95//281 294//281 228//281
f 73//6 72//6 161//6
f 163//282 293//282 161//282
f 95//283 227//283 294//283
f 294//284 227//284 240//284
f 293//6 73//6 161//6
f 124//285 296//285 237//285
f 280//6 272//6 247//6
f 237//286 296//286 255//286
f 193//196 297//196 185//196
f 142//2 70//2 140//2
f 298//2 140//2 70//2
f 255//287 296//287 299//287
f 300//288 293//288 232//288
f 301//6 302//6 100//6
f 302//6 303//6 100//6
f 100//6 282//6 260//6
f 261//6 270//6 260//6
f 269//6 270//6 261//6
f 100//6 260//6 270//6
f 124//289 304//289 296//289
f 296//290 304//290 299//290
f 305//291 284//291 256//291
f 300//6 100//6 293//6
f 100//6 99//6 293//6
f 229//292 305//292 306//292
f 307//6 100//6 308//6
f 299//293 123//293 190//293
f 228//294 284//294 305//294
f 144//295 165//296 309//297
f 144//295 309//297 265//298
f 310//6 301//6 307//6
f 193//299 185//299 184//299
f 165//296 311//300 309//297
f 61//301 312//301 308//301
f 164//302 313//302 165//302
f 228//303 305//303 229//303
f 300//6 308//6 100//6
f 312//304 307//304 308//304
f 70//6 314//6 307//6
f 256//305 306//305 305//305
f 304//306 124//306 123//306
f 61//307 308//307 300//307
f 299//308 304//308 123//308
f 315//6 307//6 314//6
f 231//309 249//309 248//309
f 282//6 100//6 303//6
f 290//310 255//310 299//310
f 293//311 163//311 232//311
f 248//312 233//312 231//312
f 100//6 307//6 301//6
f 300//313 232//313 61//313
f 316//314 252//315 317//316
f 32//6 310//6 307//6
f 165//302 313//302 311//302
f 318//317 285//318 284//319
f 319//6 32//6 307//6
f 317//320 254//320 255//320
f 164//321 320//322 313//322
f 321//6 322//6 323//6
f 307//323 312//323 324//323
f 325//6 319//6 307//6
f 326//6 325//6 307//6
f 326//6 307//6 327//6
f 327//6 307//6 315//6
f 328//78 145//78 146//78
f 328//78 146//78 267//78
f 252//324 254//324 317//324
f 320//6 323//6 322//6
f 311//325 313//6 309//6
f 313//6 320//6 309//6
f 182//326 214//326 198//326
f 328//33 277//33 145//33
f 12//33 145//33 277//33
f 70//6 69//6 314//6
f 329//327 330//328 320//6
f 295//329 294//329 240//329
f 268//6 328//327 267//330
f 198//331 214//331 331//331
f 198//332 331//332 332//332
f 333//6 297//6 213//6
f 334//333 198//333 332//333
f 335//334 336//334 213//335
f 335//334 213//335 212//336
f 212//336 337//9 335//334
f 338//9 335//334 337//9
f 339//337 340//337 341//338
f 339//339 333//340 342//340
f 339//339 342//340 340//339
f 198//341 266//342 316//343
f 339//6 297//6 333//6
f 333//344 213//344 336//344
f 333//344 336//344 342//344
f 251//345 252//315 316//314
f 343//346 121//346 122//346
f 317//347 198//341 316//343
f 342//6 336//348 6//6
f 335//348 6//6 336//348
f 268//2 335//2 338//2
f 264//2 335//2 268//2
f 190//349 189//349 290//349
f 268//6 338//6 337//6
f 268//6 337//6 328//327
f 299//350 190//350 290//350
f 266//351 198//351 334//351
f 291//352 198//352 317//352
f 344//353 324//353 312//353
f 317//354 255//354 291//354
f 328//327 337//6 277//6
f 149//262 266//261 334//355
f 312//356 61//356 344//356
f 297//2 345//2 346//2
f 297//2 346//2 38//2
f 266//357 251//357 316//357
f 297//6 347//358 345//358
f 4//359 346//359 5//359
f 290//360 198//360 291//360
f 346//359 345//359 5//359
f 348//361 5//359 345//359
f 345//359 347//361 348//361
f 349//362 350//363 295//364
f 290//365 189//365 198//365
f 61//366 351//366 352//366
f 349//367 295//367 240//367
f 353//6 297//6 354//6
f 355//358 297//6 353//6
f 297//6 193//6 213//6
f 356//368 357//369 355//369
f 356//368 355//369 353//370
f 239//371 349//371 240//371
f 347//358 297//6 355//358
f 4//372 38//372 346//372
f 172//373 239//373 218//373
f 347//374 355//375 357//375
f 347//374 357//375 348//374
f 354//6 297//6 358//6
f 295//376 350//376 284//376
f 359//377 360//377 354//377
f 359//377 354//377 358//377
f 147//378 361//379 318//380
f 62//381 61//381 352//381
f 318//382 284//382 350//382
f 353//383 354//384 360//384
f 353//383 360//384 356//383
f 358//6 297//6 362//6
f 147//385 318//385 350//385
f 247//6 277//6 337//6
f 358//386 362//387 363//388
f 358//386 363//388 359//389
f 362//6 297//6 364//6
f 341//6 297//6 339//6
f 362//387 364//390 365//390
f 362//387 365//390 363//388
f 364//6 297//6 366//6
f 367//6 247//6 337//6
f 368//6 367//6 337//6
f 84//6 107//6 337//6
f 256//391 285//391 369//391
f 84//6 337//6 85//6
f 368//6 337//6 107//6
f 47//358 85//6 337//6
f 201//392 200//393 245//394
f 211//6 48//6 337//6
f 47//358 337//6 48//6
f 155//6 48//6 211//6
f 237//395 239//395 172//395
f 199//164 370//9 56//9
f 191//396 180//396 279//396
f 371//9 56//9 370//9
f 369//9 56//9 372//9
f 373//9 56//9 369//9
f 215//397 250//397 244//397
f 371//9 372//9 56//9
f 216//398 215//398 244//398
f 56//9 373//9 374//9
f 56//9 374//9 361//9
f 180//9 56//9 149//9
f 369//399 372//399 256//399
f 287//78 15//78 280//78
f 195//400 194//400 243//400
f 221//401 243//401 245//401
f 195//402 243//402 221//402
f 60//403 375//403 344//403
f 62//404 376//404 60//404
f 16//78 94//78 15//78
f 157//405 60//405 376//405
f 151//78 280//78 15//78
f 151//78 15//78 94//78
f 61//406 60//406 344//406
f 253//407 239//407 237//407
f 132//408 121//408 234//408
f 239//409 253//409 349//409
f 94//78 16//78 118//78
f 349//362 253//410 350//363
f 223//411 245//411 210//411
f 100//78 262//78 118//78
f 118//78 262//78 94//78
f 253//250 252//249 350//412
f 61//413 232//413 351//413
f 148//414 350//415 252//416
f 27//78 94//78 262//78
f 361//6 147//6 149//6
f 270//78 262//78 100//78
f 148//414 147//417 350//415
f 343//418 234//418 121//418
f 256//419 372//419 371//419
f 238//420 248//420 196//420
f 364//421 366//422 377//422
f 364//421 377//422 365//421
f 343//423 351//423 232//423
f 366//6 297//6 341//6
f 193//217 241//424 242//244
f 234//425 343//425 232//425
f 378//426 377//427 366//428
f 378//426 366//428 341//426
f 150//429 272//429 151//429
f 378//6 340//6 6//6
f 272//430 280//430 151//430
f 370//431 199//431 257//431
f 14//432 271//432 150//432
f 340//337 378//338 341//338
f 271//433 272//433 150//433
f 164//321 170//321 320//322
f 14//434 13//434 273//434
f 14//434 273//434 271//434
f 256//435 371//435 257//435
f 329//436 320//436 170//436
f 13//437 11//437 273//437
f 11//438 274//438 273//438
f 170//439 167//439 330//439
f 170//439 330//439 329//439
f 307//440 324//440 298//440
f 370//441 257//441 371//441
f 166//442 321//442 323//442
f 193//443 184//443 241//443
f 274//444 10//444 275//444
f 11//445 10//445 274//445
f 167//446 166//446 323//447
f 167//446 323//447 330//448
f 375//449 156//449 379//449
f 10//450 12//450 275//450
f 275//451 12//451 276//451
f 380//452 322//452 169//452
f 166//452 169//452 322//452
f 156//453 257//453 379//453
f 12//454 277//454 276//454
f 373//455 369//455 285//455
f 257//456 199//456 379//456
f 15//457 287//457 292//457
f 166//458 322//458 321//458
f 374//459 318//380 361//379
f 292//460 3//460 15//460
f 379//461 344//461 375//461
f 6//462 380//462 7//462
f 169//462 7//462 380//462
f 292//463 1//463 3//463
f 70//2 307//2 298//2
f 140//464 298//464 379//464
f 379//465 199//465 140//465
f 324//466 344//466 379//466
f 298//467 324//467 379//467
f 348//325 357//6 5//6
f 6//6 5//6 357//6
f 6//6 357//6 356//6
f 6//6 356//6 360//6
f 6//6 360//6 359//6
f 6//6 359//6 363//6
f 6//6 363//6 365//6
f 6//6 365//6 377//6
f 342//6 6//6 340//6
f 377//6 378//6 6//6
f 264//358 265//358 335//348
f 330//328 323//6 320//6
f 309//6 320//6 322//6
f 322//6 380//6 309//6
f 380//6 6//6 309//6
f 6//6 335//348 309//6
f 265//358 309//6 335//348
f 8//468 17//468 9//468
f 361//9 149//9 56//9
f 318//317 374//469 285//318
f 8//470 20//470 17//470
f 285//471 374//471 373//471
f 314//78 69//78 26//78
f 69//78 71//78 26//78
f 28//472 63//473 327//474
f 214//9 180//9 331//9
f 289//475 58//475 34//475
f 315//476 28//472 327//474
f 289//477 34//477 53//477
f 26//478 315//478 314//478
f 60//479 156//479 375//479
f 281//480 289//480 53//480
f 152//9 153//9 180//9
f 26//481 28//481 315//481
f 288//482 52//482 54//482
f 381//483 236//483 229//483
f 332//9 331//9 180//9
f 202//9 180//9 214//9
f 334//9 332//9 180//9
f 149//9 334//9 180//9
f 381//484 229//484 306//484
f 286//485 52//485 288//485
f 381//486 256//486 158//486
f 53//487 283//487 281//487
f 381//488 306//488 256//488
f 283//489 53//489 52//489
f 52//490 286//490 283//490
f 154//9 279//9 153//9
f 236//491 381//491 157//491
f 23//492 22//492 288//492
f 303//493 382//493 282//493
f 54//494 23//494 288//494
f 122//495 383//495 376//495
f 303//496 384//496 382//496
f 303//497 302//497 384//497
f 376//498 383//498 157//498
f 202//9 152//9 180//9
f 301//499 310//499 31//499
f 180//9 153//9 279//9
f 236//500 157//500 383//500
f 31//501 310//501 32//501
f 158//502 157//502 381//502
f 32//503 319//503 30//503
f 385//504 68//504 235//504
f 30//505 319//505 325//505
f 248//506 197//506 196//506
f 247//9 385//9 235//9
f 250//507 217//507 248//507
f 217//508 197//508 248//508
f 30//509 325//509 29//509
f 60//510 157//510 156//510
f 233//511 248//511 238//511
f 122//512 376//513 62//514
f 29//515 327//515 63//515
f 177//516 179//516 68//516
f 325//517 326//517 29//517
f 122//512 62//514 352//518
f 29//519 326//519 327//519
f 64//520 177//520 68//520
f 343//521 122//522 352//523
f 29//6 63//6 27//6
f 382//6 384//6 27//6
f 384//6 386//6 27//6
f 386//6 31//6 27//6
f 343//521 352//523 351//524
f 386//525 384//525 302//525
f 122//526 120//526 236//526
f 211//2 337//2 212//2
f 122//527 236//527 383//527
f 183//528 242//528 241//528
f 143//529 66//24 65//23
f 183//530 249//530 231//530
f 31//6 30//6 27//6
f 183//531 231//531 230//531
f 302//532 301//532 386//532
f 183//533 230//533 242//533
f 31//534 386//534 301//534
f 278//6 387//6 27//6
f 382//6 27//6 387//6
f 143//535 65//535 67//535
f 387//536 278//536 282//536
f 282//537 382//537 387//537
f 179//538 235//538 68//538
f 388//539 159//539 160//539
f 388//540 160//540 67//540
f 110//541 159//541 388//541
f 389//542 110//542 388//542
f 367//543 389//543 385//543
f 247//544 367//544 385//544
f 388//545 67//545 68//545
f 388//546 68//546 385//546
f 385//547 389//547 388//547
f 368//548 107//548 389//548
f 389//549 107//549 106//549
f 389//550 106//550 110//550
f 389//551 367//551 368//551
f 390//552 225//552 193//552
f 193//173 279//553 154//553
f 390//554 193//554 201//554
f 154//553 155//27 193//173
f 38//2 183//2 297//2
f 185//2 297//2 183//2
f 246//555 390//555 245//555
f 245//394 390//556 201//392
f 191//557 279//557 226//557
f 226//558 225//558 246//558
f 225//559 390//559 246//559
f 226//560 246//560 191//560
f 250//561 215//561 217//561
f 219//562 224//562 244//562
f 219//563 244//563 220//563
f 220//564 244//564 222//564
o sticker
v -14.701064 -12.769617 0.246372
v -14.701064 15.583174 0.246372
v -14.701064 -12.769617 0.112894
v -14.701064 15.583174 0.112894
v 15.832788 -12.769617 0.246372
v 15.832788 15.583174 0.246372
v 15.832788 -12.769617 0.112894
v 15.832788 15.583174 0.112894
vn -1.0000 -0.0000 -0.0000
vn -0.0000 -0.0000 -1.0000
vn 1.0000 -0.0000 -0.0000
vn -0.0000 -0.0000 1.0000
vn -0.0000 -1.0000 -0.0000
vn -0.0000 1.0000 -0.0000
vt 0.375000 0.000000
vt 0.625000 0.000000
vt 0.625000 0.250000
vt 0.375000 0.250000
vt 0.625000 0.500000
vt 0.375000 0.500000
vt 0.625000 0.750000
vt 0.375000 0.750000
vt 0.625000 1.000000
vt 0.375000 1.000000
vt 0.125000 0.500000
vt 0.125000 0.750000
vt 0.875000 0.500000
vt 0.875000 0.750000
s 0
f 391//565 392//565 394//565 393//565
f 393//566 394//566 398//566 397//566
f 397//567 398//567 396//567 395//567
f 395//568 396//568 392//568 391//568
f 393//569 397//569 395//569 391//569
f 398//570 394//570 392//570 396//570
